<mxfile modified="2020-04-28T17:30:41.416Z" host="app.diagrams.net" agent="5.0 (Macintosh; Intel Mac OS X 10_14_6) AppleWebKit/537.36 (KHTML, like Gecko) Chrome/79.0.3945.88 Safari/537.36" etag="WNDo60Iz4fTgpgwyPMAJ" compressed="false" version="13.0.2" type="github">
  <diagram id="Ht1M8jgEwFfnCIfOTk4-" name="Page-1">
    <mxGraphModel dx="1188" dy="659" grid="1" gridSize="10" guides="1" tooltips="1" connect="1" arrows="1" fold="1" page="1" pageScale="1" pageWidth="1169" pageHeight="827" math="0" shadow="0" extFonts="Roboto^https://fonts.googleapis.com/css?family=Roboto">
      <root>
        <mxCell id="0" />
        <mxCell id="1" parent="0" />
        <mxCell id="tWzSnTYjIMBNes1oTI9M-89" value="" style="fillColor=#EFF0F3;strokeColor=none;dashed=0;verticalAlign=top;fontStyle=0;fontColor=#232F3D;" parent="1" vertex="1">
          <mxGeometry x="570" y="290" width="220" height="130" as="geometry" />
        </mxCell>
        <mxCell id="tWzSnTYjIMBNes1oTI9M-5" value="AWS Cloud (TOOLS)" style="points=[[0,0],[0.25,0],[0.5,0],[0.75,0],[1,0],[1,0.25],[1,0.5],[1,0.75],[1,1],[0.75,1],[0.5,1],[0.25,1],[0,1],[0,0.75],[0,0.5],[0,0.25]];outlineConnect=0;gradientColor=none;html=1;whiteSpace=wrap;fontSize=12;fontStyle=0;shape=mxgraph.aws4.group;grIcon=mxgraph.aws4.group_aws_cloud;strokeColor=#232F3E;fillColor=none;verticalAlign=top;align=left;spacingLeft=30;fontColor=#232F3E;dashed=0;fontFamily=Roboto;FType=g;" parent="1" vertex="1">
          <mxGeometry x="150" y="250" width="360" height="400" as="geometry" />
        </mxCell>
        <mxCell id="tWzSnTYjIMBNes1oTI9M-32" value="Â  Jenkins Pipeline" style="fillColor=none;strokeColor=#000066;dashed=1;verticalAlign=top;fontStyle=0;fontColor=#000099;fontFamily=Roboto;" parent="1" vertex="1">
          <mxGeometry x="190" y="312" width="130" height="268" as="geometry" />
        </mxCell>
        <mxCell id="tWzSnTYjIMBNes1oTI9M-1" value="Users" style="outlineConnect=0;gradientColor=none;fontColor=#545B64;strokeColor=none;fillColor=#879196;dashed=0;verticalLabelPosition=bottom;verticalAlign=top;align=center;html=1;fontSize=12;fontStyle=0;aspect=fixed;shape=mxgraph.aws4.illustration_users;pointerEvents=1;fontFamily=Roboto;" parent="1" vertex="1">
          <mxGeometry x="40" y="360" width="56" height="56" as="geometry" />
        </mxCell>
        <mxCell id="tWzSnTYjIMBNes1oTI9M-40" value="" style="group" parent="1" vertex="1" connectable="0">
          <mxGeometry x="380" y="480" width="70" height="80" as="geometry" />
        </mxCell>
        <mxCell id="tWzSnTYjIMBNes1oTI9M-25" value="" style="shape=image;imageAspect=0;aspect=fixed;verticalLabelPosition=bottom;verticalAlign=top;fillColor=#3333FF;gradientColor=none;fontColor=#A680B8;image=data:image/png,iVBORw0KGgoAAAANSUhEUgAAAk0AAAJNCAYAAAAs+kFYAAAACXBIWXMAAA7DAAAOwwHHb6hkAAAAGXRFWHRTb2Z0d2FyZQB3d3cuaW5rc2NhcGUub3Jnm+48GgAAIABJREFUeJzt3Xd8lGW+///3pEEKPXSQIkWC4AJCaFJDWYU9u0fZs+4iuwiLK0IoIQSFhI6hhCK6gms5yvrbc5D9bhFdSSKhioDACgpIb4IUkV5Sf3/sxJNVwAmZyXXPNa/nf7bMe3hcTt7zua/7ul2aogIBAADgjoJMBwAAAPAHlCYAAAAPUJoAAAA8QGkCAADwAKUJAADAA5QmAAAAD1CaAAAAPEBpAgAA8AClCQAAwAOUJgAAAA9QmgAAADxAaQIAAPAApQkAAMADlCYAAAAPUJoAAAA8QGkCAADwAKUJAADAA5QmAAAAD1CaAAAAPEBpAgAA8AClCQAAwAOUJgAAAA9QmgAAADxAaQIAAPAApQkAAMADlCYAAAAPUJoAAAA8QGkCAADwAKUJAADAA5QmAAAAD1CaAAAAPEBpAgAA8AClCQAAwAOUJgAAAA9QmgAAADxAaQIAAPAApQkAAMADlCYAAAAPUJoAAAA8QGkCAADwAKUJAADAA5QmAAAAD1CaAAAAPEBpAgAA8AClCQAAwAOUJgAAAA9QmgAAADxAaQIAAPAApQkAAMADlCYAAAAPUJoAAAA8QGkCAADwAKUJAADAA5QmAAAAD1CaAAAAPEBpAgAA8AClCQAAwAOUJgAAAA9QmgAAADxAaQIAAPAApQkAAMADlCYAAAAPUJoAAAA8QGkCAADwAKUJAADAA5QmAAAAD1CaAAAAPEBpAlAqXHLpkcaP6K+/+KvCQ8J98hrxsfF6tNmjcsnlk58PILBRmgD43MONH9a2p7Zp5S9X6j+a/od+VONHPnmdbvW7acXPV2jT0E3qWq+rT14DQOCiNAHwmY51O2rd4HV675fvqVWNVt/+/fur3e+T16sZVVOSFFs7Vmt+s0Yrf7nSZ68FIPBQmgB4XbPoZlo+YLk2DN6gh+556Hv/vEZUDZ+8bmRY5L/99SONH9Gnv/tUywcsV4OKDXzymgACB6UJgNfcU+EevfnTN/XZ8M80IGaAXK5b7y2qHlXdJ69fNqTs9/5ekCtIA2IGaPczuzWn1xxVLFvRJ68NwH6UJgAlVqlsJaXGpWrviL0a9MAgBbnu/NHiq0lTRGjEbf9Z2ZCySuyYqIPxB5XUKUllgsv4JAMAe1GaANy10KBQDWszTHtH7FVSpySP74qrHumbSZMnr185vLJS41K1a/iuf03DuNMOgIcoTQCKzSWXBsQM0J4Re7S031JVi6xWrP/eV5fnwkM9P8qgceXGWj5guTYN3aTO93T2SR4AdqE0ASiWHg16aOuwrVo+YLnurXTvXf2MKuFVvJzqX8KCw4r938TWjtW636zTnx79k+pXrO/9UACsQWkC4JHCO+I+HPSh2tRsU6Kf9d273Lwl6C4/0lwul35x/y/0xYgvtKjvIjaLA7glShOAO6pdrraW9lv67R4gbygTXEbBrmCv/KxCQa6g296t56mw4DDFx8azWRzALVGaANxSVFiUkjolae+IvRrWZpjXS86d7nS7Gz90x15xsFkcwK1QmgD8m8I74g7EH1BqXKqiwqJ88jrevkTn7VIn/d9m8Y+GfKROdTt5/ecD8C+UJgDf6t+kv3Y/s1tL+y312bEAhZw8afqu9nXaa/3g9Vo+YLkaVmros9cB4GyUJgDfloK/P/53NarcqFRe09ulKTjI+5Omolwu9zELz+xhszgQoChNQABrWqXpv84qGlL6ZxVFhnr38pwvJ01FsVkcCFyUJiAAVY+srpcfefnbZ8SZ4O09TaVVmgoVbhbf+fRO/UfT/yjV1wZgBqUJCCBhwWEaFTtKX4z8Qr978HcKCQoxmsWbfLER3BNNqjTRX3/xV3005CN1qNPBSAYApYPSBASAwsee7B2xVwv7LlSFMhVMR/J6yfH1nqYf0qFOB218cqOWD1iuehXqGc0CwDcoTYDl2tdpr41D/vXLvEHFBqbjfMvbJae0L8/dSuFm8d3P7FZqXKrKlylvOhIALzL/KQPAJ5pUafLtJm8nXjby+qTJ0OW5W4kIjVBSpyTteWaPTw4GBWAGpQmwzLenWT/tvcee+IKNk6bvqlWulpb2W6qdT+/Uw40fNh0HQAk571MGwF0p3ORdeCu8tzdae5tte5ruJKZqjN775XvKeCJDLaq1MB0HwF2iNAF+rnCT955n9mhh34V+c+iit+/cc+Kk6bviGsZp+1PbS+XEdQDe5/xPGQC3FVs7Vuuf9M/HewTC5blbCQkK+fbZflO6TVHZkLKmIwHwkH98ygD4N/Uq1NNbP3tLm4Zs8tsHydq8EdwTUWFRmtx1svaN3KdBDwySSy7TkQD8AEoT4Ecqla2k1LhUfTHyCz3R8gm5XP77izZQJ03fVbd8Xb350ze1+bebS/1RNgCKxz8/ZYAAExYcpoQOCTo4yp7nnQXinqY7aVurrdb9Zp3+57H/Uf2K9U3HAXAL/v0pAwSA/k36a/czuzWv9zxVKlvJdByv8fblKH+euhVyuVz6r+b/pS9GfKFFfRc54uR2AP+H0gQ4VNtabbVu8Dr9/fG/695K95qOg1IUFhym+Nj4byeLTj8+AggUlCbAYeqWr6u3fvaWNg/drIfuech0HBhUJbyKUuNStfPpnY4+qBQIFJQmwCEKN3nvG7nP7zd5w7uaVmmq5QOWK3NQpn5U40em4wABi9IEGBYaFKphbYZp74i9SuqUxLk9uK2eDXpq27Bteutnb6lmVE3TcYCAQ2kCDIprGKcdv9uhpf2WqlpkNdNx4AeCXEF6ouUTOhB/QKlxqSoXVs50JCBgUJoAAx6s9aDW/GaNMp7IUPOqzU3HgR+KCI1QUqck7RmxR8PaDPO7wz0Bf0RpAkpRnfJ1tLTfUm0eulld63U1HQcWqF2utpb2W6otv92ibvW7mY4DWI3SBJSCqLAoTek2RftG7tOwNsP8/iBGOE/rmq2V9essppeAD/HJDfhQ0YezTu46WeEh4aYjwXLskwN8h9IE+EhcwzjteOpfv7yqR1Y3HQcB5Lt3ZNrw2B3ACShNgJe1rtlaq3+9WhlPZOj+avebjoMAVvTsr0EPDPL6o2uAQENpAryk6Ibc7vW7m44DfOueCvfozZ++qU1DN6lj3Y6m4wB+i9IElFBkaKSSOiVp74i93PoNR4utHasNgzdo+YDlalCxgek4gN+hNAF3KcgVpEEPDPr2kMGosCjTkYAf5HK5NCBmgPaO2KtFfRepfJnypiMBfoPSBNyFwk3eb/70TdWIqmE6DlBsYcFhio+N18H4gxoVO0ohQSGmIwGOR2kCiiGmaoxW/nKlMp7IUMvqLU3HAUosOiJaC/su1K6nd6lfk36m4wCORmkCPFCrXC0t7bdUO5/eqUcaP2I6DuB190Xfp3cff5cvBMAdUJqAOyh8vhebvBEoCi89v/Wzt7j0DHwHpQm4he9u8uZJ8ggkQa4gPdHyCR2IP6Ap3aZwkj3gRmkCviOuYZy2P7Vdb/70TdWMqmk6DmBMZGikJnedzDMTATf+DwDc7ou+T8sHLFfGExl6oPoDpuMAjlGnfB0t7bdUm4duVpd6XUzHAYyhNCHgRUdEa1HfRdr19C4NiBlgOg7gWA/WelBrf7NW7z7+ru6tdK/pOECpozQhYEWERii5S7IOjzqs+Nh4zqkBPNSvST/tfma35vWep4plK5qOA5QaShMCjkv/OhH58+Gfa1r3aZzkDdyFsOAwJXRI0MH4g0rqlKSw4DDTkQCfozQhoPRo0EPbntqm5QOWq37F+qbjAH6vcnhlpcalcnkbAYHShIDQLLqZ3n38XX046EO1qtHKdBzAOk2qNPn2RgoOx4StKE2wWtWIqnrp4Ze08+mdPCLCQY5fOq7tp7Z79Wce/uawfr/198rNz/Xqz0XxFB7Z8Ur/V1Q9srrpOIBXuTRFBaZDAN4WFhympx98WlO6TWGjqoNczbmqF7e8qBnrZuhK9hWfvEbTKk01vcd0LhU5wNWcq5r30TzN3jBb13Ovm44DlBilCdbp36S/FvZdqIaVGpqOArf8gny9vettJWUk6dSVU6Xymj0b9FRanzTO3HKAE5dOaPq66Xp1+6vKL8g3HQe4a5QmWKNtrbZK65Omh+55yHQUFPHh4Q81Ln2c/vnVP0v9tYNcQRrYcqBS41I53d0Btp7cqoRVCVp/bL3pKMBdoTTB79UpX0ezes7SwBYD5XK5TMeB2xdff6Hk1cl6Z/c7pqMoMjRSI9qN0KQukzhiwgFW7lupUR+M0qFvDpmOAhQLpQl+KzI0UomdEpXUKUllQ8qajgO389fPa87GOVrw8QJl52WbjvNvaperrZSuKRraeijPUTMsOy9bSz5ZopSsFF28edF0HMAjlCb4ncJLLnN6zeHuHAcp/CU4ec1kXbhxwXScO2pTs43m95nPc9Qc4OvrX2v62ul6aetL3PkIx6M0wa/ENYxTWu80zoFxGH+93NK/SX/N7zNfjSo3Mh0l4O09t1fj0sfpvf3vmY4C3BalCX6hWXQzze09V480fsR0FBRhw8be0KBQDW41WDN7zFR0RLTpOAEv81Cmxq4aq11ndpmOAnwPpQmOFh0RreQuyXqm3TMKdgWbjgO345eOa9LqSVr26TIVWPIRUjm8ssZ3Gq/R7UerTHAZ03ECWm5+rl7f8bpSslJ0+upp03GAb1Ga4EjhIeGKj43Xcw89p/JlypuOA7cr2VeUtilNqRtSdSP3huk4PtGkShPN6DGDwzEdIBDWG/wLpQmO4pJLj8U8ptm9ZqtBxQam48Ct8HDKxPTEgPnm371+d6X1SeNZhQ5w7OIxJWclWzXZhH+iNMExYmvHan6f+epYt6PpKCgi81CmEtITtPP0TtNRSl2QK0iPNntUc3vPVb0K9UzHCXibv9yssavG6qPjH5mOggBFaYJx91S4RzN6zOBwSofZc26PEtMTuZtJUkRohEa2G6mJXSaqXFg503ECWkFBgVbsWaHxGeN15MIR03EQYChNMKZS2UpK6pzExluHOXftnGasm6EXt7yovII803EcpVa5WprcdbKGtB7CjQmGXcu5psVbFmvW+lm6dPOS6TgIEJQmlLrCW7ynd5+uapHVTMeB2/Xc63ph8wv8EvJA65qtldY7Td3qdzMdJeCdvHxSU9dO1WvbX6Pkw+coTShVcQ3jtLDvQjWv2tx0FLhxuePusZ6dY/fZ3UpIT9AHBz4wHQUWozShVMRUjdG83vP040Y/Nh0FRbCxtuQKJ6czesxQ1YiqpuMEvMxDmRr9wWh9fvZz01FgIUoTfIo9IM7ELdzexx4958jJz9EbO97QpNWTdPbaWdNxYBFKE3yCu42c6Zsb32j2htla+PFC3cy7aTqOlRpXbqyZPWfqsWaPcTeoYax3eBulCV7FuTbOVPjNOzkrWWeunjEdJyC0r9Ne8/vMV4c6HUxHCXj7z+/XxA8n6p3d75iOAj9HaYLXcIKyM7HHw5zCE+7n9Jqj+hXrm44T8LKOZGnsqrH651f/NB0FforShBLjWV3OtP3Udo1LH6esI1mmowS8wsvVPEvRvMJHAiVlJOnUlVOm48DPUJpw13gqvDNxbo1z1YyqqSndpnBjhANczbmqF7e8qBnrZuhK9hXTceAnKE0otsJbrGf2mKnoiGjTceBWeELyzHUzdTn7suk4uIOYqjGa22uuHm78sOkoAe/Ly19q2tppenX7q8ovyDcdBw5HaUKx9G/SXwv6LtC9le41HQVu+QX5+vOePysxPVFHLx41HQfFENcwTgv6LND91e43HSXgfXLyEyWkJ2jd0XWmo8DBKE3wyIO1HlRa7zR1qdfFdBQUkXUkSwmrErTjqx2mo+AuhQSF6MlWT/JYIYdYuW+lRn8wWge/OWg6ChyI0oQ7qlO+jpK7JGto66EKcgWZjgO3fV/v06TVk7iF2iIVy1bUhM4TNCp2lMqGlDUdJ6Dl5Ofo5a0va/Kaybpw44LpOHAQShNuKTI0UomdEjW+03iFh4SbjgO389fPa87GORzWZ7F7KtyjGT1maGCLgRyOadj56+c1be00vbT1JeXm55qOAwegNOHfBLmCNLDlQM2Om60aUTVMx4Fb4eGUE1dP1Llr50zHQSmIrR2rtD5p6lS3k+koAe+Lr79Q8upkJrugNOH/xDWM07ze8/RA9QdMR0ER7LEIXIWHY87uNVsNKjYwHSfgZR7KVEJ6gnae3mk6CgyhNEH3Rd+nad2ncTilw3A3DwqFBYfp6Qef1rTu0zgc07DCwzET0xN1+upp03FQyihNAaxaZDVN6z5NQ1oNUUhQiOk4cDt28Zie/fBZ/WnXn1TA/54ookZUDU3rPk1PtnqSwzENu3Tzkmaun6lFHy9if2EAoTQFoMJvrVO7T1WFMhVMx4Hb1ZyrmvfRPM3eMFvXc6+bjgMHaxbdTHN7z9UjjR8xHSXgHb90XJNWT9KyT5fxJScAUJoCCPsjnKlw3D8+Y7y+uvKV6TjwI3EN45TWO00tq7c0HSXgbf5ys8Z8MEabTmwyHQU+RGkKEO1qt9P8PvO5E8dhMg9lalz6OH16+lPTUeCnCu94ndNrjqpHVjcdJ6AVFBRoxZ4VGpc+TscuHjMdBz5AabJc3fJ1NbPnTM58cZi95/YqJSuFW5jhNVFhURrXcZySOiVxOKZhhc+B5GHA9qE0WYoPUGf6+vrXmr52OoflwWf4ouQcJy6d0MTVE9nvZBFKk2UKn2M1rfs0RvUOkp2XrSWfLFFKVoou3rxoOg4CQNtabTW/z3x1vqez6SgBb+vJrRrzwRhtPL7RdBSUEKXJInEN4zS/z3y1qNbCdBS4Fe5xmJA5QYe+OWQ6DgJQ/yb9tbDvQjWs1NB0lIBW+FkwPmO8jlw4YjoO7hKlyQIxVWM0t9dcPdz4YdNRUMSWL7coIT1BG45tMB0FAY5jRpzjeu51vbD5Bc1cN1OXsy+bjoNiojT5sZpRNTWl2xQNaT2Eg+4chHNb4FRVwqsopWuKhrcdzoG2hp28fFJT107Va9tfU15Bnuk48BClyQ9FhEZoZLuReu6h53ikgoNcyb6itE1pSt2Qqhu5N0zHAW6raZWmmt5jOo9OcoBtp7Zp7KqxPC7JT1Ca/Ejh4ZRzes1R/Yr1TceBW25+rl7f8bpSslJ4FhX8Cg/pdo6V+1Zq1Aej2PvocJQmP9G1Xlel9UlTm5ptTEdBESv3rVRiRqL2nttrOgpwV4JdwRrSegh33DrAjdwbWvDxAs1aP4vznRyK0uRwjSs31syeMxmjO8yec3s0Ln2c3t//vukogFdEhkYqsVOixncar/CQcNNxAtqpK6c0Zc0Uvbr9VeUX5JuOgyIoTQ5VqWwlJXVO0uj2o1UmuIzpOHA7d+2cZqyboRe3vMjmTVipTvk6Su6SrKGthyrIFWQ6TkDbenKr4v8Rr49PfGw6CtwoTQ4TGhSqwa0Ga0aPGaoaUdV0HLgVPhZh1vpZunTzkuk4gM89WOtBpfVOU5d6XUxHCWgFBQX6464/KjE9kT2TDkBpcpC4hnFa1HeRYqrGmI4CNw6kQ6Dr36S/FvRdoHsr3Ws6SkArvDt31vpZys7LNh0nYFGaHIBvdM609uhaJaxK0LZT20xHAYwqE1xGI2NHauJDE1WxbEXTcQLa7I2zNSFzgukYAYvSZFCd8nU0q+cs/arFr9g74CD7z+9XUkaS/rL3L6ajAI4SHRGtKd2m6Kk2T3E4pgFLPlmi+H/EKyc/x3SUgEVpMiAyNFIj2o3QpC6TFBUWZToO3L658Y1mb5ithR8v1M28m6bjAI7VpEoTzegxg7t6S8mZq2f0u5W/44ucA1CaSlGQK0gDWw5UalyqakbVNB0Hbjn5OXpjxxuatHqSzl47azoO4Dd6NOihtN5p+lGNH5mOYq13dr+j4e8N17lr50xHgShNpaZng56a13seHy4Ok3koU6M/GK3Pz35uOgrgl/gy6BsXblxQUmaSXtn2iukoKILSVAq61uuqNb9ZYzoGith2apsSViVo7dG1pqMAVogKi1JSpySN7TBWEaERpuP4rYKCAi3buUzjM8ZzxIADsfu4FIQFh5mOALcvL3+pp1Y+pdg/xFKYAC+6kn1FyVnJarK4iV7Z9gonWd+FfV/vU+8/9tav//prCpNDUZoQEK7lXNPsjbPV7MVmemXbK5zmDfhI4ReTdn9oxxcTD13Luaapa6eqxcstlHko03Qc3AH3jMJq+QX5envX20rKSNKpK6dMxwECxrZT29Ttv7upf5P+mt9nvhpVbmQ6kiOt3LdSI94foaMXj5qOAg8waYK1Mg9lqvXS1hr0l0EUJsCQd/e9q+a/b66E9AR9c+Mb03EcY9/X+9T3j33V/0/9KUx+hNIE63zx9Rf6+Ts/V69lvfTp6U9NxwECXnZetuZvmq9GLzTS7I2zA/octAs3LmhC5gS1fLmlVh1cZToOionSBGucv37+2w+jd3a/YzoOgO8o/H+0xe9bBNz/o/kF+Vq2c5mavtg04IujP2NPE/xeTn6OXt76siavmawLNy6YjgPgB+w/v18/f+fn6l6/u9L6pKlVjVamI/nU6sOrNWbVGO08vdN0FJQQkyb4tZX7VqrZi8006oNRFCbAz2QdyVKbpW3083d+buW+nsJy2POtnhQmS1Ca4Je2ntyqLm90Uf8/9dfBbw6ajgPgLhWoQO/sfkcxL8VoQuYEXc6+bDpSiRXuWwrEy5C2ozTBrxy9eFSP//lxxf4hVuuPrTcdB4CXFD1L7b//+d9+eThmTn6OXtzyohovbsy+JUtRmuAXruZc1dS1U9XsxWb6n8/+RwU8/Qew0peXv9Tgvw1W2z+01Zoja0zH8VjhEScj/zGSh+tajI3gcLTCwykT0xN5rAAQQLaf2q7ub3ZXXMM4Ley7UM2rNjcd6Za2ndqmcenj/Krg4e4xaYJjZR7KVKulrTToL4MoTECAyjyUqVZLWumplU/pzNUzpuN868SlE98+LobCFDgoTXCcXWd2qc8f+6jXsl7ccQJAOfk5emXbK7rvxfu04OMFys7LNpbl4s2LevbDZ9V4cWPHPpi4b6O+mtRlkukYVqI0wTHOXTun0R+MVuulrZV+MN10HAAO882NbzR21Vg1XtxYy3YuU0FB6e1tzM3P1SvbXlHTxU2VuiFVN3JvlNpre6pZdDO9+/i7+sev/qH7q91vOo6V2NME47LzsrXkkyVKzkrWpZuXTMcB4HDHLh7ToL8M0u+3/l5pvdPUsW5Hn75e5qFMjVk1Rp+d+cynr3O3oiOildwlWc+0e0bBrmBJkksuw6nsRGmCMQUFBVqxZ4WSMpJ0+MJh03EA+JmPT3yszq931mMxj2lOrzmqX7G+V3++0zd5R4RGaGS7kXruoedUvkz5f/tnLhelyRcoTTBi85eblbAqQRuPbzQdBYAfKzwc87397922QBTXiUsnNH3ddL22/TXlFeR5Kan3BLmC9GizRzW391zVq1Dvlv8OkybfYE8TStWxi8f067/+Wh1e7UBhAuA1hYdj3vvCvXph8wt3VXYKz4NrsriJXtn2iiMLU88GPbVt2DYtH7D8toVJYtLkK0yaUCou3Lig1A2pWrR5kSM3UAKww7lr5zTqg1Fa8skSzes9Tw83fvgH/5vc/Fy9vuN1pWSlOPZ4k6ZVmmp6j+kaEDPAo3+fSZNvUJrgUzn5OXpjxxtKzkp21BkrAOy259wePfL/PaK4hnFa0GfBbe8myzyUqbGrxmrXmV2lnNAzVcKrKKVrioa3Ha6QIM9/ZTNp8g1KE3zG6XecALBf4SG5T7Z6UtO7T1e1yGqS/nXi+Lj0cco6kmU44a2Fh4QrPjZezz70rCqUqVDs/55Jk29QmuB1O77aoYRVCY79MAIQWArPWFr++XIldUrS7rO79fautx15MGWQK0i/avErzew5U3XL1y3Rz4H3UZrgNScvn9TUtVMde8cJgMB24cYFPfvhs6Zj3FaHOh2U1idNHep0KPHP4vKcb1CaUGLXcq5p8ZbFmrlupi5nXzYdBwD8SpMqTTSjxwyPN3l7gstzvkFpwl0rPJwyMT1RRy8eNR0HAPxK5fDKGt9pvMa0H6Ow4DCv/mwmTb5BacJdyTqSpYRVCdrx1Q7TUQDAr4QFh+npB5/WlG5TVLFsRZ+8BpMm36A0oVj2fb1Pk1ZP0ju73zEdBQD8iksuPRbzmFLjUtWwUkPfvhaTJp+gNMFjRy4c0f2/v185+TmmowCAX+l8T2el9U5Tu9rtSuX1mDT5BqUJHruZd5PCBADFcE+FezSjxwwNbDGwVKc/TJp8g9IEAICXVSpbSUmdkzS6/WiVCS5T6q/PpMk3KE0AAHhJaFCoBrcarBk9ZqhqRFVjOZg0+QalCQAAL+jfpL8W9F2geyvdazoKJ4L7CKUJAIASaFurrdL6pOmhex4yHeVbXJ7zDUoTAAB3oW75uprZc2apb/L2hNPy2ILSBABAMVQsW1ETOk/QqNhRKhtS1nScW2LS5BuUJgAAPFC4yXt69+mqFlnNdJw7YtLkG5QmAAB+QFzDOC3su1DNqzY3HcUjTJp8g9IEAMBttKnZRml90tS1XlfTUYqFSZNvUJoAAPiOOuXrKLlLsoa2HuqXt+8zafINShMAAEX0b9Jfywcsd+wmb0/4Y9HzB/ypAgBQRKPKjfy6MMF3KE0AABRhw5TGhvfgRPypAgBQhA2bqG14D05EaQIAoAgbpjRsBPcN/18ZAAB4kQ2Fg0mTb1CaAAAogkkTbsf/VwYAAF5kRWli0uQT/r8yAADwIhsKB5Mm36A0AQBQBJMm3I7/rwwAALzIhimNDe/BiShNAAAUYcOUxoZpmRPxpwoAQBE2FA4bip8T+f/KAADAi6woTVye8wn/XxkAAHiRDYWDSZNvUJoAACiCSRNux/9XBgAAXmTDlMaG9+BElCYAAIpg0oTb8f+VAQCAF1lRmpg0+USI6QAA4E9ccun+avfrRzV+pLoV6qpO+Trj9DPEAAAgAElEQVSKjoj+3r837N1hunDjgoGEKCkbpjQ2FD8nojQBwA+oHF5Z/9nsPxXXME7d63dXtchqP/jfxP8jvhSSwRdsKBw2FD8nojQBKLYeDXroD/3/YOz1B/6/gdp0YpNPXyM8JFw/afoT/bLFL9W3UV+FBYf59PXgHDZc2rLhPTgRpQlAsUWERqhhpYbGXj88NNxnP7tBxQZ66sGn9NvWv1Xl8Mo+ex04F5Mm3A6lCQAkPXTPQxrTYYx+0vQnCnYFm44Dg2woHEyafIPSBCCgdazbUdO6T1PPBj1NR4FDMGnC7VCaAAQkyhJux4YpjQ3vwYkoTQACSq1ytZQal6qBLQbyiwW3xKQJt0NpAhAQQoNCNbztcE3rPk3ly5Q3HQcOZkVp4guBT1CaAFjvRzV+pD/+5x/VvGpz01HgB2yY0thQ/JyIP1UAfsfTX2pBriCN7zRem4dupjDBYzYUDhuKnxMxaQLgdzw5aLJS2Upa8fMV6tGgRykkgk1suLRlw3twIkoTAL8TGhx6x39eq1wtvf+r9/VA9QdKKRFswqQJt0NpAuB3IkIjbvvPYqrGaNXAVapTvk4pJoJNrChNTJp8gtIEwO/UKlfrln//vuj7lDkoUzWjapZyItjEitLEpMkn/H9lAAg4dcvX/d7fu7/a/VrzmzUUJpSYDYWDSZNvUJoA+J3uDbr/21/3athL6wevV/XI6oYSwSZMmnA7/r8yAAScltVa6tFmj6pu+bpa1HeR3v/V+6pYtqLpWLCEDVMaG96DE7GnCYDfcblcWvHzFaZjwFJMmnA7/r8yAADwIhtKkw3vwYn4UwUAoAgbpjRcnvMNShMAAEXYMKWxofg5kf+vDAAAvMiGKY0N78GJKE0AABTBpAm34/8rAwAAL7KhcDBp8g1KEwAARTBpwu34/8oAAMCLrChNTJp8wv9XBgAAXmRD4WDS5BuUJgAAirBh0mTDe3AiHqMCAN9xPfe6PjvzmQ6cP6CD5w/qwPkDOn31tK7nXNeV7Cu6ePOi8gvy7/gzzl49W0pp4W02TGlsmJY5EaUJQMC7nntdGQcztO7oOn10/CNtO7VN2XnZpmPBEBumNDYUPyeiNAEISNdzr2vlvpVasXuF3tv3nq7mXDUdCQ5hw5TGhvfgRJQmAAHl5OWT+sP2P2jx5sX6+vrXpuPAgZg04XYoTQACwu6zu5WSlaK/7v2r8gryTMeBg9lQOGx4D05EaQJgtZOXT2rq2ql6fcfrys3PNR0HfsCKSROX53yC0gTASvkF+Vq8ZbEmfjiR/UooFhtKk/SvaVOBCkzHsAqlCYB1jlw4oif/9qSyjmSZjgI/ZE1pcrlUUEBp8iZKEwCr/L89/0+//uuvdSX7iuko8FO2XNoKcgX94HliKB476jQASHph8wsa8M4AChNKxJZJE7yPSRMAv5eTn6Ohfx+qtz59y3QUWMCWO88of95HaQLg127m3dTjKx7XX/b+xXQUWIKygduhNAHwW1eyr+hn//szZR7KNB0FFrGlNNkyMXMSShMAv3T++nk9/PbD2vzlZtNRYBlbNoLb8j6chNIEwO8cu3hMvZf11hdff2E6CizEpAm3Y8fKABBQnlr5FIUJPmNL2bCl/DkJf6IA/E52XrbpCLCYLWWDy3PeZ8fKAADAS6wpTZZMzJzEjpUBAICX2DKhseV9OAmlCQCAIpg04XbsWBkAAHiJLWWDSZP3UZoAACiCSRNux46VAQCAl1hTmpg0eZ0dKwMAAC+xpWwwafI+ShMAAEUwacLt2LEyAADwElsmNLaUPyfhTxQAgCJsKRu2lD8nsWNlAADgJdaUJi7PeZ0dKwMAAC+xpWwwafI+ShMAAEUwacLt2LEyAADwElsmNLa8DyehNAEAUASTJtyOHSsDAAAvsaY0MWnyOjtWBgAAXmLLhMaW9+EklCYAAIqwZUJjy8TMSfgTBQCgCFvKhi3lz0nsWBkAAHiJLaUJ3sfKAACgCFtKE3uavM+OlQEAgJdQNnA7lCYAAIqwZtLEniavs2NlAADgJZQN3A6lCQCAIqyZNHGZ0evsWBkAAHiJNaWJiZnX2bEyAADwAooG7oTSBACAm02XtGx6L05BaQIAwM2WS3PwDVYHAABuNpUmLjV6nz2rAwCAErKpaHB5zvsoTQAAuNk0aYL3sToAAHCzaTpj09TMKShNAAC4MWnCnbA6AABws6k02TQ1cwp7VgcAACVk0yUtm96LU1CaAABws2nSBO9jdQAA4GbTJS2b3otTUJoAAHBj0oQ7YXUAAOBmU2liT5P32bM6AAAoIZuKBpfnvI/SBACAm02TJngfqwMAADebpjM2Tc2cgtIEAIAbkybcCasDAAA3m0qTTVMzp7BndQAAUEI2XdKy6b04BaUJAAA3myZN8D5WBwAAbjZd0rLpvTgFpQkAADcmTbgTVgcAAG427QOy6b04BaUJAAA3myZNXJ7zPntWBwAAJWRTaYL3sToAAHCzaTrD5TnvozQBAODGpAl3wuoAAMDNpumMTVMzp6A0AQDgZtOkyaYC6BT2rA4AAErIptIE72N1AADgZtMlLZvei1NQmgAAcGPShDthdQAA4GbTPiCb3otTUJoAAHCzadLE5Tnvs2d1AABQQjaVJngfqwMAADebpjNcnvM+ShMAAG5MmnAnrA4AANxsms7YNDVzCkoTAABuTJpwJ6wOAADcbCpNNk3NnMKe1QEAQAnZdEnLpvfiFJQmAADcbJo0wftYHQAAuNl0Scum9+IUlCYAANyYNOFOWB0AALjZtA+IAuh9/IkCAOBmU9HIL8g3HcE69qwOAABKiNKEO7FndQAAUEI2bZ4uUIHpCNahNAEA4MakCXdiz+oAAKCEKE24E3tWBwAAJWTT3XMFBVye87YQ0wEA+J8D5w9o9sbZxl7/6IWjxl4bdrNpTxOTJu+jNAEotr3n9mpC5gTTMQCv4/Ic7sSe1QEAQAnZVJq4e8777FkdAACUkE2liUmT99mzOgAAKCGbNoJTmryP0gQAgJtNkybunvM+e1YHAAAlxN1zuBNKEwAAbjZNmihN3mfP6gAAoIRsKk3cPed99qwOAABKiI3guBNKEwAAbjZNmihN3mfP6gAAoIRs2gjO3XPeR2kCAMCNSRPuxJ7VAQBACVGacCf2rA4AAErIpo3g3D3nfZQmAADcmDThTuxZHQAAlJBNG8EpTd5HaQIAwM2mSRN3z3mfPasDAIASsqk0MWnyPntWBwAAJWTTRnBKk/dRmgAAcLNp0sTdc95nz+oAAKCE2AiOO6E0wWMVylRQzaiapmMAgM9ER0SbjuA1bAT3PkoTPFYjqob2x+9XalyqosKiTMcBAK9pWqWplg9YrvGdxpuO4jVMmryP0oRiiQyNVFKnJO0dsVfD2gxTsCvYdCQAuGtVwqtoUd9F+mz4ZxoQM8B0HK+iNHkfpQl3pXa52lrab6k2/3azutbrajoOABRLWHCYRsWO0sFRBxUfG6+QoBDTkbyO0uR9lCaUSJuabbTmN2uU8USGYqrGmI4DAD+of5P+2vPMHi3su1AVylQwHcdnuHvO+yhN8Iq4hnHa8dQOze8zX5XDK5uOAwDf06FOB20askl/f/zvalipoek4PsekyfsoTfCasOAwjWk/RgfiDyipU5LKBJcxHQkAVLd8Xb31s7e08cmNal+nvek4pSYnL8d0BOtQmuB1lcpWUmpcqnYN32XdxkoA/iMqLEpTuk3RvpH79ETLJ6w67fuH5BXkKa8gz3QM61Ca4DONKzfW8gHLtWnIJnWo08F0HAABIiQoRMPaDNOB+AOa3HWyyoaUNR2p1N3MvWk6gpUoTfC59nXaa+OTG7V8wHLVr1jfdBwAFotrGKftT23X0n5LVT2yuuk4xmTnZZuOYCVKE0qFy+XSgJgB+nz450qNS1X5MuVNRwJgkWbRzfTeL99TxhMZalGthek4xlGafIPShFIVERqhpE5JOhh/UKNiR3E4JoASiY6I1qK+i7Rr+C493Phh03Ec42Yel+d8gdIEI6IjorWw70I+6ADclaJfwOJj4/kC9h1MmnyD0gSjGKkDKA6XuNTvCUqTb1Ca4Ahs3gTwQ9rXaa+NQ7ipxBPcPecblCY4RtHbhKd0mxKQtwkD+D6OLyk+Jk2+QWmC40SFRWly18na/cxu/bz5z+VS4BxIB+D/VA6vrIV9F+rzZz7noNxiYiO4b1Ca4FgNKjbQ/z72v9r8283qfE9n03EAlJLQoFANazNMe0fs1ajYUQoNCjUdye9cyb5iOoKVKE1wvLa12mr94PV69/F3A+Ihm0Ag69+kv3Y/s1tL+y1V1YiqpuP4rcs3L5uOYCVKE/xGvyb9tOeZPVrUd5EqlKlgOg4AL2pTs43W/GaN/v7439WociPTcfze5WxKky9QmuBXwoLDFB8br4Oj/nU4ZkhQiOlIAEqgdrnaWtpvqbb8dou61utqOo41mDT5BqUJfqlKeBUt7LtQnw3/jA2igB+KDI1UUqck7R2xV8PaDFOQi19H3sSkyTdYpfBrTas01fIBy5U5KFMPVH/AdBwAPyDIFaRBDwzS/vj9So1LVVRYlOlIVmLS5BuUJlihZ4Oe2vbUNr3S/xXViKphOg6AW+jVsJf++bt/6s2fvqmaUTVNx7EakybfoDTBGsGuYP229W91IP4A32ABBymcCKc/kc7jkkrJ6SunTUewEqUJ1mGvBOAMVcKraFHfRew9NOD4peOmI1iJ3yawFnflAGaEBYdpVOwoHRx1UPGx8dzlasCxi8dMR7ASpQnWKzz/5d3H3+X8F8DH+jfprz3P7NHCvgs5T82Qm3k3dfbqWdMxrERpQsDo16SfPh/+udJ6p6lS2Uqm4wBW6Vi3ozYN2aS/P/53Tu437ItzX6hABaZjWInSVAqOXzquLy9/aToG9K/LBmM7jNX++P2Kj43nmVZACRU+I3LD4A1qX6e96TiQ9Lcv/mY6grWC1U1TTIew3blr57TkkyW6fPOyYuvEqkxwGdORAl5EaIR+3OjH+kWLX+irK19p99ndpiMBfiUqLErPPfSc/vTon/RAjQfkcrlMRwp413Ova9b6WZq5fqbyCvJMx7GSS1OY4ZWm2uVqa0aPGRr0wCDu6nKQNUfWKCE9QdtPbTcdBXC0kKAQPdXmKU3pNkXREdGm48Bt9eHVemrlUzpw/oDpKFajNBnSumZrpfVOU7f63UxHgVtBQYFW7FmhxPREHb141HQcwHHiGsZpfp/5nLXkICcvn9SzHz6rZZ8uYx9TKaA0GRbXME4L+y5U86rNTUeB27Wca1q8ZbFmrZ+lSzcvmY4DGBdTNUZze83Vw40fNh0Fbjn5OXp568uatHoSp3+XIkqTA4QGhWpwq8Ga0WOGqkZUNR0Hbicvn9TUtVP12vbX2B+AgFQzqqamdJuiIa2HKNgVbDoO3DIPZSr+H/Hac26P6SgBh9LkIJXKVlJS5ySNbj+azeIOsvvsbiVmJOr9/e+bjgKUiojQCI1sN1LPPfScypcpbzoO3A6cP6Axq8Zo5b6VpqMELEqTAzWu3Fgze87ksQMOk3koU2NWjdFnZz4zHQXwCZdceizmMc3tPVf1KtQzHQduV7KvKG1Tmp5f/7xu5t00HSegUZocrH2d9prfZ7461OlgOgrccvNz9fqO15WclawzV8+YjgN4DZ83zpNfkK+3d72txPREnb7KA3idgNLkcHzzc6bCb36pG1J1I/eG6TjAXWOy7UxZR7I05oMx+vT0p6ajoAhKk58o3GMwsctElQsrZzoO3I5fOq5Jqydxuy/8DnsonenA+QN67sPn9M7ud0xHwS1QmvxMrXK1NLnrZO5mcZgtX25RQnqCNhzbYDoKcEfcretM7FvyD5QmPxVTNUbzes/Tjxv92HQUuBUejpmUkaTDFw6bjgN8T/8m/TW/z3w1qtzIdBS4sW/Jv1Ca/ByHYzpPdl62lnyyRClZKbp486LpOIDa1GyjtD5p6lqvq+koKGL14dUau2os+5b8CKXJAoXj9undp6taZDXTceD29fWvNX3tdL209SXl5ueajoMAVLtcbaV0TdHQ1kN51qWD7D+/XxM/nMi+JT9EabJIpbKVlNw1Wc+0fUZhwWGm48Dt87Ofa1z6OH1w4APTURAgyoWV04TOEzSmwxiFh4SbjgO3CzcuaMa6GVq8ZbGy87JNx8FdoDRZ6J4K92hGjxka2GKgXC6X6ThwyzyUqXHp4xjFw2eCXEEa2HKgZsfNVo2oGqbjwI19S/agNFmMw+qcp/DDc3zGeH115SvTcWCRng16Kq1Pmh6o/oDpKChi9eHVGrNqjHae3mk6CryA0mS5wsMx5/Sao/oV65uOA7erOVc176N5mr1htq7nXjcdB37svuj7NK37NA6ndBj2LdmJ0hQgeACnM524dELT103Xq9tfVX5Bvuk48CNVwqsopWuKhrcdrpCgENNx4HbhxgWlbkjVwo8Xct6ShShNAaZWuVqa3n26fvOj33A3jYNwOCY8VTakrEa3H61nOz/LFyAHyc3P1SvbXtHkNZN17to503HgI5SmAMXhmM60ct9Kjf5gtA5+c9B0FDhM4aX22b1mq0HFBqbjoIjMQ5kau2qsdp3ZZToKfIzSFODiGsZpQZ8Fur/a/aajwC0nP0dv7HhDE1dP5BsrJEntarfT/D7z1aluJ9NRUMTus7uVmJGo9/e/bzoKSgmlCRyO6VDnr5/XnI1z2BsRwOqWr6uZPWdyfIjDnLx8UlPXTtVr219TXkGe6TgoRZQmfKti2Yqa0HkCTz13mH1f79Ok1ZO4CyeARIVFaVzHcUrqlKSyIWVNx4HbtZxrWrxlsWatn6VLNy+ZjgMDKE34Hg7HdKasI1lKWJWgHV/tMB0FPhISFKInWz3J1NdhCh/GnZieqKMXj5qOA4MoTbit2Nqxmt9nvjrW7Wg6Ctz48LYX+wudiS8rKIrShDvicExnKrxMMHPdTF3Ovmw6DkogpmqM5vaaq4cbP2w6CorgsjhuhdIEj4SHhCs+Np7DMR2GDan+q1a5WprcdbKGtB6iYFew6ThwK7wBY8HHC3ioLr6H0oRiiY6IVnKXZD3T7hk+6B1k99ndGpc+Tv848A/TUfADCk/nn9hlosqFlTMdB245+Tl6eevLmrxmsi7cuGA6DhyK0oS7wiUFZ8o8lKkxq8boszOfmY6C7yi81D2391zVq1DPdBwUwaGy8BSlCSXC5lXnKTwcMzkrWWeunjEdB5K61++utD5palWjlekoKGLrya1KWJWg9cfWm44CP0FpQolxm7QzFT44dNHmRbqRe8N0nIDUpEoTzegxQwNiBpiOgiKOXzquSasnadmny1TAr0AUA6UJXlN4OOao2FEcyOcgxy4eU3JWMr8gSlHl8Moa32k8B8U6zJXsK0rblKbUDal8kcBdoTTB6zgc05k2f7lZCasStPH4RtNRrFX4SKKZPWYqOiLadBy45ebn6vUdryslK0Wnr542HQd+jNIEn+FwTOcpPBwzKSNJhy8cNh3HKv2b9NeCvgt0b6V7TUdBEZmHMjV21VjtOrPLdBRYgNIEn+JwTGfKzsvWkk+WKDkrmWdoldCDtR5UWu80danXxXQUFLH77G4lZiTq/f3vm44Ci1CaUCo4HNOZzl07pxnrZuilrS8pNz/XdBy/Uqd8HSV3SdbQ1kMV5AoyHQduHPgKX6I0oVRxOKYz7T23V4kZiVq5b6XpKI4XGRqpxE6JGt9pvMJDwk3HgRuPFkJpoDTBiGbRzTSv9zwOx3SYzEOZSkhP0M7TO01HcZwgV5AGthyo2XGzVSOqhuk4cOMh1ihNlCYYxeGYzpNfkK+3d72t8Rnj9dWVr0zHcYS4hnFK652mltVbmo6CIrKOZClhVYJ2fLXDdBQECEoTjONwTGe6mnNV8z6ap9kbZut67nXTcYy4L/o+ze01V/2a9DMdBUXs+3qfJq2epHd2v2M6CgIMpQmOERUWpXEdxympUxKHYzrIiUsnNH3ddL26/VXlF+SbjlMqqoRXUUrXFA1vO1whQSGm48Dt/PXzmrNxjhZ8vEDZedmm4yAAUZrgOByO6UyfnPxEY1eNtfo5XWHBYXr6wac1tftUVShTwXQcuOXk5+jlrS9r8prJunDjguk4CGCUJjhWbO1YpfVJU6e6nUxHQRE2PhG+8Dyx2b1mq0HFBqbjoAgb1xv8F6UJjsYvM2ey6Zs/5dyZtp7cqoRVCVZPNuF/KE3wCxyO6Uz+vMeEy8DOdPzScU1aPYkHTMORKE3wKxyO6Uz+dDdTxbIVNaHzBI2KHcUNBw5yJfuK0jalKXVDqm7k3jAdB7glShP8UrPoZprbe64eafyI6SgoYvXh1UpIT9A/v/qn6SjfExoUqsGtBnO0hcPk5ufq9R2vKyUrRaevnjYdB7gjShP8WlzDOM3vM18tqrUwHQVu+QX5+vOeP2tc+jgdu3jMdBxJHKLqVJmHMjV21VjtOrPLdBTAI5Qm+L3CwzGndZ+m6pHVTceBmxOeBRZTNUbzes/Tjxv92Mjr49Z2n92txIxEvb//fdNRgGKhNMEaHI7pTF9e/lLT1k4r1afO1ypXS5O7TtaQ1kPY++YgJy+f1NS1U0t1LQDeRGmCdeqWr6uZPWdyV5TDbD+1XQnpCVpzZI3PXiMiNEIj243UxC4TVS6snM9eB8XjhKkj4A2UJlirXe12mt9nPufvOEzmoUyN/mC0Pj/7udd+ZpArSI82e1Rze89VvQr1vPZzUTIFBQVasWeFEtMTdfTiUdNxgBKjNMFqHI7pTDn5OXpjxxuatHqSzl47W6Kf1aNBD83rPU+tarTyUjp4Q9aRLCWsStCOr3aYjgJ4DaUJAaHwmWLTuk/jcEwH+ebGN5q9YbYWfrxQN/NuFuu/bVKliWb0mKEBMQN8lA53w5/O7AKKi9KEgMLhmM507OIxJWcle3QKdOXwyhrfabzGtB+jsOCwUkqIH+LPp8MDnqI0ISC1qNZCaX3S1KthL9NRUMS6o+uUkJ6gT05+8r1/Via4jEbGjtTEhyaqYtmKBtLhVm7m3dQLm1/QrPWz/P45hMAPoTQhoMU1jFNa7zS1rN7SdBS4FW4eHp8xXkcuHJEk9W/SXwv6LtC9le41Gw7/ZuW+lRr9wWgd/Oag6ShAqaA0IeCFBIVoSKshmtp9KodjOsj13Ot6actL6li3ozrW7Wg6DorYeHyjEtMTtenEJtNRgFJFaQLcIkMjNaLdCE3qMklRYVGm4wCOs//8fk38cKJW7F7xg3vPABtRmoDvqF2utlK6pnCaNOBWuMn7bu5yBGxCaQJuo03NNprXe5661e9mOgpgRHZetpZ8skST10xmkzcgShPwg+Iaxmlh34VqXrW56ShAqSjcjJ+UkaTDFw6bjgM4BqUJ8EBoUKgGtxqs6d2nq1pkNdNxAJ9ZfXi1EjMStf3UdtNRAMehNAHFEBUWpXEdxympU5LKhpQ1HQfwmr3n9iolK4WTvIE7oDQBd6Fu+bqa2XOmBrYYKJfLZToOcNfOXTunGetm6KWtLyk3P9d0HMDRKE1ACbSt1VZpfdL00D0PmY4CFMu1nGtavGWxZq2fpUs3L5mOA/gFShPgBZxYDX+RX5Cvt3e9raSMJJ26csp0HMCvUJoALyncLD6zx0xFR0SbjgN8T+ahTCWkJ2jn6Z2mowB+idIEeFnl8Moa32m8RrcfrTLBZUzHAbT91HYlZiRq9eHVpqMAfo3SBPhI48qNNbPnTD3W7DE2i8OIE5dOaPq66Xpt+2vKK8gzHQfwe5QmwMfa12mvtN5pPHQWpeZK9hWlbUrT7A2zdT33uuk4gDUoTUApcMmlx2Ie0+xes9WgYgPTcWCpnPwcvbHjDSVnJevM1TOm4wDWoTQBpSgsOExPP/i0pnafqgplKpiOA4us3LdSY1aN0YHzB0xHAaxFaQIMqBJeRSldUzS87XCFBIWYjgM/tuXLLUrMSNS6o+tMRwGsR2kCDGpapamm95iuATEDTEeBnzl68ahSslK07NNlKuBjHCgVlCbAAXo06KF5veepVY1WpqPA4c5fP685G+do4ccLdTPvpuk4QEChNAEOEeQK0qPNHtXc3nNVr0I903HgMNl52VryyRJNXjNZF25cMB0HCEiUJsBhIkIjNLLdSD330HMqX6a86TgwrKCgQCv2rFBSRpIOXzhsOg4Q0ChNgEPVKldLk7tO1pDWQxTsCjYdBwZ8dPwjjUsfp00nNpmOAkCUJsDxmkU309zec/VI40dMR0Ep2Xtur1KyUvTO7ndMRwFQBKUJ8BM/bvRjze09V82rNjcdBT5y6sopTVkzhceeAA5FaQL8CJvF7XQt55oWb1msWetn6dLNS6bjALgNShPghwo3iz/70LOcLO7H8gvy9faut5WUkaRTV06ZjgPgB1CaAD9WJbyKEjslanT70SoTXMZ0HBRD5qFMjUsfp09Pf2o6CgAPUZoAC9SrUE/Te0zXwBYD5XK5TMfBHXx+9nONzxiv9/e/bzoKgGKiNAEWaVurreb0mqNu9buZjoLvOHHphKavm84mb8CPUZoAC8U1jFNa7zS1rN7SdJSAdyX7itI2pWn2htm6nnvddBwAJUBpAizFnXZm5eTn6I0dbyglK0Wnr542HQeAF1CaAMtxp13pyzyUqdEfjNbnZz83HQWAF1GagADBnXa+t/XkVo1LH6d1R9eZjgLAByhNQIDhTjvvO3bxmJKzkrXs02Uq4CMVsBalCQhQ3GlXcuevn9ecjXO08OOFupl303QcAD5GaQICHHfaFV92XraWfLJEk9dM1oUbF0zHAVBKKE0AFOQK0sCWA/V8z+dVq1wt03Ecq6CgQCv2rNCEzAk69M0h03EAlDJKE4Bvcafd7W06sUnj0sfpo+MfmY4CwBBKE4DvqRZZTSldUzSszTCFBoWajmPUZ2c+04TMCXpv/3umowAwjNIE4LYC+U47HnsC4L7WdE8AAAPjSURBVLsoTQB+UCDdaffNjW80e8NsvbD5BR57AuDfUJoAeOwnTX+i53s+r5iqMaajeN2N3BtavGWxnl//vL658Y3pOAAciNIEoFgKn2n3fNzzurfSvabjlFh+Qb7+vOfPSspI0uELh03HAeBglCYAdyU0KFSDWw3WlG5TVDOqpuk4dyXzUKbGpY/Tp6c/NR0FgB+gNAEokcjQSI1oN0ITOk9QxbIVTcfxyJYvt2hC5gRlHckyHQWAH6E0AfCKyuGVNb7TeMXHxis8JNx0nFva9/U+TVo9SSt2r+AZcQCKjdIEwKuqRlRVQscEjW4/WmWCy5iOI0k6d+2c5n00Tws+XqDsvGzTcQD4KUoTAJ9oVLmRpnWfpv9q/l8KcgUZyXA5+7Lmbpyr+Zvm62rOVSMZANiD0gTAp2KqxmhC5wn6ZYtfKtgVXCqvmZOfozd2vKGUrBSdvnq6VF4TgP0oTQBKRfOqzZXUOUm/avErn02eCh+o+9yHz+nA+QM+eQ0AgYvSBKBUtarRSlO6TVH/Jv29+miWzEOZmpA5QdtObfPazwSAoihNAIxoUa2Fkrsm67Fmj5WoPG3+crMmfjhRHx7+0IvpAOD7KE0AjGpbq62SOifpZ/f9rFiX7Xae3qlJqyfp3X3v+jAdAPwfShMAR2hYqaFGxY7S0NZDFREacdt/78iFI3p+w/N6bftryivIK8WEAAIdpQmAo1SLrKYR7Ubo6QefVnRE9Ld/f++5vZqzcY6W7Vym3PxcgwkBBCpKEwBHCgsO0yONH1HX+l219sha/e2Lvym/IN90LAABjNIEAADgATPH9AIAAPgZShMAAIAHKE0AAAAeoDQBAAB4gNIEAADgAUoTAACAByhNAAAAHqA0AQAAeIDSBAAA4AFKEwAAgAcoTQAAAB6gNAEAAHiA0gQAAOABShMAAIAHKE0AAAAeoDQBAAB4gNIEAADgAUoTAACAByhNAAAAHqA0AQAAeIDSBAAA4AFKEwAAgAcoTQAAAB6gNAEAAHiA0gQAAOABShMAAIAHKE0AAAAeoDQBAAB4gNIEAADgAUoTAACAByhNAAAAHqA0AQAAeIDSBAAA4AFKEwAAgAcoTQAAAB6gNAEAAHiA0gQAAOABShMAAIAHKE0AAAAeoDQBAAB4gNIEAADgAUoTAACAByhNAAAAHqA0AQAAeIDSBAAA4AFKEwAAgAcoTQAAAB6gNAEAAHiA0gQAAOABShMAAIAHKE0AAAAeoDQBAAB4gNIEAADgAUoTAACAByhNAAAAHqA0AQAAeIDSBAAA4AFKEwAAgAcoTQAAAB6gNAEAAHiA0gQAAOCB/x8x+iO+L8npMQAAAABJRU5ErkJggg==;" parent="tWzSnTYjIMBNes1oTI9M-40" vertex="1">
          <mxGeometry x="5" width="50" height="50" as="geometry" />
        </mxCell>
        <mxCell id="tWzSnTYjIMBNes1oTI9M-27" value="&lt;font color=&quot;#000000&quot;&gt;Nexus AWS&lt;br&gt;Registry&lt;br&gt;&lt;/font&gt;" style="text;html=1;resizable=0;autosize=1;align=center;verticalAlign=middle;points=[];fillColor=none;strokeColor=none;rounded=0;fontFamily=Roboto;fontColor=#A680B8;" parent="tWzSnTYjIMBNes1oTI9M-40" vertex="1">
          <mxGeometry x="-10" y="50" width="80" height="30" as="geometry" />
        </mxCell>
        <mxCell id="tWzSnTYjIMBNes1oTI9M-42" value="" style="outlineConnect=0;fontColor=#232F3E;gradientColor=none;gradientDirection=north;fillColor=#3334B9;strokeColor=#ffffff;dashed=0;verticalLabelPosition=bottom;verticalAlign=top;align=center;html=1;fontSize=12;fontStyle=0;aspect=fixed;shape=mxgraph.aws4.resourceIcon;resIcon=mxgraph.aws4.codebuild;" parent="1" vertex="1">
          <mxGeometry x="230" y="480" width="50" height="50" as="geometry" />
        </mxCell>
        <mxCell id="tWzSnTYjIMBNes1oTI9M-43" value="" style="outlineConnect=0;fontColor=#232F3E;gradientColor=none;gradientDirection=north;fillColor=#3334B9;strokeColor=#ffffff;dashed=0;verticalLabelPosition=bottom;verticalAlign=top;align=center;html=1;fontSize=12;fontStyle=0;aspect=fixed;shape=mxgraph.aws4.resourceIcon;resIcon=mxgraph.aws4.codepipeline;" parent="1" vertex="1">
          <mxGeometry x="190" y="312" width="20" height="20" as="geometry" />
        </mxCell>
        <mxCell id="tWzSnTYjIMBNes1oTI9M-44" value="" style="shape=image;imageAspect=0;aspect=fixed;verticalLabelPosition=bottom;verticalAlign=top;strokeColor=#000066;fillColor=#3333FF;gradientColor=none;fontFamily=Roboto;fontSize=12;fontColor=#000099;image=data:image/png,iVBORw0KGgoAAAANSUhEUgAAAV8AAAFfCAYAAADptc+BAAAACXBIWXMAAA7DAAAOwwHHb6hkAAAAGXRFWHRTb2Z0d2FyZQB3d3cuaW5rc2NhcGUub3Jnm+48GgAAIABJREFUeJzsnXd4U2X7x79JmqRN996lLYUudktL2VOWiIDgxIkoooAKuBEX4vsKKCIgigtx4UAEBBEF2aNQoBS6994ju0l+f/QHL6M55yQ5Sdpyf66Lywvy9JzHNPme57mf+/7egoHxuw0gCIIgbIrQ3hMgCIK4FSHxJQiCsAMkvgRBEHaAxJcgCMIOkPgSBEHYARJfgiAIO0DiSxAEYQdIfAmCIOwAiS9BEIQdIPElCIKwAyS+BEEQdoDElyAIwg6Q+BIEQdgBEl+CIAg7QOJLEARhB0h8CYIg7ACJL0EQhB0g8SUIgrADJL4EQRB2gMSXIAjCDpD4EgRB2AESX4IgCDtA4ksQBGEHSHwJgiDsAIkvQRCEHSDxJQiCsAMkvgRBEHaAxJcgCMIOkPgSBEHYARJfgiAIO0DiSxAEYQdIfAmCIOwAiS9BEIQdIPElCIKwAyS+BEEQdoDElyAIwg6Q+BIEQdgBEl+CIAg7QOJLEARhB0h8CYIg7ACJL0EQhB0g8SUIgrADJL4EQRB2gMSXIAjCDpD4EgRB2AESX4IgCDtA4ksQBGEHSHwJgiDsAIkvQRCEHSDxJQiCsAMkvgRBEHaAxJcgCMIOkPgSBEHYARJfgiAIO+Bg7wkQhCV4ekrg7SOFf6AjvLyl8PSSwMXFAY5OIjg5ieDiIoaTTASZzAEGgwFaraHd66hUOjQ3adHUpEVToxbNTVo0NmpRWaFEVYUK1VVqaLV6G//fEV0ZEl+iQyMQAAGBTggLd0Z4hDPCI13QLdwZwaEyePtIIZHYZvNmMAC1NWpUV6lQWqxAbk4LCvJakJvTgpIiOVpb2xd1gjCGYGD8bvrUEB2G4BAZ4nu7I66XO+J6eSA6zg1OTiJ7T4uR1lYDigvlyMluxoW0Blw4V4/MS00kyAQjJL6EXYmMckFisjcGJnmj7wBPeHhK7D0lXlCrdbiU3oTzafU4c7oOqSfroFbr7D0togNB4kvYFFc3MYYO98WQEX5ITPKCl7fU3lOyCSqVDqdP1OLwwSoc+bcalRUqe0+JsDMkvoTV8fN3xMgx/hgx2h/9E73g4CCw95TsTnZmM/b/WY7dO8pQUa6093QIO0DiS1gFFxcHDB/tj7HjAzB4mC+EQhLc9tDrDbhwrgG7d5Ri7+5yKOSt9p4SYSNIfAneEAiAhCRvTJ8ZiuGj/CGRUhq5KSiVOuzfW4HvtuQjO7PZ3tMhrAyJL2ExLi4OmDw1GDPu6YbwCGd7T6dLcOJYDb75Ih8njtbYeyqElSDxJczG00uC+x6MwF33hMHZpfOmjMtbWlFXp0FjvQYKhQ5KRStaWw3Q6Q0QCAChQACRgwAymQNkMhG6RTrD1VVsk7llZzZj65f52Lu7DDodfVW7EiS+hMn4+Tti9qORmDojBI6OHTsHF2iLq5aXKZGb3YK8nGYUFylQVqpEeakCVZUqs/Jxff0cEdndBRH//ye+tzuierpaLbZdkNeCj1Zn4tCBKqtcn7A9JL4EZ0JCZXhoTiQm3REMsbjjxnOVSh3OnKrD+bR6nE9rwKX0BigU1s+xlclEiO/jgT79PNG7rwf6DfCEzJnfHUHqqTqsff8yLl1s5PW6hO0h8SVYcXMX4/GneuCue8IgEnXMrIWSYgWO/FuNwwercPZ0HTQa+/swiMVC9EvwxJBhvhg6wg9h4fzEww0GYO+uMqxbk4mqSsoX7qyQ+BJGEYkEmDYzFE883RPuHvzEOPNzW3DpYiNShvrC08uyaracrGbs2lGKwweqUFgg52V+1iQ0TIYRo/0xaWowonq4Wny9lpZWfPCfS/j91xIY6Fvc6SDxJdolYaAXFr8ch+48iERhgRx/7SnH/r0V6NPfAwsWx0ImMy9WrFTqsG9PObb/VIz0cw0Wz81eRMe6YdIdwZgwOcjih9DxIzVYsTydijU6GSS+xHXInB2w4PloTJsZBoEFEQaNRo+//6zALz8WIe1MPXz9pHj1zd5IGepr1vVys5ux7bsi7N1dBnlL1ylEcHAQYNhIP9z/cAT69PM0+zryllZ8+P5l/PZzMa2COwkkvsRVEpK8seyt3ggMdjL7GiXFCvz6YxF+316KhnoNAGDgIG+8/Z9+Zq3wcrKasXljDv75qxJ6fdf+qPbp54kHHonA8FF+ZmdNHNhfieUvn6dKuU4AiS8BV1cx7nsoHI/M7W72l/5yRhO++iz3OpEUCICH53THE8/0MPm6OVnN+GxDDv75q+KWW8mFdnPGo3O7Y+KUILN+H/m5LViy8AyKOkEc/FaGxPcWJr63O+6+Pxyjbwsw25T87Ok6fPFpLo4fub4Sy9VNjDfe7YOhI/xMul51lRofvn8J+/4ov+VE90Z6xrhhwfMxSErxNvlnW1pa8fqL5ygvuAND4nsLMnyUHx6e0x29+nqYfY3szGZ8tPryTaILAEHBTvhgQyLCI104X0+nM+DHbwux6ePsLhXT5YPBw3zxzHPRJh9+6vUGbN6Yg8825NzyD7KOCInvLURyig+eXNAT8b3dzb5GVaUK6z/Iwp5dZe3GYHv18cCqdQkmxXfPp9XjvbcukpkMAyKRALMfjcSceVEm71J+/7UEK5anU3lyB4PE9xYgrpc7Fi6OQf9EL7OvodcbsO27ImxYm2X0MGfkGH+8+V5fziXHWq0eG9dmYetXBV3+MI0vIqNc8Po7fRAbb9oD9OD+SryyNA0atf2LT4g2SHy7MG7uYsxfFI2pM0Is8hzIzmzGiuUXcPGC8ZLWO6aH4OXlvTjfp7hQjleXnqMyWTMQiQR48NFIzHkqyqQy79MnavHc/FSoVNTOqCNA4ttFGTHGHy8ti7eoTY9Wq8cn67Kx9ct8xi3rjLvDsPTVeM55wTu3l+L9FRdt4rfQlenV1wPvrRkAXz/uv+MTR2vw/NOpHaL8+laHxLeLIXN2wNJX4zBpSrBF1ykvVeKl588iI515ZXrv7HAsWhrLSXhbWw14f8VF/PJjsUVzI/6Hj68U767uj779uRdoHD5YhRcWnYVWSwJsT0TBfvcvt/ckCH7oEe2Kjz9NQmKy6alJVygrVeKbL/Lx7psXUVykYBx730MReJaj8DY3abH4mVTs31th9tyIm1EodNizswyeXlLOceCwcGeEhDnjwF/0u7AnndcBm7iOSVOC8fLyXma37jlxrAY/fFOIo4eqOR1+3TEtBAsXx3C6dnGhHM/NT+0U5jedEa1Wj5VvpqMgrwXPvsDtYTh+UiDKShXY8GGW9SdItAuJbydHIADmzOuBOfOizPJiOPJvNTZ/kmOSSc3IMf54+Y1enO53OaMRC544fbXUmLAe339TALVahxdei+d08PnI491RWqzAjl9KbDA74kZIfDsxQqEAr73VG5Onmh7fvXSxEavevYTzafUm/VxCUptPA5cv97mz9Xh23mm0UNGEzfh1WzHUaj2Wvd2b0+/oxWW9UJgvx7mzpn0OCMuhA7dOilAowBvv9sH4yUEm/VxNtRrrP8zE7h3tF0kwER7pgs+/TYELh35tp0/U4vmnU6FUUkaDPRg3IRBvrOwLBwd2Aa6uUmP2zCOoq1XbYGbEFTpuLxjCKEKhAG+s7Guy8O74pQQzp/yLndtLTRZeVzcxVn00gLPwLnrqNAmvHdm3pxyvLU3j9Hv29ZPinff7ddguJV0VynbohCxaGos77wrlPL62Ro3Xlp7DN1/kQ2tGfqdIJMB/PxqAuF7sXhCXMxqx4MnTUJHw2p383BY01GswZDi7uVFQsBMEAiD1ZJ0NZkYAtPLtdMy4Owz3zg7nPP7A/krcO+2wRe5WCxbHIDnFh3VcYYEcC584TV6yHYifvi/CV5/lcRr78OPd0auP+WZLhGmQ+HYirrT24YJeb8DHH2TihUVnLMo0GD0ugJPY19WqsWDuKdRTVkOHY8PaLBw+yP7wFYkEWL6iD2dvDsIySHw7Ca5uYryxsi+nuJxKpcOSBWfw1Wd5FlkJBgY54ZU3erGO02j0WLrwLMrLqIdYR0SvN2DZC+c45VmHhTtj/rPRNpgVQeLbSXhxWTz8/B1ZxzU3afHM46csNtEWiQR4872+cHVj71q88s10k1PWCNvS0tKKF589C7WaPRY/894wk13TCNMh8e0EjBkfgHETAlnHyVta8czcU7zkbM6d34OTX8APWwuxc3upxfcjrE9udjPWvHeJdZxQKMCLy7gVahDmQ+LbwZFIhXjmOfYyXpVKh0XzTrMa4XAhJs4dDz4WyTruckYjPlp12eL7Ebbjlx+LcWB/Jeu42Hh33HVPmA1mdOtC4tvBueeBcASxdBM2GIC3X7vAy4pXJBLglTd6scaWFQodXlt6jqwJOyErlqdzOhh94pkecHNnDzsR5kHi24FxdRXj4ce7s477enMe/vyjnJd7PvhYJKJj3VjHrXo3g4xyOikN9RpO4QdXVzEemsP++SPMg8S3AzNleghrRdnljEZ8so4fZ6qYODc89kQU67iTx2qxczuZsXRm9uwsw4mjNzc/vZG77+uGgEDmnRdhHuTt0EERCgX4addwhITKjI7RavV4cNZR5GazN54Ui4UICnZCWLgzAoOd4O/vCF8/RwQEOsEvwBG+flJOLWlUKh3uvfMwSkuYvX6Jjk94hDO2/jKU9fe+c3sp3nz1vI1mdetArmYdlJShPozCCwA//1B0k/A6OAgQ0d0F0bFuiOrphvAI5zbBDXLipXb/k3XZJLxdhIJ8Ob7/phCzH4lgHDdxShA+25CNslLK4+YTEt8OygQW0xyFvBU/bi1ETJw7IqNcEBvvjpg4N8TEuUEqtU6FUtblJny/pcAq1ybsw+aNObh9ajA8vSRGx4hEAjz4WCRWvnnRhjPr+lDYoQMiFAqw998xcPcwftLc2mqASCQwy0DdHAwG4NH7jjJ2MCbsj0AAhHVzRnScGwKDnODr6wgvbwk0Wj3UKj1qqtWoLFciK7MZ2ZlN0OkMuO+hCCxawpzOqNHoMW3CAVRXke0kX9DKtwMS39udUXgBcPJp5ZO/91WQ8HZQ3D3EGDkmAIOH+WLgIG9Otp9AW/w+9WQd/v2nEs1NWsZqRolEiHsfjMDa9ymvmy9IfDsYEokQk6eG2Hsa16HTGbBhbcfp9SWRChHXyx09o93g5+8IX/+21Z0AbQ8kvd6AlmYt6mo1KC9XorRYgazLTV0uZtm3vyfufTAcw0b6cTosvRFHRxGGDPfFkOG+nMZPnR6CTeuyoVKRXSgfkPh2EASCNrvIOfOi4OUttfd0ruPihQYU2Tmn19dPitsmBWHUWH/ExrubJTb19RrcMfYAJ3+Djkxyig8emxeFfgO4t4vnA1c3MW6bFEg933iCxLcD4OklwfIVfZAylNsKxNb07uuJyCgX5OW02Pzevfp44LEno5Ay1Mdir4HaanWnF143dzHeXdOfc2iBb2be243ElyeoyMLOhIbJsHlrit2Et7FBi9ZW5jNXgQCY/Qi71wOfhIbJsGZ9Ij7/NgVDhvvyYvKSdqbzO681NWqxbnWm3e4fHeuGXn3JcJ0PaOVrR8IjXbDxiySrhxnq6zUoKVKguEiO4sK2/7b9XYHmJi0m3h6E5e/2ZcycGDHGHw6vC1iF2lIEAuDu+8Px1KKevJt6p53pGi1ytv9UjIlTgji5zlmDyXcEI/1cg13u3ZUg8bUT3j5SfLghkVfhVSp1yM1uRnZmM3KympGd1YTcrBY0N2sZf+6PnWWI6umK2Y8aX926uDigTz9PnDltPQGTSkV4Y2UfjB4XYJXrp6V2/pUv0HaguGJ5Or75aYhZsW9LGTs+EKtXXoJWS6ZKlkDiawfEYiFWf5yAQBa3Miaam7XISG9ExoVGZF5qQnZmE0pLlCZ3Jb7CZxtyMHVGKKOLVfJgH6uJr6ubGB9uTLRaD7HyUiWqKlVWubY9yM9twdeb8/DYk8xeHAqFDvV1ajQ3tUIqFcI/wBEyZ8u+9u4eYgwe7ouDHKwpCeOQ+NqBR5/oblKnAI1aj6zMJmRcaERGemNb9kGh3KIWQTeiVOpw6ngtxow3vuoMj3Th74bX4OQkwpr1CVZt3ni2i4QcruWLTbkYOyEQ3cKdr/5bfZ0GB/ZX4vDBKmSkN6K25uaiCF8/KRKSvDFuQqDZ8fSJtweR+FoIia+NiYlz52QTCbQlwX/3dQG2fpWPpkbm0AEflJcz58H6+vIfmxYIgLf+0w99+pkevywulKOoUIH6Og3q69RwEAvh7OIAFxcH+Ac4ITLKBU5ObXHjc13gsO1GNBo93l2ejg1fJOP0iVps/Sofx4/UsO5+qqvU2LOzDHt2liG0mzOeeyGWc67vFQYP84Wjo4hyfi2AxNfGPPdiLCeDm8ICOZY8k4qC/I7jmesk498z4p4HwjF8lB/n8cVFCny/pQBH/q1iLZoQCgUIDpWhZ7Rrl+0xd+Z0HWZN+ddsb+XiQjmefeo0Jk0JxkvL4zn7gjg6ipCU4o1//7GsV+CtDImvDUlK8eaUGJ+X04InHzlhUct3c3Bn6VrAd6ZDaJiMc6dchbwVq9+7hF2/lUKn4zYPvd6A4kI5igs7zgPMGvBhar/791KUliiwal0C5+4Vw0f7k/haAOX52pA583qwjqmv12DRvNM2F14ACA1zZnxdIW/l9X7PvhALiYT9I1iQL8dDdx/Fjl9KOAsvYTrnztZj3qMnOP+eh43woyabFkDiayPCI104rXr/+3YGKlhir9ZAKBQgKtqVcQxbTNgUUob6YugI9nBDSbEC8x87QS2LbER2ZjNeXXqOU9aMp5cEcb2oxby5kPjaCC6t348fqcFfe/npxWYqsfFurCWrxYX8mag/PIe9Yk6haOvITDaGtuXwwSps/Cib09iByd5Wnk3XhcTXRtw2iVl8DQbY1TksIYn9S8RXVVN8b3f0T/RiHff+iot2N/S5Vfl6cx7Sz7P/vgcOIvE1FxJfGxAW7nxdLmZ7nDlVi0sX7eeXO2iwD+Prra0G3jIGps0KYx2TeqoOO7eX8nI/wnT0egPeXnYBGg1zFVuffp5W65zS1SHxtQFcigd27bCf0Lh7iFlXopcvNkKptDynUyIVspYPGwzg1NqcsC55OS34dVsx4xiJVIg+/cloxxxIfG0Am/hqtXr8vc9+1ULDR/mz5h7zVVY8aLAPa2z55LEaZF1u4uV+hGWcPMbeXt5eBj+dHRJfG8AmvhnpjbyncZnCyDH+rGMO/8tPPmfSIObwBgD89jP5xXYUzp2tZy1jj+9NK19zIPG1MgIBENmd2RPhzCn7+Q44uzggOYVZEOvrNTh/lp/DtgFJzOENjUaPo4erebkXYTlNjVrk5zKb6Mf3drdZI9euBImvlfHwkEAiZX6bM+x40DZ0hB/r/A4dqDLbLe1aJBIhwiOYH0SnjtfadRdA3AybD7KHpwTBITIbzabrQOJrZXz9HVnH2LP8dext7N65//7NTzy6W4Qza9dlLjFGgn+YKtXOp7HveuJ6U7GFqZD4Whk/FvHV6w0oLbZPV12ZswMGDWUOOSjkrTh+lB9BjIxirqADgMxLdNBmSwSCNnvIbTuHwz+g/c9qFoffSY+ebnxPrctD4mtlvH2YbRgb6jV2a+o4ZJgva47moQNV0Kj56VgglQhRUa5k7KyRndXMy73MITzCGYtfimP9nXUVesa44ZOvBuGNlX0RGibDwsUx7Y7Lz2th/QxERlnH67krQ65mVkYsZt5my1vsF9/kYuW4/88K3u6349cS7Pj1f5kMzi4OkMkc4OziAGdnEWTODmhusr5v8bUIhQIMH+WHu+7phoGDvCEQtHUJ+WQdt/LazoibuxjzFvTEtJmh14Ubxk4IxM8/FiP1ZO1143U6A/JymxETZzy00L0H+66GuB4SXyvj4MC8uZDL7bPqFQoFGDSE2UBbIW/FscPWi8HKW1ohb2lFtR1cCV1dxZg8NRj3zg6/qZ3T9LvD8OWneZ2+zfyNCIUCTLg9CAuXxMDTU9LumCUvx+GBuw7fZB+aeamJUXwDAh3h5CTipRDnVoHCDlZGxHLApFTYZ+Xbb4An3D2YfVuPHKrucgIEAE8t7Ik/Do7Gcy/GtttHz9NTggm3B9lhZtZl3MRALF/Rx6jwAm3hgxl331z+nZ3JHA4SCgWIYEmpJK6HxNfKsJ3u85DBZRZcQg5d1Si7oV7D6iN87+zwLpe7uu+PclYRBYC583vcJNBFHDJyQsIo3cwUKOxgZfQsZ1VSlhxba8EWctDpDDh6qGsWO/z2Swnmzu/B2MU3MsoFSSk+OMFTpse13HlX6NUGqkIh4OJy/Q6kvFyJte9f5v2+er0Bq9+7hA2fJzGOc3UT46lFPfHO6+lX/42LnWhwMImvKZD4WpkWhpN9oK0Xlq3x8JSwbhHPnq6z+eGXrZC3tGLHryW454FwxnH3zg63ivjGxLlj2sxQo69XV6msIr4AkHqyFv/8VYlRY5lLyqdMC8H2n4px8UJbAVB5mRJarR5isfHFQlDIzSEcwjgUdrAyTSwCZo+Vb98Bnqxb6iNddNV7hR+3FrJW7aUM9UV4JP9xzPo6ZnN4D0+JVUMea9+/zJo6JhQK8OwLsVfnodcbUM7SsDSIVr4mQeJrZdhWj84sDl/WoH8Cu5H5jelGXY2SYgUOHWCOaQsEYF0dm0N9HXN/PrFYCB9f6+Ual5Yo8O3X+azj+vTzxJjb/tcEoLiIOfRAK1/TIPG1Mk2NzNkMHp4Sxq2cNeifwGwBKG9pRdZl+xU72IrvvylkHTN5ahA8vYxnB5gDm4gB3KoBLeHLT3NRU83enunp56KvHk6WlzGvfP38HbvcIaU1IfG1Mk2NzKscoVAAXz/bVVRJpEL0jGEuBT13tp4XI52OTurJWtbTf6lUxPvqNy+H/cFm7aIFhUKHjz/IZB0XFOyEWfd1AwDUVKsYx4rFQri6cWs7T5D4Wp2aajWrkPkH2m67Fh7hwmqcfjbVfhaXtmbrV+zb7xl3h0Em4+9gtKpSxVrZGBtnfa+EP34vu3qgxsQjT3SHh6eE00rZy/vWKM3mAxJfK6PR6FFZzrxiMGZoYg241ODnZjP7t3Yl/txdhsoK5t+Pm7sYd95lPDvBVAwGIJdl9ZuQ5G31Lbxeb8DqlRmsZumurmLMeTIKtTXs4uvtzW+IpitD4msD2GJ8tvRCDWqnoutGSor5axHf0WltNeBbDqvfex+MYC2YMYWzp5mbkfr4Sq2SaXEjF841YO+uMtZx0+8OgzNDXvQVaOXLHRJfG1BSzFwdFNXTdqYkPr7sFpdlpbeO+ALAbz8Xo6mROSvFP8ARt03ir+T4NIdskoHJtmnLvm5NJqsng4ODAPc/HMF6LU9a+XKGxNcGsK18e0bbTnzZ7BJrqtW8WUh2FhQKHbZ9x5758OCjkYym46Zw/mw9tFrm93nYSPYScD6oqlTh6815rOOuVOUx4epKB25cIfG1ASVsYYdQGZycjB/ouLqJERwiQ1RPV8TEucHXT2q2CLAVdbDloHZVftxaCJWKefUXGeWCsePZO39wQanUsR52DRzkbbNMmG++yGdNJeOCPfLWOyv0TtmArEzmTgBCoQDde7gi/XwDRCIBEpO8kZjsjehYN0THubXrQqXV6lFWqkTqyTocPliFY4erodOxp4exiW9XdDHjQn29Br//WoKZ93ZjHPf4/B7Y/2cFp/eajZPHatBvgPGca6FQgPGTgvDNl+wxaUtRq3VYtzoT77zfz6LrcIkLE23QytcGlJcqUV/PvKK8/c4QvPpWb+w5OAYffToQD82JxKAhPkbt/8RiIbqFO2P6rFCs/jgBv/81Cg88HMHqFcFm9CMS3bofia8350GjYX6DuoU7Y+IUfmK/f+9jN6qfdEew2dcXiQQYMtwXbu7cQgF/7S1HbrZlxTW08uUOvVM2IuNCI4YMN+4kNn2WZalMPr5SLFgcg7sfCMfKN9Nx5N/2vRmYWvgAt/aXp7JChV+3FePu+5lXv3Pm9cDeXeWsMVs28nJaUJAvR3iEs9ExUT1d0TPGDVmXTe9t17ufB9asT4TBABTktSA7qxnVlSpUVqiu2+FcCWvFxrtZXNxBK1/u0DtlIzLSGxjFly/8AxyxZn0ivv+mAB/+9/JN22M2rwn/AEcIhYJbosKtPb78NBdTZ4Qw7iCCgp0wZVoIfvmxyOL7/bGjFPMW9mQcc99D4Vj+0nmTrz14aNvnTSAAIrq72MTsnMSXO7fuHtPGZKSzVxLxyT0PhGPVuoSbGmSWlTAfqjg5iRAQaLuij45GbY0a275lz3x4aA4/mQ87fythjR/fNjEIAWZUQQ4eZv2H/Y1I7ORP3Rmhd8pGZHAo4+SbwcN88d+1A64rJ87LZa9eS7RRfqk1CY9wxpZtQzDz3m4mpz9t+SKftfw3MMgJcb3YU6/YqK5SGw0RXcHBQYBHn+hu0nV9/aToEW37du5sHUKI/0HvlI1QKnWs8VZrMGiID559Ifbq37NZMi8AYOgI2+SXWpO7HwhHdKwblrwShz3/jsbaTwZixt1hnKrGGuo1+JHD6pcv85vvthSwjpkyLcSkireUIb68lyc31GuQfq6BcQyJL3coQGMDPL0kWP1xot0S0Gfd1w252c34dVsxykqVKC6UI7Sb8UOe5ME+kEpFnTbtzM1dfF2WgFgsxKAhPhg0xAdAm4jkZDUjL7cFTY1atLS0oqVZC0dHEXx8pQgKkSHl/8cy4eLKz9cn9WQtLl1sZCxiEIkEWLg4Bs8+dZrTNQfzfL6gVuvw4rNnce/scMZxYhJfzpD4WpnAYCes35xkln+DSqXDiSM1yMpsQmmJErXVaji7OMDHT4qBSd4YNNTnppiuMZ59IRanjteipFiBI4eqcQ+D+Do5iZCU4s1qNt5RufOuUMaiFQ9PCRKTvS0Or7CVJJvC15vz8O7q/oxjhgz3xZjxAdi/lzlFzcFBgKQU9ocHVwryWvDq0nPIutyEu1nsNe3Vk7AzQuJrRTxixoU/AAAgAElEQVQ8JVj7yUCThLe11YD9e8vx194KHD9SY3T1+ePWQrh7iDFvQTTuvCuE9fDH0VGEF16LxzNzT+HQgSpWj9oRo/07pfg6OAhYCyX4IvOS6elfxvjnr0pczmhCDIuV5PMvxuHk0VrGEFZ4JLttKBfyc1vww9YC/P5r6dW0OgOLBRpf5de3AiS+VkIiFWL1ugR0Cze+wrwWjUaPndtL8PXmPJSx9Mq6QmODFivfTMep4zV4492+rCfNyYN9kJzig9Mna9HYoIW7h/EwyLCRfp0y5Wz0uACbWHQW5Ms5xc+5otcb8PEHmfho00DGcT6+Urz8Ri+89NxZo2NyspoxetA+9IxxQ59+HujdzxMhoTL4+TvC20fabixY3tKK4iIFSorkSD/fgJPHapHTTsEFm/0kwR0SXyvx1MJo9OrrwTpOrzfg123F+PyTHFRXsfultsf+Pyug1erxnw8HsK487n6gG04cq8HBfypxx7QQo+M8vSSI7+2OCywHLB2Ne1hiknyx/oNM3oXoxNEanDhWg2SWkMGY2wIwfVYYY56xTmfApYuNuHSxET9s/d/hoVgshLeP9LqVsULRyt3Tg8SXNyhAYwWSUrxZDyaAtljanAeO4723LpotvFf4958qbN6YyzouZagvfP2kOHKQPaSQmNS5Us4io1wQ35v9gWcp6z/MwoH9lVa59n/fyeDkKvfcC7Ho1cf0/1etVo+KciVKSxRX/5hipqRneeIIqIkbZ0h8eUYsFuKl13uxpvmcT6vHnNnHkX6ev5XlF5tykJfDnMcrEgkwelwAUk/VsYYUBgxk73LckcjLacHMKf9iy+d5qKu17GHWHgqFDivfvIgvP2V/yJlLUYEcn2/KYR0nkQqxal0CJ3N8PqGwA3+Q+PLMtFmhrAds+bktWDD3FK+n5UDbYd2a9y6xjuvV1xNNjVrWgove/Tx57d5gC4oK5PhodSYmjfoH8x45gR+/LeQcQzeGSqXDbz8X495ph3gpKWZjy+f57cZbb8TTS4IPNiTCw4j5kjVgE1+2Aznif1DMl0ccHUV47MkoxjFKpQ5LF56BQmGdHNoTx2qQfr6BcUt6pTIrJ7MZUQyFAjKZCDFx7ryuzm2FXm9A6qk6pJ6qw/srMhAQ6IQBA70QE+eG7lGuCI90gbePpN0YuULeioJ8OS5nNOHUiRqcOFKDFpaKNz7RavV4dUkavvx+MKtLXXikC9ZvTsL8x06yOufZAkvNhm4lSHx5ZNzEQKMWkFfY8nkeCguMtxVydBRhyHBf9O7rgW4RbQIhl+tQmN+C0yfavHvZTL9/2FrIKL7BIU6QSkXIzmzChNuZ7RGjY906pfjeSEW5Ert3lGL3jtKr/yYUCuDpJbkqcDqdAU2NGqs9GE0hL6cFq1dewsvLe7GOjerpig1fJOOpx05aJdxyLY6OzJtlNktO4n+Q+PLItJnMtpB1tWp880X7xth+/o549InumDgluN0CgYSBXpg+KwzNzVp8+Wkevvs6H62t7W/xDv1TCZVKZ3TVJBQK8PDjkayn6gDQM8b2/gC2Qq83cOrIay+2/1SMhIFeGD+Z3T84MsoFn3yVjKfnnGTtxmwJTk7MkqEl8eUMxXx5olu4M+vp82+/lNy0ahUKBZgzLwq/7B6B6bPCGCuzgLYeWc88F42tPw812gZeodCxFkg89mQUp1S4riy+nYG3ll3AubPMnY6v0C3cGZu+HsRYOm4pMhnz51OrpZgvV0h8eSJlKHst/Y6fS677u6OjCBu/TMbc+T1MtuKL6O6CT78ehP6J7Wck7Puj3KTrGaN7DxfeDVoI7mjUeixZcIa1CesVAoOcsOmrZMZYviU4sohvZ/UDsQckvjwxiMWIpSBfjtKS679AKpXOohJVVzcxPtiQ2G5JaupJ9lQyLjg6iuDlbZsmjkT7NNRr8OxTp1FTzS1E4u0jxcYvk83KA2ZDJmMOO7Q02+5gsrND4ssTvfsxf9BPHa9p99/XvHcJx4+0/xoXnJxEWLUuET6+1wtkc7MWudns3r1cCLRxLilxM0UFcsx75ATnYhw3dzHWfToQffsbb9BpDmxhsUae0ye7MiS+PODn78hqF5mZ0f4KV6834JXFaSjIN54BwYavnxSvvNH7pvDA+TRusUImDAbAw8N2eaSEcQoL5HjykROoquR2oCZzdsDq9Qm8xu2dWMIOTY32T3frLJD48gCX3lhM6WXNzVo8P/+0RUUXQ4b7YuKU6zvdWtKJNjuzGR9/kIk7JxzAYQ6lyIRtKC6UY96jJzkLsKurGB9tGogwjgZPTAiFAlYLU74Lh7oyJL484OfP7qJ1Y7z3RoqLFHjxubNG08e4MH9R9HWn0RXlpqUcFRXI8dmGHMy64xDun3EYX32Wh3ILq8MI/ikulGPug8c5V+55eknw0aaBFru9OTs7sB6+kvhyh8SXB1w4tFtvbmI/iDh9ohY//2B++aqvnxTTZ4Vd/XtlBfuXs6JciS1f5GP2zCO46/Z/senjbBTk8RMrJqxHWakSTzx0HEUMO6prCQxywtpPBkJmQXdhbx/28BPFfLlD4ssDziziq9MZOKfgRFrY3vue2eFX/RiMJdvX1qjx47eFeHz2cUy97QA+WnWZV2NwwjZUVqjwxMMnOIeXIrq7YNnbN58NcMXbhz3rpbmJxJcrJL48wPZh5pryJXN2QL8Ey06n/fwdcduktoqopkYtlMo20W9u0mLHLyWYP+ckJo/+B++vyMC5s/XkUtXJqa1RY96jJzkZ8QBtZvPX7o5MwduXXXwp7MAdKi/mAZWKuaRSLBZy6goxINELYrHlz8Pps0Kvehhs+7YQaWfqceJoDZmedFEa6jVY+MRpfPbNIAQGsacFPvN8DI4erjY5nu/jyx4zprADd2jlywNcQgqOLPmRAFj7dwHAvj3slWu9+3pe/RKuW5OJwwerSHi7ONVVKiyYewoNHJzNZDIRnloYbfI9uIQduNyfaIPElwcUcvbDNC4ZEVzyMb/YlMuavysQAKPGBbBei+haFBbI8dz81KuhJibGTQhAdxNLkG8s5LkRpVJH4msCJL48wCWlKziEfTvYI5r5yyBvaUVeTgu2GHFGk7e04tCBKqxeeQkHrdTmhujYpJ9vwHtvXWQdJxQKMH0WswvfjfiwrHwpLdE0KObLA1w+dKFhzgCqGcewrSxyc5qh1xtw6J8qlJcq4e0rxYVzDTh1vAanjtciI70ROh2doN3q7N5RioSBXpjC0CAVAMZOCMT7KzI4H7r6+rGIbxmJrymQ+PJAZYUSer2BsXPwle4RxpBIhKzVQ1f6s+n1BsyfcxI11WpWY3Xi1uS/72Rg4CBvBAQa33F5ekoQEirj5JgmFAoQxNIeq6yUm/Ma0QaFHXigtdWAgjzmZHc271xXN2ZvCADXGX+XFCtIeAmjqFQ6fLaevRFnUDCzoF4hINAREgmzXFjaK+9Wg8SXJzLSGxlfDw6RMa5C2NyiADpJJkzj7Bl2YyUuWTgAOHlDUMzXNEh8eSIjnbnPmUAADB/lZ/R1LulqbCsPgriCUCjAs0tjWMc1cnQh4yK+tPI1Dfo280Qah1XGiNH+Rl9rbmplPPjQaPR0mNYBiYlzw+ffpmD+omgMGuLDaQdjbRwdRVi+og+GjjD+sL9CcSG3OG1YGIeVbxnFfE2BDtx4IierGeVlSsYKo4QkLwQGObV7KqxS6VBXq4a3jxS1NWrkZDUj63ITsjKbkZPVjIK8FhLfDkh0rDt69fFArz4eeGhOJFpbDchIb0DqyTqknqrF+bMNNo3NJyZ746Vl8Zz6uGVeauLcQJRt5dvcrEVjA1W3mQKJL48c+qcKs+7vZvR1oVCAO+8KxYa1We2+/vzTqSgvU6K+jmK7nYVuEdeLkoODAH36eaJPP088Mrc7tFo9xg3dz6kQxxJ69fXAk0/3RFKKN+ef2fFLCfug/4dNfHOzyAnPVCjswCMH/2EvbJg6I8RoS/eM9EYS3k6GmztzlopCrrOa8IpEAoweF4ANXyTj860pJglvQb4cv27jZl8qc3ZAQCBzhWbWZXLFMxVa+fJI6sk6lJUqEcTQ88zLW4qZ93XDls/zbDgzwlqweTk3NPD/MA0OkWH85EBMmxlmlkG6RqPHshfSOBv3x8S6MeawA0BWJomvqZD48oheb8Cv24owfxGzacmDj0Zi+7ZiNDdTjKyzo1Qwx3NFIjPNc2/Az98Ro8cF4LZJgRZ1JdZq9XjpubO4bKSnYHvExDMXCAFtbacI0yDx5Znffy3F3Pk9GK0h3T3EWLA4Gu+8nm7DmRHWoJFlZevrJ4VEIoRGY5qrnMzZAQkDvZCU4oOkQd6c+gSy0dpqwKtL0nDogGk9+WJZxFenMyA3h8TXVEh8eaauVo0dv5Rgxt3MhtV3TA/Fn3+U49TxWhvNjLAGbNkCUqkII8f648/dxq1APTwlCA2TISbOHXG93BEb747wSGfWrb4pNNRr8PLiNJw+YfrnLZbF6rQwXw6NmixLTYXE1wp8/kkOJk8NNnqwBrQVXby5si8evueo0XY/RMcni8N2e9nbfTDx9mCUlykhEgng7OIAqUSIwGAnBIfIWNtQWcqJozV4e9kFsz5nLi4OrGlr2RTvNQsSXytQXaXGtm8LMfvRSMZx3j5SvP9RAp546DgULLFDomNy7kw9lEodY3GFRCLEkOG+NpxVG4UFcnzyUTb2/1ludruo6Dh31jZZlOlgHpRqZiU+35TLaaURHeuGNesTO0RlFGE6KpWuw3knV5Qr8fayC7hn6iH8tdd84QWAvv3ZD/fOpzGX1hPtQ+JrJeQtrVixPJ3TB79/ohc+2JDIqQU9V5ycRAgJ5eZYRVjGl5/lcm6Sai30egOOH6nBi8+exfSJB7HjlxKjFZGmxJITk5hzh9VqHaupFNE+JL5W5Njhavy+nVsVUf9EL2zaMsisvM0bcXAQYOWa/vjqh8FIHuxj8fUIZvJyWvDd1wV2uXdxoRyff5KD6RMPYsETp/D3vgrG/N3bJgXim5+GMDrsXUEiEaJ3P+aVb/q5BuoPaCYkvlZm1YoMZF7iFhOL6uGKb34aitEW9F9zcBBg+bt9kTLUF65uYny4MRH3PRRh9vUIbnz8QSZST9omc6Ugv01w759xGDMm/4uNH2VzchSbPisUb7zbF1E9XbF5awqiY5mzGHr18WA1+D9zmt1QimgfUbDf/cvtPYmuTGurAUcPVWP8pCDIZOxhBUdHEcZOCERQsAynT9ZCa0J+qEwmwnsfDMDIMf9zTxMIBBg0xAfBITIcPVxN5jwsCIUCs2Kken1bZ+ngUGdEmdiYko2WllYcO1SNH7YWYvXKS9i8MQenT9ahrpZb9ZxMJsLzL8Xh8ad6XA05ODs7YMLkIGRebkaJkU4Wt98ZgoSBXozX3rwxh6wkzUQwMH43fRttQHxvd3y8ORkyGfeDtfo6Db79Oh/bviti9QeIjXfHW+/1ZTRAuXihEUsXpqK6ipuT1a1GTJwb3lzZF28vS2ftEM3EiNH+eGphT7MKIwwGoKRIjoz0RmSkNyL9fINFvfmSUrzx8vLeRkvedToDVr55Eb/9XHzTa598mYz+icbFV6vVY0zKX9RRxUxIfG1I/0QvrFmfaJIAA0Bzkxb7/6zA4YNVOJtaj+amtrJkqVSEpBRvjJ0QiPGTAjkdpFRXqfHCojNIP08n1Nfi5S3FVz8Mhn+AI3Q6Azaty8ZXm/PMPkgTCgWI6+WOEaP90TPGFYFBTvD0kqKlRQtdqwEKRStUKj3KShQoLVGitESBslIFcrNaeCk7D490waNzu2P85CDWVDGgLTf9k3XZV1f9MmcH7Ds8hrFS89zZejw++7jFc71VIfG1Mf0TvbDm4wTInM3PbKiv00ChaIWvH3tfrRtRq3V4es4pnDtLsboriMVCrP88CX37e17375czGvHfdzJw4VzneVD16uuBBx6OwMgx/iZXyL3+4jn8sbMMADB2fCBWrOrHOH7zxjbBJsyDiixszNnTdXj8weNYsz4Rfv7mZTZ4ekng6SUx+ef0egNeXXKOhPcGXngt/ibhBYCYOHd89k0K/vi9FJs+5naoZQ/Cwp0xbkIgJtwehG4c2v20x87tpdh7TQn0iNHsXTBM9YggrodWvnbC188R/107gLWlPF/odAa8vewCdv1WapP7dRbueSAcz70YyzpOpzNg3x/l+PrzPORk2c9ERiQSIDzSBbHxbug3wAsDB3kzdk/hwo5fS7Di9fSrIRYHBwH2HhoDV1fjXsXVVWrcPuZviwo4bnVo5WsnqqtUeHz2cTzzfDTuvj+cU1zOXDRqPV5ZkoaDf3esSix7k5TijYVL2JtMAm2iN+H2IEy4PQjp5xvwx+9l+POPMpu1zhEKBdj2+zAEBsvg4MDPh8VgAD5dn43PNlzfYn7AQC9G4QWAwwerSHgthMTXjmi1eqxeeQlHDlbjxdfjERzCf0VaVaUKLz+fZtHpfVdEIADmzu9hlt/ulZ5tz78Ui4sXGnH8SDVST9Yh83IT5C3md60IDHaCVqNHTfXN2Sh6vQG+/o68CW9ToxZvLbvQbmn08FHGG71e4V8OXVsIZijs0EFwdBThwccicd9DESZnQxjj4P5KvP36BWpsaAQnJxEWvxyHKdNCeLmeXm9ASZEChQVylJUqUV6mRFOjBk2NWuj1gNTxf4ejbm5i+Pg6wj/AEf6BjoiJdYe7hxg/bC3Eqncz2r3+7n9Gw8dXavE8Tx6rxdvLLqCi/OYYtlAowM79oxjvo1TqcNvQ/VCrKcXMEkh8OxieXhLc92AE7rwrFO4ezFs/Y1RWqPDeWxdx+CAdiHBh/OQgvPhavNWtHblQXKTAjEkH233tx9+HIzzCvAM1oM17+KNVmdj9u/G4/6AhPlj7yUDG6xzcX4klC8+YPQ+iDSov7mDU12nw8QeZuH3MP3h1SRoO7K80eStbXqYk4TWBvbvKcPfUQ9i3x7jhua0IDZMZ9c9tMTP/t7pKhVXvZuDO8QcZhRcAJk0JZr3e/n0VZs2DuB77P+qJdlGrdfjzj3L8+Uc5RCIBonq2Jeo3NGjw8JzuGDzMuD9sXC93SKUi2haaQFWlCq8sTsMvPxRh8ctx6M5zibApDBnmi+8L5Tf9u9zELsjFRQp8v6UAv/1czKmNkUwmwogxzPFehbwVB/6ieC8fkPh2AnQ6AzIvNV016DkRV8MovhKJEL36uCP1VJ2tpthlSD1Vh/tnHMGQ4b54/KkoxMTZJhXwWgYP88X33xTc9O9cdkDNTVocOliF3TtKcep4rUkZCSPHBrD6Sv+9r5LKiXmCxLcTwiVzYcBAL7uKr4enBNGxboiOdcO+PeUo76AFCu2h1xtw6EAVDh+swpDhfrj/oXD0T/TitacaEwMSveDkJIJSeb3ItTTfLL4ajR4Xzzfg9Mk6nD5Ziwtp9Zxbwt/InXeFso75YyflifMFiW8nJPNSE1QqHWOPuP4JzG5UfOLn74joWDfExLmhZ4wbYuLcr/MlVqt0+GFroc3mYwqeXhIkD/bB3/sqbmoCaTC05bMePliFwCAnTLojGBNvD2I0L+IDiVSIxGTvmyrI0s7UobXVgNoaFQoL5MjLbkFBfovZYnst0bFu6Dfg5iq/a6mqVCH1JO2m+ILEtxPS2mpA+rkGJCYb7zLQq68HJFKh1bvK+vhK8ftfoxiLRKZMC+kw4isUCtCrjwcGD/NBylBfRMe6QSgUQK83MHYYLi9TYvPGHGzemINu4c4YNMQHg4b4on+Cp0U+Hcbo29/zJvHdub0UO7dbZ+U5675urGP27Cyze8eOrgSJbyfl6KFqRvF1dBQhMckbRw9VW3UeNdVqZF5qQgxDe/GeMW6I6+Vut3Yzjo4ijJsYiJQhPkge7ANXt5tT+KZOD2UU32spLJCjsECOH7YWQigUIKybDDHx7ugR7YbgECcEBTvBP8CJ1X9DrdahslyF6ioVKitVKCqQI+tyM7IuN6Gq0nYdrT08JRg/KYhxjMHQVoZM8AeJbyfl8MEqLFjMXBo7dISf1cUXAPb9UcYovgAw4+4wZKRfsPpcjPH8S3GMxSuJyd4YMtwXR/417f3S6w0oyJejIF+OPf/vCHYtrq5iuLo5QCAQQKnUXW25Y9Ab0GJBNRyfTJ0RAomUOev05PEaFBXcnIFBmA/l+XZSCvLlKCluvwPBFYaOsE278j27ylnNvidOCUZomH0aeqpUOta8Z4EAeHl5b7i5m1fYYozmZi3KStv8eutq1Whu0qK5SdthhFciFeLu+8NZx/30XZH1J3OLQeLbiWFbpQUEOqFHtPXzVaurVKy5nw4OAsyd38PqczHGT9+zx5x9/aT4YENiu2GJrsqdM0JZS5bLy5RkH2kFSHw7MVyq2IaOYPdl5YP28lJv5LZJQaw9waxFWmo9zp5mP6nv1ccDG79I5qWLdEdHLBZi9qORrON++r6IDtqsAIlvJ+bs6TooFMwJ78NG2kZ8z52tZ80rFgiAF1/vZXL3Db5Yu+oyJxHpEe2K77YPwx3TQ6xq9WlvJk8NZn3ItLS04pcfKeRgDUh8OzEajZ51OxjXyx3ePpY7YXHhk4+yWMd0C3fGE8/0tMFsbubihUb8/AM3IXFxccCrb/bGpq8HYchw3y4nwhKpEI8+0Z113E/fFVpkk0kYh1rHd3J0rXrcxpAmJBAIUFGmxMUL1k/zqihXoVcfD4SGMRch9OnniYz0RhQbaVluTVJP1mHoCF/OD6SAQCdMmByEUWMDIBIJUFGugpJlt9EZuO+hCIy5LYBxTJsJ/7mbKu0IfqCVbyfn+JGaq92MjTF+MnMOJ5+sXnnpajqVMQQC4PUVfeDrZ/u4qlqtwwuLzqKu9mbDciaierpi8ctx2PX3KGz4IhkPzYlE3/6edguhWIK7hxgPP84l1lto8vtEcIdWvp0cnc6AsG7OiI41nmfr5++IPTvL0MQi0nzQ2KCFVCpiLW92cmobs3dXGS/lsabQ3KTF8aM1GDchEFKGEu32EAgECAp2QtIgH9wxPQQPPByJEWP80T/RC+ERLvDxdYSrmxgikQAajYE1BQ9oywRx95DA398REd1dUFFu3QKLp5+NwYBE5t+PvKUVLz2fRiY6VoTM1LsA/QZ4YtPXgxjHfLIuG5s35jCO4QtHRxG+/20YgoLZGzv++08Vli48Y5fT9MgoF3ywIREBgZY1oGRCpzNAIW9Fc3MrDNdYjLm6iiEQAA5i4U1OYmNS/kKzmd69bPSMccNXPwxmbZ9ky8/LrUrn2zMRN3HubD0KWaqP7pgWYjNXLpVKh+UvneO06hs+yg/Pv8TePdga5OW04LH7j+EMhxQ0cxGJBHB1EyMo2AnBIbKrf9zcxXB1E7dr4RgUYp2HgVAowIuvxbMKb0W5Elu/zLfKHIj/QWGHLoKjVIjkwT5GX3d1E+PihQYUF9rmkKuiXAWhEEgYaNx/4grxvT0ACHDGDhaYCrkOu3eUQavVo28/T4h4alBpCSeO1qAgj/9S3pn3deNkG/n2snRkZzXzfn/iemjl20XYtYM9djp9VpiNZtPG5o25SEvl1jX58aeiOKU+WQO93oAvNuXi3mmHcHB/pd1boluji3VklAueeS6addyhA1X4m9oE2QRa+XYRlEodIrq7MLa/CQ2TYef2Upv5ChgMwIljNRg3MQjOHGwXE5O9odHoce6MfdrcNzVqsW9POf75qxIuLg6I6O5is1DNtRQXKUw2+GFCIhFi7ScD4efPnF1SX6fBgidOQUWpZTaBxLcLUVWlwtQZxreVAoEAAiFw7HCNzeYkl7fizKlaTLg9GGIx+0YraZAP1Go9zp21jwADbSL0z1+V2LOzDM1NrfD2kcLDk9kekk8a6jXYs+tmhzRzeeb5GIwYzdybzWAAXlmShqzLTbzdl2CGxLcLUVWpwuBhfowrnO49XLH9p2KbphDVVKuRm92McRMCIeBQKpaU4gMnmQNOHrPdQ6I9mpu0OHOqDtu+K8SB/ZVobNBAIBTAy1vKemhlCXoDsO1bfsznb5sYiAWLY1gr9H75sQjffV3Ayz0JbpD4djFUKh1GjzNeuSQWC6FW623e362oQI6mJi1j489r6dPPE8GhMhw+WAW9dZtxcKKuVoPTJ+vw+68l+ObLfBw/WoOCfDlqqtRobTXA2UXMaWXPBZmTA778LM/i2HP/RC+sXNMfDg7M8zqfVo/XlnLLTiH4g/J8uxgODgL8vHsEAoOMpys1NWoxbcJBq+WSMvHYk1F44mnu1pJHD1XjpefOdvgSV4EA8PaRwsdXCh9fR/j4SuHmLoaziwOcZQ4QG6mEU6l0aG7SoqlRi6b/9/qtLFchL7fFotznHtGu+OSrQXBxYY61K5U63DX5IKqrqJLN1pD4dkGmzwrDi8viGcds+SIfH626bKMZXc/c+T0wZ14U5/Hp5xvwwqIzJBAcCQ6R4dMtg1h9eq9w5N9qvP7SOTQ12v5hfCtDYYcuSG52M6ZMC2HMMIiNd287UGqnHbm1ST1VB7FYiH4cOyz7+TtiwuQgXEpvRHlZ52lBbw+8faRY/3ky487nRsK6OWPcxEBcSKunB5wNIfHtguh0Buh1QMpQ4/FVkUgAH18p9v9pn5zOUydqoVbrkZRivDDkWmQyB0y6IxgajR7n0+yXCdGRCQp2wobPkxDazfTW9q6uYkyZFgKtlt5fW0Hi20VpadZixj1hjNkFEd1dkZ3ZjMJ8+zRGPHe2Hg31WqQM9eGUBSEQCJCU4oPIKFccO1zD6p52K9G7rwc+/izJIp8KobDt/Y2IdMGxw9XQaikiaU1IfLsYzi4OmPtUD7z+Th84sJy+CwRtnS5OHa+x23YzI70RRYVyDB/lz7mgIbK7C0aODcCFc/WoqaZt8vRZoVixqj9cXPjpPRcZ5YoRo/1x6ngtGhsoDmwtSHy7CEKhAHfeFYr/fDgAKUN9OXsUiMVCjBzjjwfgRvUAABtZSURBVNMn6+wmZLnZLchIb8TwkX6c/XE9PCWYMi0UQqEA58/Wd4h0NFsjc3bAi8vi8diTUbznHXt6STD5jmAUFcit4jNBkPh2CZIH++A/Hw7A1OmhcJKxl/HeiKOTCOMnBSLjYiNKS+xzoFVSpMChA1UYNMSXc/t2oVCAhIFeGDrCD1mXm26pw6LEZG+s3TgQCUnsxkVXKC9TwtFRxFmoJRIhxo4PhJOTCKdP1Nnd86KrQeLbiQmPdMHr7/TBE0/3gJe3ZX3axBIhxk0MRFWlClmX7eNoVV/XVlYbF++OIBPMZXx8pbhjegh8/RxxPq0eanXXXQa7uoqxaGksFr8cZ1KL+4z0Rjz58Akc+KsSySk+nH9WIAD69vdE/wRPHD1UTb4PPELi2wnx8JRgweIYvPpmb3SLMP1k2xgikQAjRvsjOFSGk8dr7XKgpVbpsWdXGdw9xP9vNckNgUCA2Hh3TJ0RCp3OgMzLTV2qYsvBQYCZ93bDex8MwIBEL5Maep44VoNn551Gc3MrqqvU2LWjFBGRLiZ9doKCZRg/KQjn0xpQVWndThu3CiS+nQixWIh7Zodj5Zr+6J/gZTXHrR7Rbhg9LgDn0+xzoGUwtFW2lZUqkTTI22h1WHs4OoowaIgPJk8NgUKuQ05Wc6feLguFAowc44//fDAAE6cEw9HEtkfff1OAN14+D43mfw9SjVqPfXvKoVTokJDkzflz5OzigIlTglFdpSYDHh6gCrdOwrCRfli4OAZh4fytdNnQaPT46rM8fL05D2q1fbaboWEyvPleP8T3djfr5yvKlfj+m0Js/6kYCnnnaYHu5CTC5KnBuHd2uFl5u2q1Du8uv4jdv5cyjus3wBMrVvXnXA13he+2FGDt+5e71O7C1pD4dnAio1zw7AuxSOZYjNAeVZUqHD5Yjemz2LsYtEdpiQLr1mTi7z8r7LKKdHAQYO78HnjwsUizV/stLa347adi/L69BHk5LTzPkD9CuznjjmkhmDYzlPPBY3uknanHW69dQHEhe6aCj68UK97vj34Jnibd48SxGryyOI3Kks2ExLeD4u4hxtz5PTB9VpjZaUQqlQ5bPs/Hls/zoNHo8fPu4RZ1Sci63IRP1+fg0IEqmze8FIuFGD7aD6+92RsyDsbsTFy62Ihdv5Vi355y1NdpeJqh+YSGyTB2fCDGjA9AzxjjXahNpbXVgO+2FGDj2izW+L1IJMCCxTG4d3a4SfcoLlJg8TOpyM/tuA+0jgqJbwfDwUGAu+7phsefijLpNPtaDAbgz91lWLcmE5UV/zscueueMCx9ldlwhwtFBXL8sLUQu34rgUJhvXBEaJgMk+4IRsJAb8T1duecA8wVvd6AjPRGHD5YhSP/ViPrcpNNVvZSqQi9+3kgMckLQ4b7ITqWP8Ftj4sXGrFkQSqn+P24CYF45c3ekMm4x5blLa148bmzOHHUvv7LnQ0S3w7E4GG+WLQ0FuEWZDCkn2/A6vcuIf1cw02vSSRC/Pj7cE4t3bmgUOhwYH8F/vi9DKeO1/K2Go7r5Y6583tg0BAfm7bxaWlpxcXzDbh4oQHp5xuRn9uCinKlRXFND08Jwro5I6K7C2Lj3RAT544e0a68ef9ypSCvBU88dAL19ewr/YjuLvjPhwPQzYTzBZ3OgPfeuojtPxVbMs1bChLfDkB4hDMWLY3lbDTeHlWVKny8JhN7dpUxrt5umxSIt//Tz+z7GKO+ToNjh6tx9FA1jh+tMSsOKJWKMPfpHrj/oXC79E5rD53OgIpyJUqLlaipUUEh10Ehb0Vzsxa6VgOEIgFEIsFVBzkvbyk8vSTwD3SEn5+jRXFbvkk9WYunHz/F6WHi7OKA19/pg5FjmNsP3chXn+Vh/YeZnTrDxFaQ+NoRN3cxHn+qB2bcHQYHM1uWXxvX5dIaSCAAvvx+MGLjzcse4IJeb0BeTgvOpzUg/Xw9Ll5oRHGhnLG7skwmwgcbBpp86EOYxvoPs/Dlp7mcxgoEwJx5bd7LpuQV79tTjjdeOQ9NFy524QMSXzsgEgkwfVYY5s7vAXcP8+O6e3eV4eMPro/rcqFPP09s+jrZpqtLnc6AshIFCvLlKC5SoLpKhfo6zf//UeO5F+JIeG2AWq3DzNsPoaKcexn5qLH+eH1FX5PiwGln6vHcU6dt1im7M0Lia2MGDvLG8y/GITLKxexrMMV1ubLklTjMvLeb2T9P2J/iIgWyM5ug1egRHeuG8Ehun6lftxXj3TfSTbpXVA9XvL8uwaTzgoz0Rjwz9xSamygVrT1IfG2Ef4AjFi2JxZjxxptbslFVqcK6NZnYyxLX5YLM2QE//DYM/gHGOx0THZO01Hps3piDk8drrvscjBrrj1ff7M2aJaNU6jBxxH6TM1U8PCV4d1U/k8x8Lmc04Zm5J8mash2ovNjKSCRCPPhYJFas6m92DqdKpcMXm/Lw6pI0XM7gp6xTq9WjuFCB8ZODOI0/d7Yerq5i3tO9CO6UlSrxypI0bFibhdISxU2vF+TJkXqyFhNuD2LsWCwWC1GQJ0d2lmkGSiqVDnt3lcE/wInzZ9nHV4qUIb74Z18FpzOJWwkSXysydIQf3l+XgDG3BbC2726PK3Hdxc+cwaEDVYwHVuZQVChHcKgMPaLZv0gtLa2Y88BxlJYoERwqg4enhNe5MGEwAKeO1+LnH4rw/TcF+H5LAX75sRi7d5TizOk65GQ1o7paDalECHcP283LVuj1Bmz7tggvPnsG+SzeutX/38qerSLS0UmEP3aWmTEX4ODflTAYgAEDvTkdxHn7SJGQ5I3dv5dSOfI1UNjBCoSGyfDsC7EYOsLP7GvwEdflgszZAVu2DUFoGHvlW+qpOix84hS0Wj2SBvngjhkhGDLcz6SDGFOpKFfipefO4uKFRk7jvX2k6DfAE0OG+2HEaD+zC1U6CoUFcryz7ALSznDvqyaRCPHbnyPh7WPcr0Gj1mNk8p8WPdAn3h6EV9/qzTln+befi/HO66bFmrsyJL484ugowiNzu+P+hyPM3p7zGdflSmy8Oz77ZhCnL9Hf+yrw2tJzV8tVJVIhUob4YtQ4fwwb6QdXV/7ETqczYPbMI8gxcXt8BbFYiKQUb0ydEYrho/x4ye7Q6QxQyFshc3a4ruxbrdZBo9ZDqdShskKFinIlykqUyM9rwcgx/ibny+p0Bmz9Mh+b1meblbK1aGks7nswnHHMfdMPm/3eXiFhoBf+s3YA59/7M4+fwoljVAkHkPjyxpjxAVi0JNbsAyxT83X55v6HI7BwcQynsWdP12HpojM3HaKIxUL0HeCJfgM80be/J3r39bDIh+HPP8rx6pI0s3/+WoKCnTDr/nBMmxkKJyfzV+p6vQH7/6zApnXZKCyQQygUGK3s8/SU4M33+iJ5sGmmSFWVKry6NA1pqeZ3EU4Y6IUNXyQzjnnjlfPY9Ruz6xkXYuPdse7TgZx2GYcOVOH5p1MtvmdXgMTXQiK6u2DJy3FITOZ+AnwtV+K669Zk2tWkWiAAPtiQyNhu/lqKixRYuvAMcrONr5yEQgGierqiVx8PhIU7I6ybDKHdnBEU7MRplc2XOFyLl7cUj8ztjmkzQy06PNTpDNi9oxSfbcxBeenNObP9Ejzxzn/7wdfPtIfx4YNVeOOV8xZnB7i6ivHX0bGMMdlvv8rHB/+9bNF9rhAd64Z1nyax5q1XVqgwZew/vNyzs0PiaybOLg54fF4UZt0fbnZ12uWMJqx6NwPnzpq/wuETTy8Jvv5xCOfVu0ajx6frs7Hl83yTfB2EQgEGD/PF6o8TGMc9+fAJnDldx/m6phAQ6IQ5T0Vh8h3BFjWf1Gr1OH2iFvX1GqhVeji7OKB7lAsiuruYFObQavX4eE0mvttSwFu46bc/RyIwyHhe7sG/K7FkwRl+bgagR7Qr1m9OZhTghnoNbhu2n7d7dmYs8+a7BREIgIlTgvHMc9GMBxpM1NdrsHFtFn77ucTm1oxM1NdpsPiZVGz6ehCnrblEIsT8RdEYOSYAq97NQPp5boeDev3/tXfn0VGVaRrAn6pUUtkhe0IICUJYAkggEBITBDuKCgLSDSptB7ttWpoe0TMO046Ojp5pm9EB7LHRtg+4QqPi0jEiuHSzhJCEEMDIKiTE7PtC1kpSSdX8ESMBkvvdqrqVW1DP7xz/8lZx4SRP3fq+93tfM9raxE929jwdVV1lwAvPnsL2N4uw5tFopCwItWpN2NVVK/vbwlCqKvs2Fc+elrepKFdleYdk+NrSXnQwBedbce5MMxKShl5mYc+Hy1i0aYGJk32xbUcCnt9ws1XB29trxq6dJVi+6BDSPipzqODtd/5cC57593yLdsGnTBuBN3cmYsOmWFlVEwDgIiPovLzt/2xQWtyO/1yfj9QVWTicUWv3P+9quTn1eOj+bMWDF+irC5aiVHe7gfz8pUv9eNrtMoavDJ5eOqx/Ogbv7roFN8da13/gWG4DfrE8C5v/56zD/wBmHqzFs0/mW/ThoNEAt98Vhg9334oXNsZiUox04572dvGmou8wlokVnG/FE/9yHL9+MAfHjzbY/c8zm4F3tl3E42uO4ZKMNo/WEPVv8PTSwU/hem3RQ0mdCjMBHRWXHQQSkgLx1HNTJb++SamqNODPm77Dvq+rFb4z+9r3VTV6e77BC/8bCze9/M9oFxcNFtwdhgV3hyH/eBPS/16G/V9Xw3DVyHE5H0Cipyh7OPXtJax9+CjiEwOw9rGJVs+Ok9LR3oPnnj6JjH01ir/3QKInXwAYNdpDVo9fOby9dcJZcNWV8hv63OgYvkPw8XXFE09OxqKl4Va9vrvbhL+9XYS3t6o3fNJWB/fV4NFHjmLjK3FWdV+LjfNDbJwf1j8Vg4wDNcg8UIucw3Xo6OiV9Qtv7Zq6Eo7mNCDvSDZuvS0Ev10XjXHRPoq9t06nhaHD/t2+BqvCuFrYKE/ZB1hEbhov/jcqlKiOcTYM30HcdnsIfv/MFKt/+XOz67Fxw1mUFouHFzq6/ONNWHV/Fl7600xMirGuN4WXtw4LF4dj4eJwdHf3VQccOlCDnh6zZKWImuEL9C0NZOyvQebBWixYGIY1j0Yrsknlptdi45/jsO43eTiZb79KlyoZbSMtnVosRU6nvsLzDN9+XPMdwNtbhz9uisVL/zfTql/8utpOPPVv32DdI3k3RPD2q6owYHVqDna8VWTzJqGbmxa3zA3Cf/zXVGGJntrh289kMuOrPZWorlKuDtvDwwUvbLSsR66lGuq6hNUF/gHKLe3ICV9Lm/ncyBi+P5g42RfvfpiEO+4Ks/i1PT19R0FX3HMI+766vtZ25eruMmHLy+fx8M9zJA9WKEnJYLDV0p9FIG62v6LvGRrmgd/8LlrR9xyou9uEtlbptXV/BT/gYqZKr483NnShsYEbbv0YvgDmJAZi6/YE2WVSA31zrBGpK7Lwyqbv7DrJ11GcPd2MVfdl443XC+1+DNpRnny1Wg0eWn2TXd77gdQoBIfYr6dyQ7102I1QaMacm14rrHAp4JLDFZx+zTcyygsbt8yEu7tlX/+amrrxysbv8MXuCqcrHDcaTdj6WgE+2VX641Fde0zjdZTwTUwOlLXWW1VpwOefVqCyogOBQXrcuXAUxk+Q3oRycdFg0dJwvL1V3lw1S7W1Sm/sWfpzP5SYKSOEx7VP5tu3Q9/1xumffBctDbf4B3Dv7grcvyQTez9zvuAdqKG+C5s2nMXyRYeQ/kmZ4gMTPTxcbGrMoxQ5J9gOZ9TivsWZ2PaXAuxJr8C7bxThF8uz8OF7JcLXzrWh9aiIqNJGqeb402eK699POsgxekfh9OErejIZqLLCgHWP5OH5p07arTD+elRVacAfnzuNRSn7seXl87LqS+VyhKdf0cGa5ktGPPvkt9cEnclkxssvnhO2bYye5GO3YaadndIfiK5Khe8M6X8jk8mMUzKPnzsLpw/fkFDx4QmTqW9D7YGlmcjNZi/SoTRfMmLHW0X46d0ZeGxNHnanldt8mi/AATbdROVYmQdr0T5EHwqTyYwv90hPjNDrXex2oERUnaJE6Gu1GuEH1IXvWtHRzknGA6n/nU5lgcHSv1iNDV34198dx7kzyp+9v1GZTGYcyarHkax6vPjfZxCfGIDkecGITwhARKSXRe/lCE++oh4Tok0t0f8HYNEpQkuI7l20JizHuGhv+Ao27hylc58jcerw1Wo1wg78Xt66QYcVkjxGowlZh+qQdagOABA2ygMzZ/tj6s0jMX2Gn3DZxxHCt621R7LLW0Sk9GbcmCjpDxyzWV5AW0P08y2nu5zILBnTjL+1YAySs3DqZQeTyYzMg9KdrPR6FyxaYt0RY7pWVaUBe9Ir8NIfzuC3v8oVXm/PMiy5KsqkP3yT5wUPWabo7a3D4ntHS76+saFL8c3KfqIlEyWefEWj5M1m2K0v8/XMqcMXANI+KhVec+/yiGG4E+fT0mwU1kZbO5ZJSae+lX5qc3PT4uW/zELUTVee8AoM0mPzq3HCAMw7Yp8uaiGh7sK1ZFsPPWi1GsyYJb3eW1TYysMVg3DqZQegr4FKRXmHZB3n2HHeiI3zs2mmFg2upsqAseOGPpYaEqZ8z1lL7fu6GqkPSx+yiIzywvtpycg70oCqSgMCAvWITwyQVcbYUN8FN71W8adfOe1Piy622fRnTJzsK1zayMu1f4vO65HTP/maTGakf1IuvG7ZijHDcDfOR9Rz1hGefM+ebpa14eriokFCUiCWreibliy3fvzBX47FlxkpeH7DzZg7P9imAZ/9NBpgZWqU8LpzNjZxnxUvPnJ9jOE7KKcPXwDYnVYunNyQckeoVW0VSZqoWU1QsLtNM9aUcjijzq7v7+2tw8Il4dj8ahz+kXU7tmybjdRfjcWsOQGypgIPFD3RBxs2z8DU6SMlr6uuMqDExgZQc26RPoBiMplxIo/rvYNx+mUHoO9rX8b+GqQsCB3yGje9FouWhOO97cXDd2NOQPTkq9NpEBHpheIi274eW2vKtBF49IlJijfVkeLmpsWcxEDMSbw8C62qwoDCglbU13XhUlP3j/+5umrh6qaFf4AeYyI9MXX6SNltLw/807Zm7p5eOuF677kzLXadxXc9Y/j+IO2jUsnwBYB7V4xRdLosAUWF4lAdF+097OE7JsoLax+bgJ/cESo5fn24hIV7IEzBmWvdXSa8b+ODxOyEAGFPj6M5PJQ0FC47/CDvSAPKSqVLiqLGemFG3PA9ATmDC+dbhNdYOzfPGlFjvfDMH6ZhV/pcpCxwjOC1h7Y2Izxs7CWcNFfc8yI7077LNdczhu8PzGbg04/LhNctW8GyMyVVVxrQfEm60F9OEb+tpk0fiY2vzMQH6XOxZNloh1hntif/AD3e2JGA8VaOR9JogFsE4dvaYsRp9nMYEsN3gM8/LYfRKF3uc9sdoRip8MRXZ2Y2A8fzpHfDoyf6WNVrWUSjAebOD8bW7Ql4c2ci5qWE2K3BTb/6ui6bp4EoxcfXFZtejRMeDR7M+Ak+wgMwR3Ma0NvrGH9XR8TwHaCpsRsHBRNl3dy0Vg/VpMHJOWSg5EEXPz83/HxVFHalz8XmV+MQK6MdohyNDV0ovNCKutpONDVe2fWuu9uEjz8oxc8WZmDZ3Rl4Z9vFa65Rw6hwDzy0epzFr0u6VdwGM/swlxykaGZP2cuPpgHi4gPw+lvxkteUFLfjvsWHuPGmkJBQd6R/PV/yqbOjoxcPLM0UVkcMxd3dBYnJgbjrnnAkzwuyS/P3lmYjlt558McOZxGRXpg8xRcuWg3ychtQX3flKS+dToP4xEDcfmcYkucFqfaNymDoxT0/OYBWwcihgbZuT5D80DKbgXtS9qOulifbhsJqh6ucyGtAaXG7ZDOUyCgvzJzlj+OsX1RETXUnvjnWKNkjwNPTBS/+aQbWPZInu01lSKg74uIDMD8lBAlJgYpNbRiK7whXrEyNwhuvFwIAykraUVYydB1tT48Z2Zl1yM6sg1arweQpvkhMDsLqteMVWf4wmczQaDTCTUMPDxfExvkJ+5z08/F1xTRBDXHfNwAGrxSG71XMZiDt4zI8vn6S5HXL7hvD8FXQns8qhA1aYqaOwAefzsV7279HbnY9yks70NnZC08vHcJGeWB0hCfCIzwxcbIvZsT5IVTho8kmk1kYiitXRWHX30oseorsf+8zp5px5lQzfrl6HNz0lodva6sRpcUdKLzQgqM5DTh6pB6TYkZg/dMxiBR0Vps+Q374JiYFCjckc7jkIMTwHcSe9AqsfWyC5IiV+Skh8PNzQxMnWijiy88r8fCa8RgdIb2xFhSsF34wKq2jvQfvbS/G3s8qsOOjJMkeuT4+rli5KgpbXyuw2/3s2lmCD3YUw02vhUYDGDp60dpiHPQwQ252PX79YA7SvpgneVJOFM4DiaocAJaYycENt0FcauoWnv7hxpuyenrM+OuWC2rfxhU6O3uxa2cJfrrwELa+VoDysg68v6NY+LqVqVFWVRDI1dpiREV5B76/2IaiwjZUVRokT5G1NBtxQTA5WG4DI61WI5xp197Wg5P5bEIlwg23Icyc5Y+/vjNH8pq2th6Ul9p2Np4u02g0mDjZV+3b+FF1leGaWX3u7i7XtI4cTHlZB9osXHroN2GSr+TyRn1dF+rrpHtiXC08wlOy+5jRaMLFAvFod51OK2yAf3BfDX7/+AmL7s8ZcdlhCCeONeL7i22S7Q69vXWYFDNiGO+KhlNomIfV68ai5RNbBAbphT2CLeXqqlXsZ/mwzLVjZ8dlBwnpn4hPvBHRZSaTGVlc75WF4Sthd1oFOjulJy0Q0WVnTjXbbR7djYbhK6G11Whz2z0iZyK3XI0YvkJpH4pnvBFRH4avfAxfgfwTTbJ2gYmcXXlZB39XLMDwlUFOq0kiZydqSkVXYqmZDHt3VyJ5fjA0uLF7vBLZ4h9fVKl9C9cVHrIgIlIBlx2IiFTA8CUiUgHDl4hIBQxfIiIVMHyJiFTA8CUiUgHDl4hIBQxfIiIVMHyJiFTA8CUiUgHDl4hIBQxfIiIVMHyJiFTA8CUiUgHDl4hIBQxfIiIVMHyJiFTA8CUiUgHDl4hIBQxfIiIVMHyJiFTA8CUiUgHDl4hIBQxfIiIVMHyJiFTA8CUiUgHDl4hIBQxfIiIVMHyJiFTA8CUiUgHDl4hIBQxfIiIVMHyJiFTA8CUiUgHDl4hIBQxfIiIVMHyJiFTA8CUiUgHDl4hIBQxfIiIVMHyJiFTA8CUiUgHDl4hIBQxfIiIVMHyJiFTA8CUiUgHDl4hIBQxfIiIVMHyJiFTA8CUiUgHDl4hIBQxfIiIVMHyJiFTA8CUiUgHDl4hIBQxfIiIV/D/BMtA3Gz/UxQAAAABJRU5ErkJggg==;" parent="1" vertex="1">
          <mxGeometry x="230" y="360" width="50" height="50" as="geometry" />
        </mxCell>
        <mxCell id="tWzSnTYjIMBNes1oTI9M-31" value="&lt;font color=&quot;#000000&quot; style=&quot;font-size: 12px;&quot;&gt;Jenkins&lt;br style=&quot;font-size: 12px;&quot;&gt;Code Build&lt;br style=&quot;font-size: 12px;&quot;&gt;&lt;/font&gt;" style="text;html=1;resizable=0;autosize=1;align=center;verticalAlign=middle;points=[];fillColor=none;strokeColor=none;rounded=0;fontFamily=Roboto;fontColor=#A680B8;fontSize=12;" parent="1" vertex="1">
          <mxGeometry x="220" y="410" width="70" height="30" as="geometry" />
        </mxCell>
        <mxCell id="tWzSnTYjIMBNes1oTI9M-45" value="" style="endArrow=classic;html=1;fontFamily=Roboto;fontSize=12;fontColor=#000099;entryX=0;entryY=0.5;entryDx=0;entryDy=0;exitX=1;exitY=0.5;exitDx=0;exitDy=0;strokeWidth=2;strokeColor=#4D4D4D;" parent="1" source="tWzSnTYjIMBNes1oTI9M-44" edge="1">
          <mxGeometry width="50" height="50" relative="1" as="geometry">
            <mxPoint x="321" y="385" as="sourcePoint" />
            <mxPoint x="385" y="385" as="targetPoint" />
          </mxGeometry>
        </mxCell>
        <mxCell id="tWzSnTYjIMBNes1oTI9M-47" value="&lt;font color=&quot;#000000&quot; style=&quot;font-size: 12px&quot;&gt;Jenkins&lt;br&gt;Image Promotion&lt;br style=&quot;font-size: 12px&quot;&gt;&lt;/font&gt;" style="text;html=1;resizable=0;autosize=1;align=center;verticalAlign=middle;points=[];fillColor=none;strokeColor=none;rounded=0;fontFamily=Roboto;fontColor=#A680B8;fontSize=12;" parent="1" vertex="1">
          <mxGeometry x="200" y="530" width="110" height="30" as="geometry" />
        </mxCell>
        <mxCell id="tWzSnTYjIMBNes1oTI9M-52" value="" style="endArrow=classic;html=1;fontFamily=Roboto;fontSize=12;fontColor=#000099;entryX=0;entryY=0.5;entryDx=0;entryDy=0;strokeColor=#FF0000;strokeWidth=2;" parent="1" source="tWzSnTYjIMBNes1oTI9M-42" target="tWzSnTYjIMBNes1oTI9M-25" edge="1">
          <mxGeometry width="50" height="50" relative="1" as="geometry">
            <mxPoint x="331" y="395" as="sourcePoint" />
            <mxPoint x="380" y="395" as="targetPoint" />
          </mxGeometry>
        </mxCell>
        <mxCell id="tWzSnTYjIMBNes1oTI9M-54" value="" style="endArrow=classic;html=1;fontFamily=Roboto;fontSize=12;fontColor=#000099;exitX=0;exitY=0.75;exitDx=0;exitDy=0;strokeColor=#FF0000;strokeWidth=2;" parent="1" target="tWzSnTYjIMBNes1oTI9M-42" edge="1">
          <mxGeometry width="50" height="50" relative="1" as="geometry">
            <mxPoint x="385" y="397.5" as="sourcePoint" />
            <mxPoint x="445" y="535" as="targetPoint" />
          </mxGeometry>
        </mxCell>
        <mxCell id="tWzSnTYjIMBNes1oTI9M-55" value="" style="endArrow=classic;html=1;fontFamily=Roboto;fontSize=12;fontColor=#000099;exitX=1;exitY=0.5;exitDx=0;exitDy=0;strokeWidth=2;strokeColor=#333333;" parent="1" edge="1">
          <mxGeometry width="50" height="50" relative="1" as="geometry">
            <mxPoint x="96" y="387.5" as="sourcePoint" />
            <mxPoint x="190" y="388" as="targetPoint" />
          </mxGeometry>
        </mxCell>
        <mxCell id="tWzSnTYjIMBNes1oTI9M-56" value="" style="endArrow=classic;html=1;fontFamily=Roboto;fontSize=12;fontColor=#000099;exitX=1;exitY=0.5;exitDx=0;exitDy=0;strokeWidth=2;strokeColor=#4D4D4D;" parent="1" edge="1">
          <mxGeometry width="50" height="50" relative="1" as="geometry">
            <mxPoint x="435" y="385" as="sourcePoint" />
            <mxPoint x="550" y="385" as="targetPoint" />
          </mxGeometry>
        </mxCell>
        <mxCell id="tWzSnTYjIMBNes1oTI9M-57" value="" style="endArrow=classic;html=1;fontFamily=Roboto;fontSize=12;fontColor=#000099;entryX=0;entryY=0.5;entryDx=0;entryDy=0;exitX=1;exitY=0.75;exitDx=0;exitDy=0;strokeWidth=2;strokeColor=#FF0000;" parent="1" source="tWzSnTYjIMBNes1oTI9M-25" target="tWzSnTYjIMBNes1oTI9M-65" edge="1">
          <mxGeometry width="50" height="50" relative="1" as="geometry">
            <mxPoint x="440" y="504.5" as="sourcePoint" />
            <mxPoint x="545" y="504.5" as="targetPoint" />
          </mxGeometry>
        </mxCell>
        <mxCell id="tWzSnTYjIMBNes1oTI9M-58" value="AWS Cloud (DEV)" style="points=[[0,0],[0.25,0],[0.5,0],[0.75,0],[1,0],[1,0.25],[1,0.5],[1,0.75],[1,1],[0.75,1],[0.5,1],[0.25,1],[0,1],[0,0.75],[0,0.5],[0,0.25]];outlineConnect=0;gradientColor=none;html=1;whiteSpace=wrap;fontSize=12;fontStyle=0;shape=mxgraph.aws4.group;grIcon=mxgraph.aws4.group_aws_cloud;strokeColor=#232F3E;fillColor=none;verticalAlign=top;align=left;spacingLeft=30;fontColor=#232F3E;dashed=0;fontFamily=Roboto;FType=g;" parent="1" vertex="1">
          <mxGeometry x="550" y="250" width="260" height="180" as="geometry" />
        </mxCell>
        <mxCell id="tWzSnTYjIMBNes1oTI9M-64" value="" style="group" parent="1" vertex="1" connectable="0">
          <mxGeometry x="570" y="535" width="260" height="115" as="geometry" />
        </mxCell>
        <mxCell id="tWzSnTYjIMBNes1oTI9M-59" value="OnPrem" style="points=[[0,0],[0.25,0],[0.5,0],[0.75,0],[1,0],[1,0.25],[1,0.5],[1,0.75],[1,1],[0.75,1],[0.5,1],[0.25,1],[0,1],[0,0.75],[0,0.5],[0,0.25]];outlineConnect=0;gradientColor=none;html=1;whiteSpace=wrap;fontSize=12;fontStyle=0;shape=mxgraph.aws4.group;grIcon=mxgraph.aws4.group_corporate_data_center;strokeColor=#5A6C86;fillColor=none;verticalAlign=top;align=left;spacingLeft=30;fontColor=#5A6C86;dashed=0;" parent="tWzSnTYjIMBNes1oTI9M-64" vertex="1">
          <mxGeometry x="-20" y="-65" width="260" height="180" as="geometry" />
        </mxCell>
        <mxCell id="tWzSnTYjIMBNes1oTI9M-65" value="" style="shape=image;imageAspect=0;aspect=fixed;verticalLabelPosition=bottom;verticalAlign=top;fillColor=#3333FF;gradientColor=none;fontColor=#A680B8;image=data:image/png,iVBORw0KGgoAAAANSUhEUgAAAk0AAAJNCAYAAAAs+kFYAAAACXBIWXMAAA7DAAAOwwHHb6hkAAAAGXRFWHRTb2Z0d2FyZQB3d3cuaW5rc2NhcGUub3Jnm+48GgAAIABJREFUeJzt3Xd8lGW+///3pEEKPXSQIkWC4AJCaFJDWYU9u0fZs+4iuwiLK0IoIQSFhI6hhCK6gms5yvrbc5D9bhFdSSKhioDACgpIb4IUkV5Sf3/sxJNVwAmZyXXPNa/nf7bMe3hcTt7zua/7ul2aogIBAADgjoJMBwAAAPAHlCYAAAAPUJoAAAA8QGkCAADwAKUJAADAA5QmAAAAD1CaAAAAPEBpAgAA8AClCQAAwAOUJgAAAA9QmgAAADxAaQIAAPAApQkAAMADlCYAAAAPUJoAAAA8QGkCAADwAKUJAADAA5QmAAAAD1CaAAAAPEBpAgAA8AClCQAAwAOUJgAAAA9QmgAAADxAaQIAAPAApQkAAMADlCYAAAAPUJoAAAA8QGkCAADwAKUJAADAA5QmAAAAD1CaAAAAPEBpAgAA8AClCQAAwAOUJgAAAA9QmgAAADxAaQIAAPAApQkAAMADlCYAAAAPUJoAAAA8QGkCAADwAKUJAADAA5QmAAAAD1CaAAAAPEBpAgAA8AClCQAAwAOUJgAAAA9QmgAAADxAaQIAAPAApQkAAMADlCYAAAAPUJoAAAA8QGkCAADwAKUJAADAA5QmAAAAD1CaAAAAPEBpAgAA8AClCQAAwAOUJgAAAA9QmgAAADxAaQIAAPAApQkAAMADlCYAAAAPUJoAAAA8QGkCAADwAKUJAADAA5QmAAAAD1CaAAAAPEBpAlAqXHLpkcaP6K+/+KvCQ8J98hrxsfF6tNmjcsnlk58PILBRmgD43MONH9a2p7Zp5S9X6j+a/od+VONHPnmdbvW7acXPV2jT0E3qWq+rT14DQOCiNAHwmY51O2rd4HV675fvqVWNVt/+/fur3e+T16sZVVOSFFs7Vmt+s0Yrf7nSZ68FIPBQmgB4XbPoZlo+YLk2DN6gh+556Hv/vEZUDZ+8bmRY5L/99SONH9Gnv/tUywcsV4OKDXzymgACB6UJgNfcU+EevfnTN/XZ8M80IGaAXK5b7y2qHlXdJ69fNqTs9/5ekCtIA2IGaPczuzWn1xxVLFvRJ68NwH6UJgAlVqlsJaXGpWrviL0a9MAgBbnu/NHiq0lTRGjEbf9Z2ZCySuyYqIPxB5XUKUllgsv4JAMAe1GaANy10KBQDWszTHtH7FVSpySP74qrHumbSZMnr185vLJS41K1a/iuf03DuNMOgIcoTQCKzSWXBsQM0J4Re7S031JVi6xWrP/eV5fnwkM9P8qgceXGWj5guTYN3aTO93T2SR4AdqE0ASiWHg16aOuwrVo+YLnurXTvXf2MKuFVvJzqX8KCw4r938TWjtW636zTnx79k+pXrO/9UACsQWkC4JHCO+I+HPSh2tRsU6Kf9d273Lwl6C4/0lwul35x/y/0xYgvtKjvIjaLA7glShOAO6pdrraW9lv67R4gbygTXEbBrmCv/KxCQa6g296t56mw4DDFx8azWRzALVGaANxSVFiUkjolae+IvRrWZpjXS86d7nS7Gz90x15xsFkcwK1QmgD8m8I74g7EH1BqXKqiwqJ88jrevkTn7VIn/d9m8Y+GfKROdTt5/ecD8C+UJgDf6t+kv3Y/s1tL+y312bEAhZw8afqu9nXaa/3g9Vo+YLkaVmros9cB4GyUJgDfloK/P/53NarcqFRe09ulKTjI+5Omolwu9zELz+xhszgQoChNQABrWqXpv84qGlL6ZxVFhnr38pwvJ01FsVkcCFyUJiAAVY+srpcfefnbZ8SZ4O09TaVVmgoVbhbf+fRO/UfT/yjV1wZgBqUJCCBhwWEaFTtKX4z8Qr978HcKCQoxmsWbfLER3BNNqjTRX3/xV3005CN1qNPBSAYApYPSBASAwsee7B2xVwv7LlSFMhVMR/J6yfH1nqYf0qFOB218cqOWD1iuehXqGc0CwDcoTYDl2tdpr41D/vXLvEHFBqbjfMvbJae0L8/dSuFm8d3P7FZqXKrKlylvOhIALzL/KQPAJ5pUafLtJm8nXjby+qTJ0OW5W4kIjVBSpyTteWaPTw4GBWAGpQmwzLenWT/tvcee+IKNk6bvqlWulpb2W6qdT+/Uw40fNh0HQAk571MGwF0p3ORdeCu8tzdae5tte5ruJKZqjN775XvKeCJDLaq1MB0HwF2iNAF+rnCT955n9mhh34V+c+iit+/cc+Kk6bviGsZp+1PbS+XEdQDe5/xPGQC3FVs7Vuuf9M/HewTC5blbCQkK+fbZflO6TVHZkLKmIwHwkH98ygD4N/Uq1NNbP3tLm4Zs8tsHydq8EdwTUWFRmtx1svaN3KdBDwySSy7TkQD8AEoT4Ecqla2k1LhUfTHyCz3R8gm5XP77izZQJ03fVbd8Xb350ze1+bebS/1RNgCKxz8/ZYAAExYcpoQOCTo4yp7nnQXinqY7aVurrdb9Zp3+57H/Uf2K9U3HAXAL/v0pAwSA/k36a/czuzWv9zxVKlvJdByv8fblKH+euhVyuVz6r+b/pS9GfKFFfRc54uR2AP+H0gQ4VNtabbVu8Dr9/fG/695K95qOg1IUFhym+Nj4byeLTj8+AggUlCbAYeqWr6u3fvaWNg/drIfuech0HBhUJbyKUuNStfPpnY4+qBQIFJQmwCEKN3nvG7nP7zd5w7uaVmmq5QOWK3NQpn5U40em4wABi9IEGBYaFKphbYZp74i9SuqUxLk9uK2eDXpq27Bteutnb6lmVE3TcYCAQ2kCDIprGKcdv9uhpf2WqlpkNdNx4AeCXEF6ouUTOhB/QKlxqSoXVs50JCBgUJoAAx6s9aDW/GaNMp7IUPOqzU3HgR+KCI1QUqck7RmxR8PaDPO7wz0Bf0RpAkpRnfJ1tLTfUm0eulld63U1HQcWqF2utpb2W6otv92ibvW7mY4DWI3SBJSCqLAoTek2RftG7tOwNsP8/iBGOE/rmq2V9essppeAD/HJDfhQ0YezTu46WeEh4aYjwXLskwN8h9IE+EhcwzjteOpfv7yqR1Y3HQcB5Lt3ZNrw2B3ACShNgJe1rtlaq3+9WhlPZOj+avebjoMAVvTsr0EPDPL6o2uAQENpAryk6Ibc7vW7m44DfOueCvfozZ++qU1DN6lj3Y6m4wB+i9IElFBkaKSSOiVp74i93PoNR4utHasNgzdo+YDlalCxgek4gN+hNAF3KcgVpEEPDPr2kMGosCjTkYAf5HK5NCBmgPaO2KtFfRepfJnypiMBfoPSBNyFwk3eb/70TdWIqmE6DlBsYcFhio+N18H4gxoVO0ohQSGmIwGOR2kCiiGmaoxW/nKlMp7IUMvqLU3HAUosOiJaC/su1K6nd6lfk36m4wCORmkCPFCrXC0t7bdUO5/eqUcaP2I6DuB190Xfp3cff5cvBMAdUJqAOyh8vhebvBEoCi89v/Wzt7j0DHwHpQm4he9u8uZJ8ggkQa4gPdHyCR2IP6Ap3aZwkj3gRmkCviOuYZy2P7Vdb/70TdWMqmk6DmBMZGikJnedzDMTATf+DwDc7ou+T8sHLFfGExl6oPoDpuMAjlGnfB0t7bdUm4duVpd6XUzHAYyhNCHgRUdEa1HfRdr19C4NiBlgOg7gWA/WelBrf7NW7z7+ru6tdK/pOECpozQhYEWERii5S7IOjzqs+Nh4zqkBPNSvST/tfma35vWep4plK5qOA5QaShMCjkv/OhH58+Gfa1r3aZzkDdyFsOAwJXRI0MH4g0rqlKSw4DDTkQCfozQhoPRo0EPbntqm5QOWq37F+qbjAH6vcnhlpcalcnkbAYHShIDQLLqZ3n38XX046EO1qtHKdBzAOk2qNPn2RgoOx4StKE2wWtWIqnrp4Ze08+mdPCLCQY5fOq7tp7Z79Wce/uawfr/198rNz/Xqz0XxFB7Z8Ur/V1Q9srrpOIBXuTRFBaZDAN4WFhympx98WlO6TWGjqoNczbmqF7e8qBnrZuhK9hWfvEbTKk01vcd0LhU5wNWcq5r30TzN3jBb13Ovm44DlBilCdbp36S/FvZdqIaVGpqOArf8gny9vettJWUk6dSVU6Xymj0b9FRanzTO3HKAE5dOaPq66Xp1+6vKL8g3HQe4a5QmWKNtrbZK65Omh+55yHQUFPHh4Q81Ln2c/vnVP0v9tYNcQRrYcqBS41I53d0Btp7cqoRVCVp/bL3pKMBdoTTB79UpX0ezes7SwBYD5XK5TMeB2xdff6Hk1cl6Z/c7pqMoMjRSI9qN0KQukzhiwgFW7lupUR+M0qFvDpmOAhQLpQl+KzI0UomdEpXUKUllQ8qajgO389fPa87GOVrw8QJl52WbjvNvaperrZSuKRraeijPUTMsOy9bSz5ZopSsFF28edF0HMAjlCb4ncJLLnN6zeHuHAcp/CU4ec1kXbhxwXScO2pTs43m95nPc9Qc4OvrX2v62ul6aetL3PkIx6M0wa/ENYxTWu80zoFxGH+93NK/SX/N7zNfjSo3Mh0l4O09t1fj0sfpvf3vmY4C3BalCX6hWXQzze09V480fsR0FBRhw8be0KBQDW41WDN7zFR0RLTpOAEv81Cmxq4aq11ndpmOAnwPpQmOFh0RreQuyXqm3TMKdgWbjgO345eOa9LqSVr26TIVWPIRUjm8ssZ3Gq/R7UerTHAZ03ECWm5+rl7f8bpSslJ0+upp03GAb1Ga4EjhIeGKj43Xcw89p/JlypuOA7cr2VeUtilNqRtSdSP3huk4PtGkShPN6DGDwzEdIBDWG/wLpQmO4pJLj8U8ptm9ZqtBxQam48Ct8HDKxPTEgPnm371+d6X1SeNZhQ5w7OIxJWclWzXZhH+iNMExYmvHan6f+epYt6PpKCgi81CmEtITtPP0TtNRSl2QK0iPNntUc3vPVb0K9UzHCXibv9yssavG6qPjH5mOggBFaYJx91S4RzN6zOBwSofZc26PEtMTuZtJUkRohEa2G6mJXSaqXFg503ECWkFBgVbsWaHxGeN15MIR03EQYChNMKZS2UpK6pzExluHOXftnGasm6EXt7yovII803EcpVa5WprcdbKGtB7CjQmGXcu5psVbFmvW+lm6dPOS6TgIEJQmlLrCW7ynd5+uapHVTMeB2/Xc63ph8wv8EvJA65qtldY7Td3qdzMdJeCdvHxSU9dO1WvbX6Pkw+coTShVcQ3jtLDvQjWv2tx0FLhxuePusZ6dY/fZ3UpIT9AHBz4wHQUWozShVMRUjdG83vP040Y/Nh0FRbCxtuQKJ6czesxQ1YiqpuMEvMxDmRr9wWh9fvZz01FgIUoTfIo9IM7ELdzexx4958jJz9EbO97QpNWTdPbaWdNxYBFKE3yCu42c6Zsb32j2htla+PFC3cy7aTqOlRpXbqyZPWfqsWaPcTeoYax3eBulCV7FuTbOVPjNOzkrWWeunjEdJyC0r9Ne8/vMV4c6HUxHCXj7z+/XxA8n6p3d75iOAj9HaYLXcIKyM7HHw5zCE+7n9Jqj+hXrm44T8LKOZGnsqrH651f/NB0FforShBLjWV3OtP3Udo1LH6esI1mmowS8wsvVPEvRvMJHAiVlJOnUlVOm48DPUJpw13gqvDNxbo1z1YyqqSndpnBjhANczbmqF7e8qBnrZuhK9hXTceAnKE0otsJbrGf2mKnoiGjTceBWeELyzHUzdTn7suk4uIOYqjGa22uuHm78sOkoAe/Ly19q2tppenX7q8ovyDcdBw5HaUKx9G/SXwv6LtC9le41HQVu+QX5+vOePysxPVFHLx41HQfFENcwTgv6LND91e43HSXgfXLyEyWkJ2jd0XWmo8DBKE3wyIO1HlRa7zR1qdfFdBQUkXUkSwmrErTjqx2mo+AuhQSF6MlWT/JYIYdYuW+lRn8wWge/OWg6ChyI0oQ7qlO+jpK7JGto66EKcgWZjgO3fV/v06TVk7iF2iIVy1bUhM4TNCp2lMqGlDUdJ6Dl5Ofo5a0va/Kaybpw44LpOHAQShNuKTI0UomdEjW+03iFh4SbjgO389fPa87GORzWZ7F7KtyjGT1maGCLgRyOadj56+c1be00vbT1JeXm55qOAwegNOHfBLmCNLDlQM2Om60aUTVMx4Fb4eGUE1dP1Llr50zHQSmIrR2rtD5p6lS3k+koAe+Lr79Q8upkJrugNOH/xDWM07ze8/RA9QdMR0ER7LEIXIWHY87uNVsNKjYwHSfgZR7KVEJ6gnae3mk6CgyhNEH3Rd+nad2ncTilw3A3DwqFBYfp6Qef1rTu0zgc07DCwzET0xN1+upp03FQyihNAaxaZDVN6z5NQ1oNUUhQiOk4cDt28Zie/fBZ/WnXn1TA/54ookZUDU3rPk1PtnqSwzENu3Tzkmaun6lFHy9if2EAoTQFoMJvrVO7T1WFMhVMx4Hb1ZyrmvfRPM3eMFvXc6+bjgMHaxbdTHN7z9UjjR8xHSXgHb90XJNWT9KyT5fxJScAUJoCCPsjnKlw3D8+Y7y+uvKV6TjwI3EN45TWO00tq7c0HSXgbf5ys8Z8MEabTmwyHQU+RGkKEO1qt9P8PvO5E8dhMg9lalz6OH16+lPTUeCnCu94ndNrjqpHVjcdJ6AVFBRoxZ4VGpc+TscuHjMdBz5AabJc3fJ1NbPnTM58cZi95/YqJSuFW5jhNVFhURrXcZySOiVxOKZhhc+B5GHA9qE0WYoPUGf6+vrXmr52OoflwWf4ouQcJy6d0MTVE9nvZBFKk2UKn2M1rfs0RvUOkp2XrSWfLFFKVoou3rxoOg4CQNtabTW/z3x1vqez6SgBb+vJrRrzwRhtPL7RdBSUEKXJInEN4zS/z3y1qNbCdBS4Fe5xmJA5QYe+OWQ6DgJQ/yb9tbDvQjWs1NB0lIBW+FkwPmO8jlw4YjoO7hKlyQIxVWM0t9dcPdz4YdNRUMSWL7coIT1BG45tMB0FAY5jRpzjeu51vbD5Bc1cN1OXsy+bjoNiojT5sZpRNTWl2xQNaT2Eg+4chHNb4FRVwqsopWuKhrcdzoG2hp28fFJT107Va9tfU15Bnuk48BClyQ9FhEZoZLuReu6h53ikgoNcyb6itE1pSt2Qqhu5N0zHAW6raZWmmt5jOo9OcoBtp7Zp7KqxPC7JT1Ca/Ejh4ZRzes1R/Yr1TceBW25+rl7f8bpSslJ4FhX8Cg/pdo6V+1Zq1Aej2PvocJQmP9G1Xlel9UlTm5ptTEdBESv3rVRiRqL2nttrOgpwV4JdwRrSegh33DrAjdwbWvDxAs1aP4vznRyK0uRwjSs31syeMxmjO8yec3s0Ln2c3t//vukogFdEhkYqsVOixncar/CQcNNxAtqpK6c0Zc0Uvbr9VeUX5JuOgyIoTQ5VqWwlJXVO0uj2o1UmuIzpOHA7d+2cZqyboRe3vMjmTVipTvk6Su6SrKGthyrIFWQ6TkDbenKr4v8Rr49PfGw6CtwoTQ4TGhSqwa0Ga0aPGaoaUdV0HLgVPhZh1vpZunTzkuk4gM89WOtBpfVOU5d6XUxHCWgFBQX6464/KjE9kT2TDkBpcpC4hnFa1HeRYqrGmI4CNw6kQ6Dr36S/FvRdoHsr3Ws6SkArvDt31vpZys7LNh0nYFGaHIBvdM609uhaJaxK0LZT20xHAYwqE1xGI2NHauJDE1WxbEXTcQLa7I2zNSFzgukYAYvSZFCd8nU0q+cs/arFr9g74CD7z+9XUkaS/rL3L6ajAI4SHRGtKd2m6Kk2T3E4pgFLPlmi+H/EKyc/x3SUgEVpMiAyNFIj2o3QpC6TFBUWZToO3L658Y1mb5ithR8v1M28m6bjAI7VpEoTzegxg7t6S8mZq2f0u5W/44ucA1CaSlGQK0gDWw5UalyqakbVNB0Hbjn5OXpjxxuatHqSzl47azoO4Dd6NOihtN5p+lGNH5mOYq13dr+j4e8N17lr50xHgShNpaZng56a13seHy4Ok3koU6M/GK3Pz35uOgrgl/gy6BsXblxQUmaSXtn2iukoKILSVAq61uuqNb9ZYzoGith2apsSViVo7dG1pqMAVogKi1JSpySN7TBWEaERpuP4rYKCAi3buUzjM8ZzxIADsfu4FIQFh5mOALcvL3+pp1Y+pdg/xFKYAC+6kn1FyVnJarK4iV7Z9gonWd+FfV/vU+8/9tav//prCpNDUZoQEK7lXNPsjbPV7MVmemXbK5zmDfhI4ReTdn9oxxcTD13Luaapa6eqxcstlHko03Qc3AH3jMJq+QX5envX20rKSNKpK6dMxwECxrZT29Ttv7upf5P+mt9nvhpVbmQ6kiOt3LdSI94foaMXj5qOAg8waYK1Mg9lqvXS1hr0l0EUJsCQd/e9q+a/b66E9AR9c+Mb03EcY9/X+9T3j33V/0/9KUx+hNIE63zx9Rf6+Ts/V69lvfTp6U9NxwECXnZetuZvmq9GLzTS7I2zA/octAs3LmhC5gS1fLmlVh1cZToOionSBGucv37+2w+jd3a/YzoOgO8o/H+0xe9bBNz/o/kF+Vq2c5mavtg04IujP2NPE/xeTn6OXt76siavmawLNy6YjgPgB+w/v18/f+fn6l6/u9L6pKlVjVamI/nU6sOrNWbVGO08vdN0FJQQkyb4tZX7VqrZi8006oNRFCbAz2QdyVKbpW3083d+buW+nsJy2POtnhQmS1Ca4Je2ntyqLm90Uf8/9dfBbw6ajgPgLhWoQO/sfkcxL8VoQuYEXc6+bDpSiRXuWwrEy5C2ozTBrxy9eFSP//lxxf4hVuuPrTcdB4CXFD1L7b//+d9+eThmTn6OXtzyohovbsy+JUtRmuAXruZc1dS1U9XsxWb6n8/+RwU8/Qew0peXv9Tgvw1W2z+01Zoja0zH8VjhEScj/zGSh+tajI3gcLTCwykT0xN5rAAQQLaf2q7ub3ZXXMM4Ley7UM2rNjcd6Za2ndqmcenj/Krg4e4xaYJjZR7KVKulrTToL4MoTECAyjyUqVZLWumplU/pzNUzpuN868SlE98+LobCFDgoTXCcXWd2qc8f+6jXsl7ccQJAOfk5emXbK7rvxfu04OMFys7LNpbl4s2LevbDZ9V4cWPHPpi4b6O+mtRlkukYVqI0wTHOXTun0R+MVuulrZV+MN10HAAO882NbzR21Vg1XtxYy3YuU0FB6e1tzM3P1SvbXlHTxU2VuiFVN3JvlNpre6pZdDO9+/i7+sev/qH7q91vOo6V2NME47LzsrXkkyVKzkrWpZuXTMcB4HDHLh7ToL8M0u+3/l5pvdPUsW5Hn75e5qFMjVk1Rp+d+cynr3O3oiOildwlWc+0e0bBrmBJkksuw6nsRGmCMQUFBVqxZ4WSMpJ0+MJh03EA+JmPT3yszq931mMxj2lOrzmqX7G+V3++0zd5R4RGaGS7kXruoedUvkz5f/tnLhelyRcoTTBi85eblbAqQRuPbzQdBYAfKzwc87397922QBTXiUsnNH3ddL22/TXlFeR5Kan3BLmC9GizRzW391zVq1Dvlv8OkybfYE8TStWxi8f067/+Wh1e7UBhAuA1hYdj3vvCvXph8wt3VXYKz4NrsriJXtn2iiMLU88GPbVt2DYtH7D8toVJYtLkK0yaUCou3Lig1A2pWrR5kSM3UAKww7lr5zTqg1Fa8skSzes9Tw83fvgH/5vc/Fy9vuN1pWSlOPZ4k6ZVmmp6j+kaEDPAo3+fSZNvUJrgUzn5OXpjxxtKzkp21BkrAOy259wePfL/PaK4hnFa0GfBbe8myzyUqbGrxmrXmV2lnNAzVcKrKKVrioa3Ha6QIM9/ZTNp8g1KE3zG6XecALBf4SG5T7Z6UtO7T1e1yGqS/nXi+Lj0cco6kmU44a2Fh4QrPjZezz70rCqUqVDs/55Jk29QmuB1O77aoYRVCY79MAIQWArPWFr++XIldUrS7rO79fautx15MGWQK0i/avErzew5U3XL1y3Rz4H3UZrgNScvn9TUtVMde8cJgMB24cYFPfvhs6Zj3FaHOh2U1idNHep0KPHP4vKcb1CaUGLXcq5p8ZbFmrlupi5nXzYdBwD8SpMqTTSjxwyPN3l7gstzvkFpwl0rPJwyMT1RRy8eNR0HAPxK5fDKGt9pvMa0H6Ow4DCv/mwmTb5BacJdyTqSpYRVCdrx1Q7TUQDAr4QFh+npB5/WlG5TVLFsRZ+8BpMm36A0oVj2fb1Pk1ZP0ju73zEdBQD8iksuPRbzmFLjUtWwUkPfvhaTJp+gNMFjRy4c0f2/v185+TmmowCAX+l8T2el9U5Tu9rtSuX1mDT5BqUJHruZd5PCBADFcE+FezSjxwwNbDGwVKc/TJp8g9IEAICXVSpbSUmdkzS6/WiVCS5T6q/PpMk3KE0AAHhJaFCoBrcarBk9ZqhqRFVjOZg0+QalCQAAL+jfpL8W9F2geyvdazoKJ4L7CKUJAIASaFurrdL6pOmhex4yHeVbXJ7zDUoTAAB3oW75uprZc2apb/L2hNPy2ILSBABAMVQsW1ETOk/QqNhRKhtS1nScW2LS5BuUJgAAPFC4yXt69+mqFlnNdJw7YtLkG5QmAAB+QFzDOC3su1DNqzY3HcUjTJp8g9IEAMBttKnZRml90tS1XlfTUYqFSZNvUJoAAPiOOuXrKLlLsoa2HuqXt+8zafINShMAAEX0b9Jfywcsd+wmb0/4Y9HzB/ypAgBQRKPKjfy6MMF3KE0AABRhw5TGhvfgRPypAgBQhA2bqG14D05EaQIAoAgbpjRsBPcN/18ZAAB4kQ2Fg0mTb1CaAAAogkkTbsf/VwYAAF5kRWli0uQT/r8yAADwIhsKB5Mm36A0AQBQBJMm3I7/rwwAALzIhimNDe/BiShNAAAUYcOUxoZpmRPxpwoAQBE2FA4bip8T+f/KAADAi6woTVye8wn/XxkAAHiRDYWDSZNvUJoAACiCSRNux/9XBgAAXmTDlMaG9+BElCYAAIpg0oTb8f+VAQCAF1lRmpg0+USI6QAA4E9ccun+avfrRzV+pLoV6qpO+Trj9DPEAAAgAElEQVSKjoj+3r837N1hunDjgoGEKCkbpjQ2FD8nojQBwA+oHF5Z/9nsPxXXME7d63dXtchqP/jfxP8jvhSSwRdsKBw2FD8nojQBKLYeDXroD/3/YOz1B/6/gdp0YpNPXyM8JFw/afoT/bLFL9W3UV+FBYf59PXgHDZc2rLhPTgRpQlAsUWERqhhpYbGXj88NNxnP7tBxQZ66sGn9NvWv1Xl8Mo+ex04F5Mm3A6lCQAkPXTPQxrTYYx+0vQnCnYFm44Dg2woHEyafIPSBCCgdazbUdO6T1PPBj1NR4FDMGnC7VCaAAQkyhJux4YpjQ3vwYkoTQACSq1ytZQal6qBLQbyiwW3xKQJt0NpAhAQQoNCNbztcE3rPk3ly5Q3HQcOZkVp4guBT1CaAFjvRzV+pD/+5x/VvGpz01HgB2yY0thQ/JyIP1UAfsfTX2pBriCN7zRem4dupjDBYzYUDhuKnxMxaQLgdzw5aLJS2Upa8fMV6tGgRykkgk1suLRlw3twIkoTAL8TGhx6x39eq1wtvf+r9/VA9QdKKRFswqQJt0NpAuB3IkIjbvvPYqrGaNXAVapTvk4pJoJNrChNTJp8gtIEwO/UKlfrln//vuj7lDkoUzWjapZyItjEitLEpMkn/H9lAAg4dcvX/d7fu7/a/VrzmzUUJpSYDYWDSZNvUJoA+J3uDbr/21/3athL6wevV/XI6oYSwSZMmnA7/r8yAAScltVa6tFmj6pu+bpa1HeR3v/V+6pYtqLpWLCEDVMaG96DE7GnCYDfcblcWvHzFaZjwFJMmnA7/r8yAADwIhtKkw3vwYn4UwUAoAgbpjRcnvMNShMAAEXYMKWxofg5kf+vDAAAvMiGKY0N78GJKE0AABTBpAm34/8rAwAAL7KhcDBp8g1KEwAARTBpwu34/8oAAMCLrChNTJp8wv9XBgAAXmRD4WDS5BuUJgAAirBh0mTDe3AiHqMCAN9xPfe6PjvzmQ6cP6CD5w/qwPkDOn31tK7nXNeV7Cu6ePOi8gvy7/gzzl49W0pp4W02TGlsmJY5EaUJQMC7nntdGQcztO7oOn10/CNtO7VN2XnZpmPBEBumNDYUPyeiNAEISNdzr2vlvpVasXuF3tv3nq7mXDUdCQ5hw5TGhvfgRJQmAAHl5OWT+sP2P2jx5sX6+vrXpuPAgZg04XYoTQACwu6zu5WSlaK/7v2r8gryTMeBg9lQOGx4D05EaQJgtZOXT2rq2ql6fcfrys3PNR0HfsCKSROX53yC0gTASvkF+Vq8ZbEmfjiR/UooFhtKk/SvaVOBCkzHsAqlCYB1jlw4oif/9qSyjmSZjgI/ZE1pcrlUUEBp8iZKEwCr/L89/0+//uuvdSX7iuko8FO2XNoKcgX94HliKB476jQASHph8wsa8M4AChNKxJZJE7yPSRMAv5eTn6Ohfx+qtz59y3QUWMCWO88of95HaQLg127m3dTjKx7XX/b+xXQUWIKygduhNAHwW1eyr+hn//szZR7KNB0FFrGlNNkyMXMSShMAv3T++nk9/PbD2vzlZtNRYBlbNoLb8j6chNIEwO8cu3hMvZf11hdff2E6CizEpAm3Y8fKABBQnlr5FIUJPmNL2bCl/DkJf6IA/E52XrbpCLCYLWWDy3PeZ8fKAADAS6wpTZZMzJzEjpUBAICX2DKhseV9OAmlCQCAIpg04XbsWBkAAHiJLWWDSZP3UZoAACiCSRNux46VAQCAl1hTmpg0eZ0dKwMAAC+xpWwwafI+ShMAAEUwacLt2LEyAADwElsmNLaUPyfhTxQAgCJsKRu2lD8nsWNlAADgJdaUJi7PeZ0dKwMAAC+xpWwwafI+ShMAAEUwacLt2LEyAADwElsmNLa8DyehNAEAUASTJtyOHSsDAAAvsaY0MWnyOjtWBgAAXmLLhMaW9+EklCYAAIqwZUJjy8TMSfgTBQCgCFvKhi3lz0nsWBkAAHiJLaUJ3sfKAACgCFtKE3uavM+OlQEAgJdQNnA7lCYAAIqwZtLEniavs2NlAADgJZQN3A6lCQCAIqyZNHGZ0evsWBkAAHiJNaWJiZnX2bEyAADwAooG7oTSBACAm02XtGx6L05BaQIAwM2WS3PwDVYHAABuNpUmLjV6nz2rAwCAErKpaHB5zvsoTQAAuNk0aYL3sToAAHCzaTpj09TMKShNAAC4MWnCnbA6AABws6k02TQ1cwp7VgcAACVk0yUtm96LU1CaAABws2nSBO9jdQAA4GbTJS2b3otTUJoAAHBj0oQ7YXUAAOBmU2liT5P32bM6AAAoIZuKBpfnvI/SBACAm02TJngfqwMAADebpjM2Tc2cgtIEAIAbkybcCasDAAA3m0qTTVMzp7BndQAAUEI2XdKy6b04BaUJAAA3myZN8D5WBwAAbjZd0rLpvTgFpQkAADcmTbgTVgcAAG427QOy6b04BaUJAAA3myZNXJ7zPntWBwAAJWRTaYL3sToAAHCzaTrD5TnvozQBAODGpAl3wuoAAMDNpumMTVMzp6A0AQDgZtOkyaYC6BT2rA4AAErIptIE72N1AADgZtMlLZvei1NQmgAAcGPShDthdQAA4GbTPiCb3otTUJoAAHCzadLE5Tnvs2d1AABQQjaVJngfqwMAADebpjNcnvM+ShMAAG5MmnAnrA4AANxsms7YNDVzCkoTAABuTJpwJ6wOAADcbCpNNk3NnMKe1QEAQAnZdEnLpvfiFJQmAADcbJo0wftYHQAAuNl0Scum9+IUlCYAANyYNOFOWB0AALjZtA+IAuh9/IkCAOBmU9HIL8g3HcE69qwOAABKiNKEO7FndQAAUEI2bZ4uUIHpCNahNAEA4MakCXdiz+oAAKCEKE24E3tWBwAAJWTT3XMFBVye87YQ0wEA+J8D5w9o9sbZxl7/6IWjxl4bdrNpTxOTJu+jNAEotr3n9mpC5gTTMQCv4/Ic7sSe1QEAQAnZVJq4e8777FkdAACUkE2liUmT99mzOgAAKCGbNoJTmryP0gQAgJtNkybunvM+e1YHAAAlxN1zuBNKEwAAbjZNmihN3mfP6gAAoIRsKk3cPed99qwOAABKiI3guBNKEwAAbjZNmihN3mfP6gAAoIRs2gjO3XPeR2kCAMCNSRPuxJ7VAQBACVGacCf2rA4AAErIpo3g3D3nfZQmAADcmDThTuxZHQAAlJBNG8EpTd5HaQIAwM2mSRN3z3mfPasDAIASsqk0MWnyPntWBwAAJWTTRnBKk/dRmgAAcLNp0sTdc95nz+oAAKCE2AiOO6E0wWMVylRQzaiapmMAgM9ER0SbjuA1bAT3PkoTPFYjqob2x+9XalyqosKiTMcBAK9pWqWplg9YrvGdxpuO4jVMmryP0oRiiQyNVFKnJO0dsVfD2gxTsCvYdCQAuGtVwqtoUd9F+mz4ZxoQM8B0HK+iNHkfpQl3pXa52lrab6k2/3azutbrajoOABRLWHCYRsWO0sFRBxUfG6+QoBDTkbyO0uR9lCaUSJuabbTmN2uU8USGYqrGmI4DAD+of5P+2vPMHi3su1AVylQwHcdnuHvO+yhN8Iq4hnHa8dQOze8zX5XDK5uOAwDf06FOB20askl/f/zvalipoek4PsekyfsoTfCasOAwjWk/RgfiDyipU5LKBJcxHQkAVLd8Xb31s7e08cmNal+nvek4pSYnL8d0BOtQmuB1lcpWUmpcqnYN32XdxkoA/iMqLEpTuk3RvpH79ETLJ6w67fuH5BXkKa8gz3QM61Ca4DONKzfW8gHLtWnIJnWo08F0HAABIiQoRMPaDNOB+AOa3HWyyoaUNR2p1N3MvWk6gpUoTfC59nXaa+OTG7V8wHLVr1jfdBwAFotrGKftT23X0n5LVT2yuuk4xmTnZZuOYCVKE0qFy+XSgJgB+nz450qNS1X5MuVNRwJgkWbRzfTeL99TxhMZalGthek4xlGafIPShFIVERqhpE5JOhh/UKNiR3E4JoASiY6I1qK+i7Rr+C493Phh03Ec42Yel+d8gdIEI6IjorWw70I+6ADclaJfwOJj4/kC9h1MmnyD0gSjGKkDKA6XuNTvCUqTb1Ca4Ahs3gTwQ9rXaa+NQ7ipxBPcPecblCY4RtHbhKd0mxKQtwkD+D6OLyk+Jk2+QWmC40SFRWly18na/cxu/bz5z+VS4BxIB+D/VA6vrIV9F+rzZz7noNxiYiO4b1Ca4FgNKjbQ/z72v9r8283qfE9n03EAlJLQoFANazNMe0fs1ajYUQoNCjUdye9cyb5iOoKVKE1wvLa12mr94PV69/F3A+Ihm0Ag69+kv3Y/s1tL+y1V1YiqpuP4rcs3L5uOYCVKE/xGvyb9tOeZPVrUd5EqlKlgOg4AL2pTs43W/GaN/v7439WociPTcfze5WxKky9QmuBXwoLDFB8br4Oj/nU4ZkhQiOlIAEqgdrnaWtpvqbb8dou61utqOo41mDT5BqUJfqlKeBUt7LtQnw3/jA2igB+KDI1UUqck7R2xV8PaDFOQi19H3sSkyTdYpfBrTas01fIBy5U5KFMPVH/AdBwAPyDIFaRBDwzS/vj9So1LVVRYlOlIVmLS5BuUJlihZ4Oe2vbUNr3S/xXViKphOg6AW+jVsJf++bt/6s2fvqmaUTVNx7EakybfoDTBGsGuYP229W91IP4A32ABBymcCKc/kc7jkkrJ6SunTUewEqUJ1mGvBOAMVcKraFHfRew9NOD4peOmI1iJ3yawFnflAGaEBYdpVOwoHRx1UPGx8dzlasCxi8dMR7ASpQnWKzz/5d3H3+X8F8DH+jfprz3P7NHCvgs5T82Qm3k3dfbqWdMxrERpQsDo16SfPh/+udJ6p6lS2Uqm4wBW6Vi3ozYN2aS/P/53Tu437ItzX6hABaZjWInSVAqOXzquLy9/aToG9K/LBmM7jNX++P2Kj43nmVZACRU+I3LD4A1qX6e96TiQ9Lcv/mY6grWC1U1TTIew3blr57TkkyW6fPOyYuvEqkxwGdORAl5EaIR+3OjH+kWLX+irK19p99ndpiMBfiUqLErPPfSc/vTon/RAjQfkcrlMRwp413Ova9b6WZq5fqbyCvJMx7GSS1OY4ZWm2uVqa0aPGRr0wCDu6nKQNUfWKCE9QdtPbTcdBXC0kKAQPdXmKU3pNkXREdGm48Bt9eHVemrlUzpw/oDpKFajNBnSumZrpfVOU7f63UxHgVtBQYFW7FmhxPREHb141HQcwHHiGsZpfp/5nLXkICcvn9SzHz6rZZ8uYx9TKaA0GRbXME4L+y5U86rNTUeB27Wca1q8ZbFmrZ+lSzcvmY4DGBdTNUZze83Vw40fNh0Fbjn5OXp568uatHoSp3+XIkqTA4QGhWpwq8Ga0WOGqkZUNR0Hbicvn9TUtVP12vbX2B+AgFQzqqamdJuiIa2HKNgVbDoO3DIPZSr+H/Hac26P6SgBh9LkIJXKVlJS5ySNbj+azeIOsvvsbiVmJOr9/e+bjgKUiojQCI1sN1LPPfScypcpbzoO3A6cP6Axq8Zo5b6VpqMELEqTAzWu3Fgze87ksQMOk3koU2NWjdFnZz4zHQXwCZdceizmMc3tPVf1KtQzHQduV7KvKG1Tmp5f/7xu5t00HSegUZocrH2d9prfZ7461OlgOgrccvNz9fqO15WclawzV8+YjgN4DZ83zpNfkK+3d72txPREnb7KA3idgNLkcHzzc6bCb36pG1J1I/eG6TjAXWOy7UxZR7I05oMx+vT0p6ajoAhKk58o3GMwsctElQsrZzoO3I5fOq5Jqydxuy/8DnsonenA+QN67sPn9M7ud0xHwS1QmvxMrXK1NLnrZO5mcZgtX25RQnqCNhzbYDoKcEfcretM7FvyD5QmPxVTNUbzes/Tjxv92HQUuBUejpmUkaTDFw6bjgN8T/8m/TW/z3w1qtzIdBS4sW/Jv1Ca/ByHYzpPdl62lnyyRClZKbp486LpOIDa1GyjtD5p6lqvq+koKGL14dUau2os+5b8CKXJAoXj9undp6taZDXTceD29fWvNX3tdL209SXl5ueajoMAVLtcbaV0TdHQ1kN51qWD7D+/XxM/nMi+JT9EabJIpbKVlNw1Wc+0fUZhwWGm48Dt87Ofa1z6OH1w4APTURAgyoWV04TOEzSmwxiFh4SbjgO3CzcuaMa6GVq8ZbGy87JNx8FdoDRZ6J4K92hGjxka2GKgXC6X6ThwyzyUqXHp4xjFw2eCXEEa2HKgZsfNVo2oGqbjwI19S/agNFmMw+qcp/DDc3zGeH115SvTcWCRng16Kq1Pmh6o/oDpKChi9eHVGrNqjHae3mk6CryA0mS5wsMx5/Sao/oV65uOA7erOVc176N5mr1htq7nXjcdB37svuj7NK37NA6ndBj2LdmJ0hQgeACnM524dELT103Xq9tfVX5Bvuk48CNVwqsopWuKhrcdrpCgENNx4HbhxgWlbkjVwo8Xct6ShShNAaZWuVqa3n26fvOj33A3jYNwOCY8VTakrEa3H61nOz/LFyAHyc3P1SvbXtHkNZN17to503HgI5SmAMXhmM60ct9Kjf5gtA5+c9B0FDhM4aX22b1mq0HFBqbjoIjMQ5kau2qsdp3ZZToKfIzSFODiGsZpQZ8Fur/a/aajwC0nP0dv7HhDE1dP5BsrJEntarfT/D7z1aluJ9NRUMTus7uVmJGo9/e/bzoKSgmlCRyO6VDnr5/XnI1z2BsRwOqWr6uZPWdyfIjDnLx8UlPXTtVr219TXkGe6TgoRZQmfKti2Yqa0HkCTz13mH1f79Ok1ZO4CyeARIVFaVzHcUrqlKSyIWVNx4HbtZxrWrxlsWatn6VLNy+ZjgMDKE34Hg7HdKasI1lKWJWgHV/tMB0FPhISFKInWz3J1NdhCh/GnZieqKMXj5qOA4MoTbit2Nqxmt9nvjrW7Wg6Ctz48LYX+wudiS8rKIrShDvicExnKrxMMHPdTF3Ovmw6DkogpmqM5vaaq4cbP2w6CorgsjhuhdIEj4SHhCs+Np7DMR2GDan+q1a5WprcdbKGtB6iYFew6ThwK7wBY8HHC3ioLr6H0oRiiY6IVnKXZD3T7hk+6B1k99ndGpc+Tv848A/TUfADCk/nn9hlosqFlTMdB245+Tl6eevLmrxmsi7cuGA6DhyK0oS7wiUFZ8o8lKkxq8boszOfmY6C7yi81D2391zVq1DPdBwUwaGy8BSlCSXC5lXnKTwcMzkrWWeunjEdB5K61++utD5palWjlekoKGLrya1KWJWg9cfWm44CP0FpQolxm7QzFT44dNHmRbqRe8N0nIDUpEoTzegxQwNiBpiOgiKOXzquSasnadmny1TAr0AUA6UJXlN4OOao2FEcyOcgxy4eU3JWMr8gSlHl8Moa32k8B8U6zJXsK0rblKbUDal8kcBdoTTB6zgc05k2f7lZCasStPH4RtNRrFX4SKKZPWYqOiLadBy45ebn6vUdryslK0Wnr542HQd+jNIEn+FwTOcpPBwzKSNJhy8cNh3HKv2b9NeCvgt0b6V7TUdBEZmHMjV21VjtOrPLdBRYgNIEn+JwTGfKzsvWkk+WKDkrmWdoldCDtR5UWu80danXxXQUFLH77G4lZiTq/f3vm44Ci1CaUCo4HNOZzl07pxnrZuilrS8pNz/XdBy/Uqd8HSV3SdbQ1kMV5AoyHQduHPgKX6I0oVRxOKYz7T23V4kZiVq5b6XpKI4XGRqpxE6JGt9pvMJDwk3HgRuPFkJpoDTBiGbRzTSv9zwOx3SYzEOZSkhP0M7TO01HcZwgV5AGthyo2XGzVSOqhuk4cOMh1ihNlCYYxeGYzpNfkK+3d72t8Rnj9dWVr0zHcYS4hnFK652mltVbmo6CIrKOZClhVYJ2fLXDdBQECEoTjONwTGe6mnNV8z6ap9kbZut67nXTcYy4L/o+ze01V/2a9DMdBUXs+3qfJq2epHd2v2M6CgIMpQmOERUWpXEdxympUxKHYzrIiUsnNH3ddL26/VXlF+SbjlMqqoRXUUrXFA1vO1whQSGm48Dt/PXzmrNxjhZ8vEDZedmm4yAAUZrgOByO6UyfnPxEY1eNtfo5XWHBYXr6wac1tftUVShTwXQcuOXk5+jlrS9r8prJunDjguk4CGCUJjhWbO1YpfVJU6e6nUxHQRE2PhG+8Dyx2b1mq0HFBqbjoAgb1xv8F6UJjsYvM2ey6Zs/5dyZtp7cqoRVCVZPNuF/KE3wCxyO6Uz+vMeEy8DOdPzScU1aPYkHTMORKE3wKxyO6Uz+dDdTxbIVNaHzBI2KHcUNBw5yJfuK0jalKXVDqm7k3jAdB7glShP8UrPoZprbe64eafyI6SgoYvXh1UpIT9A/v/qn6SjfExoUqsGtBnO0hcPk5ufq9R2vKyUrRaevnjYdB7gjShP8WlzDOM3vM18tqrUwHQVu+QX5+vOeP2tc+jgdu3jMdBxJHKLqVJmHMjV21VjtOrPLdBTAI5Qm+L3CwzGndZ+m6pHVTceBmxOeBRZTNUbzes/Tjxv92Mjr49Z2n92txIxEvb//fdNRgGKhNMEaHI7pTF9e/lLT1k4r1afO1ypXS5O7TtaQ1kPY++YgJy+f1NS1U0t1LQDeRGmCdeqWr6uZPWdyV5TDbD+1XQnpCVpzZI3PXiMiNEIj243UxC4TVS6snM9eB8XjhKkj4A2UJlirXe12mt9nPufvOEzmoUyN/mC0Pj/7udd+ZpArSI82e1Rze89VvQr1vPZzUTIFBQVasWeFEtMTdfTiUdNxgBKjNMFqHI7pTDn5OXpjxxuatHqSzl47W6Kf1aNBD83rPU+tarTyUjp4Q9aRLCWsStCOr3aYjgJ4DaUJAaHwmWLTuk/jcEwH+ebGN5q9YbYWfrxQN/NuFuu/bVKliWb0mKEBMQN8lA53w5/O7AKKi9KEgMLhmM507OIxJWcle3QKdOXwyhrfabzGtB+jsOCwUkqIH+LPp8MDnqI0ISC1qNZCaX3S1KthL9NRUMS6o+uUkJ6gT05+8r1/Via4jEbGjtTEhyaqYtmKBtLhVm7m3dQLm1/QrPWz/P45hMAPoTQhoMU1jFNa7zS1rN7SdBS4FW4eHp8xXkcuHJEk9W/SXwv6LtC9le41Gw7/ZuW+lRr9wWgd/Oag6ShAqaA0IeCFBIVoSKshmtp9KodjOsj13Ot6actL6li3ozrW7Wg6DorYeHyjEtMTtenEJtNRgFJFaQLcIkMjNaLdCE3qMklRYVGm4wCOs//8fk38cKJW7F7xg3vPABtRmoDvqF2utlK6pnCaNOBWuMn7bu5yBGxCaQJuo03NNprXe5661e9mOgpgRHZetpZ8skST10xmkzcgShPwg+Iaxmlh34VqXrW56ShAqSjcjJ+UkaTDFw6bjgM4BqUJ8EBoUKgGtxqs6d2nq1pkNdNxAJ9ZfXi1EjMStf3UdtNRAMehNAHFEBUWpXEdxympU5LKhpQ1HQfwmr3n9iolK4WTvIE7oDQBd6Fu+bqa2XOmBrYYKJfLZToOcNfOXTunGetm6KWtLyk3P9d0HMDRKE1ACbSt1VZpfdL00D0PmY4CFMu1nGtavGWxZq2fpUs3L5mOA/gFShPgBZxYDX+RX5Cvt3e9raSMJJ26csp0HMCvUJoALyncLD6zx0xFR0SbjgN8T+ahTCWkJ2jn6Z2mowB+idIEeFnl8Moa32m8RrcfrTLBZUzHAbT91HYlZiRq9eHVpqMAfo3SBPhI48qNNbPnTD3W7DE2i8OIE5dOaPq66Xpt+2vKK8gzHQfwe5QmwMfa12mvtN5pPHQWpeZK9hWlbUrT7A2zdT33uuk4gDUoTUApcMmlx2Ie0+xes9WgYgPTcWCpnPwcvbHjDSVnJevM1TOm4wDWoTQBpSgsOExPP/i0pnafqgplKpiOA4us3LdSY1aN0YHzB0xHAaxFaQIMqBJeRSldUzS87XCFBIWYjgM/tuXLLUrMSNS6o+tMRwGsR2kCDGpapamm95iuATEDTEeBnzl68ahSslK07NNlKuBjHCgVlCbAAXo06KF5veepVY1WpqPA4c5fP685G+do4ccLdTPvpuk4QEChNAEOEeQK0qPNHtXc3nNVr0I903HgMNl52VryyRJNXjNZF25cMB0HCEiUJsBhIkIjNLLdSD330HMqX6a86TgwrKCgQCv2rFBSRpIOXzhsOg4Q0ChNgEPVKldLk7tO1pDWQxTsCjYdBwZ8dPwjjUsfp00nNpmOAkCUJsDxmkU309zec/VI40dMR0Ep2Xtur1KyUvTO7ndMRwFQBKUJ8BM/bvRjze09V82rNjcdBT5y6sopTVkzhceeAA5FaQL8CJvF7XQt55oWb1msWetn6dLNS6bjALgNShPghwo3iz/70LOcLO7H8gvy9faut5WUkaRTV06ZjgPgB1CaAD9WJbyKEjslanT70SoTXMZ0HBRD5qFMjUsfp09Pf2o6CgAPUZoAC9SrUE/Te0zXwBYD5XK5TMfBHXx+9nONzxiv9/e/bzoKgGKiNAEWaVurreb0mqNu9buZjoLvOHHphKavm84mb8CPUZoAC8U1jFNa7zS1rN7SdJSAdyX7itI2pWn2htm6nnvddBwAJUBpAizFnXZm5eTn6I0dbyglK0Wnr542HQeAF1CaAMtxp13pyzyUqdEfjNbnZz83HQWAF1GagADBnXa+t/XkVo1LH6d1R9eZjgLAByhNQIDhTjvvO3bxmJKzkrXs02Uq4CMVsBalCQhQ3GlXcuevn9ecjXO08OOFupl303QcAD5GaQICHHfaFV92XraWfLJEk9dM1oUbF0zHAVBKKE0AFOQK0sCWA/V8z+dVq1wt03Ecq6CgQCv2rNCEzAk69M0h03EAlDJKE4Bvcafd7W06sUnj0sfpo+MfmY4CwBBKE4DvqRZZTSldUzSszTCFBoWajmPUZ2c+04TMCXpv/3umowAwjNIE4LYC+U47HnsC4L7WdE8AAAPjSURBVLsoTQB+UCDdaffNjW80e8NsvbD5BR57AuDfUJoAeOwnTX+i53s+r5iqMaajeN2N3BtavGWxnl//vL658Y3pOAAciNIEoFgKn2n3fNzzurfSvabjlFh+Qb7+vOfPSspI0uELh03HAeBglCYAdyU0KFSDWw3WlG5TVDOqpuk4dyXzUKbGpY/Tp6c/NR0FgB+gNAEokcjQSI1oN0ITOk9QxbIVTcfxyJYvt2hC5gRlHckyHQWAH6E0AfCKyuGVNb7TeMXHxis8JNx0nFva9/U+TVo9SSt2r+AZcQCKjdIEwKuqRlRVQscEjW4/WmWCy5iOI0k6d+2c5n00Tws+XqDsvGzTcQD4KUoTAJ9oVLmRpnWfpv9q/l8KcgUZyXA5+7Lmbpyr+Zvm62rOVSMZANiD0gTAp2KqxmhC5wn6ZYtfKtgVXCqvmZOfozd2vKGUrBSdvnq6VF4TgP0oTQBKRfOqzZXUOUm/avErn02eCh+o+9yHz+nA+QM+eQ0AgYvSBKBUtarRSlO6TVH/Jv29+miWzEOZmpA5QdtObfPazwSAoihNAIxoUa2Fkrsm67Fmj5WoPG3+crMmfjhRHx7+0IvpAOD7KE0AjGpbq62SOifpZ/f9rFiX7Xae3qlJqyfp3X3v+jAdAPwfShMAR2hYqaFGxY7S0NZDFREacdt/78iFI3p+w/N6bftryivIK8WEAAIdpQmAo1SLrKYR7Ubo6QefVnRE9Ld/f++5vZqzcY6W7Vym3PxcgwkBBCpKEwBHCgsO0yONH1HX+l219sha/e2Lvym/IN90LAABjNIEAADgATPH9AIAAPgZShMAAIAHKE0AAAAeoDQBAAB4gNIEAADgAUoTAACAByhNAAAAHqA0AQAAeIDSBAAA4AFKEwAAgAcoTQAAAB6gNAEAAHiA0gQAAOABShMAAIAHKE0AAAAeoDQBAAB4gNIEAADgAUoTAACAByhNAAAAHqA0AQAAeIDSBAAA4AFKEwAAgAcoTQAAAB6gNAEAAHiA0gQAAOABShMAAIAHKE0AAAAeoDQBAAB4gNIEAADgAUoTAACAByhNAAAAHqA0AQAAeIDSBAAA4AFKEwAAgAcoTQAAAB6gNAEAAHiA0gQAAOABShMAAIAHKE0AAAAeoDQBAAB4gNIEAADgAUoTAACAByhNAAAAHqA0AQAAeIDSBAAA4AFKEwAAgAcoTQAAAB6gNAEAAHiA0gQAAOABShMAAIAHKE0AAAAeoDQBAAB4gNIEAADgAUoTAACAByhNAAAAHqA0AQAAeIDSBAAA4AFKEwAAgAcoTQAAAB6gNAEAAHiA0gQAAOCB/x8x+iO+L8npMQAAAABJRU5ErkJggg==;" parent="tWzSnTYjIMBNes1oTI9M-64" vertex="1">
          <mxGeometry x="5" width="50" height="50" as="geometry" />
        </mxCell>
        <mxCell id="tWzSnTYjIMBNes1oTI9M-66" value="&lt;font color=&quot;#000000&quot;&gt;Nexus Mirror&lt;br&gt;Registry&lt;br&gt;&lt;/font&gt;" style="text;html=1;resizable=0;autosize=1;align=center;verticalAlign=middle;points=[];fillColor=none;strokeColor=none;rounded=0;fontFamily=Roboto;fontColor=#A680B8;" parent="tWzSnTYjIMBNes1oTI9M-64" vertex="1">
          <mxGeometry x="-10" y="50" width="80" height="30" as="geometry" />
        </mxCell>
        <mxCell id="tWzSnTYjIMBNes1oTI9M-67" value="" style="endArrow=classic;html=1;fontFamily=Roboto;fontSize=12;fontColor=#000099;exitX=1;exitY=0.5;exitDx=0;exitDy=0;strokeWidth=2;strokeColor=#FF0000;entryX=0;entryY=0.5;entryDx=0;entryDy=0;" parent="tWzSnTYjIMBNes1oTI9M-64" source="tWzSnTYjIMBNes1oTI9M-65" target="tWzSnTYjIMBNes1oTI9M-104" edge="1">
          <mxGeometry width="50" height="50" relative="1" as="geometry">
            <mxPoint x="60" y="24" as="sourcePoint" />
            <mxPoint x="130" y="25" as="targetPoint" />
          </mxGeometry>
        </mxCell>
        <mxCell id="tWzSnTYjIMBNes1oTI9M-104" value="Container Cluster" style="fillColor=#EFF0F3;strokeColor=none;dashed=0;verticalAlign=top;fontStyle=0;fontColor=#232F3D;" parent="tWzSnTYjIMBNes1oTI9M-64" vertex="1">
          <mxGeometry x="100" y="-30" width="130" height="110" as="geometry" />
        </mxCell>
        <mxCell id="tWzSnTYjIMBNes1oTI9M-98" value="" style="group" parent="tWzSnTYjIMBNes1oTI9M-64" vertex="1" connectable="0">
          <mxGeometry x="170" y="10" width="50" height="50" as="geometry" />
        </mxCell>
        <mxCell id="tWzSnTYjIMBNes1oTI9M-99" value="" style="whiteSpace=wrap;html=1;aspect=fixed;strokeColor=#000066;fillColor=none;gradientColor=none;fontFamily=Roboto;fontSize=12;fontColor=#000099;" parent="tWzSnTYjIMBNes1oTI9M-98" vertex="1">
          <mxGeometry width="50" height="50" as="geometry" />
        </mxCell>
        <mxCell id="tWzSnTYjIMBNes1oTI9M-100" value="" style="outlineConnect=0;fontColor=#232F3E;gradientColor=none;fillColor=#D05C17;strokeColor=#000066;dashed=0;verticalLabelPosition=bottom;verticalAlign=top;align=center;html=1;fontSize=12;fontStyle=0;aspect=fixed;pointerEvents=1;shape=mxgraph.aws4.container_1;" parent="tWzSnTYjIMBNes1oTI9M-98" vertex="1">
          <mxGeometry x="9.399999999999977" y="15" width="31.2" height="20" as="geometry" />
        </mxCell>
        <mxCell id="tWzSnTYjIMBNes1oTI9M-101" value="" style="group" parent="tWzSnTYjIMBNes1oTI9M-64" vertex="1" connectable="0">
          <mxGeometry x="110" y="10" width="50" height="50" as="geometry" />
        </mxCell>
        <mxCell id="tWzSnTYjIMBNes1oTI9M-102" value="" style="whiteSpace=wrap;html=1;aspect=fixed;strokeColor=#000066;fillColor=none;gradientColor=none;fontFamily=Roboto;fontSize=12;fontColor=#000099;" parent="tWzSnTYjIMBNes1oTI9M-101" vertex="1">
          <mxGeometry width="50" height="50" as="geometry" />
        </mxCell>
        <mxCell id="tWzSnTYjIMBNes1oTI9M-103" value="" style="outlineConnect=0;fontColor=#232F3E;gradientColor=none;fillColor=#D05C17;strokeColor=#000066;dashed=0;verticalLabelPosition=bottom;verticalAlign=top;align=center;html=1;fontSize=12;fontStyle=0;aspect=fixed;pointerEvents=1;shape=mxgraph.aws4.container_1;" parent="tWzSnTYjIMBNes1oTI9M-101" vertex="1">
          <mxGeometry x="9.399999999999977" y="15" width="31.2" height="20" as="geometry" />
        </mxCell>
        <mxCell id="tWzSnTYjIMBNes1oTI9M-81" value="" style="outlineConnect=0;fontColor=#232F3E;gradientColor=none;fillColor=#4D4D4D;strokeColor=none;dashed=0;verticalLabelPosition=bottom;verticalAlign=top;align=center;html=1;fontSize=12;fontStyle=0;aspect=fixed;pointerEvents=1;shape=mxgraph.aws4.auto_scaling2;" parent="1" vertex="1">
          <mxGeometry x="665" y="290" width="30" height="30" as="geometry" />
        </mxCell>
        <mxCell id="tWzSnTYjIMBNes1oTI9M-82" value="" style="group" parent="1" vertex="1" connectable="0">
          <mxGeometry x="590" y="330" width="50" height="50" as="geometry" />
        </mxCell>
        <mxCell id="tWzSnTYjIMBNes1oTI9M-83" value="" style="whiteSpace=wrap;html=1;aspect=fixed;strokeColor=#000066;fillColor=none;gradientColor=none;fontFamily=Roboto;fontSize=12;fontColor=#000099;" parent="tWzSnTYjIMBNes1oTI9M-82" vertex="1">
          <mxGeometry width="50" height="50" as="geometry" />
        </mxCell>
        <mxCell id="tWzSnTYjIMBNes1oTI9M-84" value="" style="outlineConnect=0;fontColor=#232F3E;gradientColor=none;fillColor=#D05C17;strokeColor=#000066;dashed=0;verticalLabelPosition=bottom;verticalAlign=top;align=center;html=1;fontSize=12;fontStyle=0;aspect=fixed;pointerEvents=1;shape=mxgraph.aws4.container_1;" parent="tWzSnTYjIMBNes1oTI9M-82" vertex="1">
          <mxGeometry x="9.399999999999977" y="15" width="31.2" height="20" as="geometry" />
        </mxCell>
        <mxCell id="tWzSnTYjIMBNes1oTI9M-85" value="" style="group" parent="1" vertex="1" connectable="0">
          <mxGeometry x="655" y="330" width="50" height="50" as="geometry" />
        </mxCell>
        <mxCell id="tWzSnTYjIMBNes1oTI9M-86" value="" style="whiteSpace=wrap;html=1;aspect=fixed;strokeColor=#000066;fillColor=none;gradientColor=none;fontFamily=Roboto;fontSize=12;fontColor=#000099;" parent="tWzSnTYjIMBNes1oTI9M-85" vertex="1">
          <mxGeometry width="50" height="50" as="geometry" />
        </mxCell>
        <mxCell id="tWzSnTYjIMBNes1oTI9M-87" value="" style="outlineConnect=0;fontColor=#232F3E;gradientColor=none;fillColor=#D05C17;strokeColor=#000066;dashed=0;verticalLabelPosition=bottom;verticalAlign=top;align=center;html=1;fontSize=12;fontStyle=0;aspect=fixed;pointerEvents=1;shape=mxgraph.aws4.container_1;" parent="tWzSnTYjIMBNes1oTI9M-85" vertex="1">
          <mxGeometry x="9.399999999999977" y="15" width="31.2" height="20" as="geometry" />
        </mxCell>
        <mxCell id="tWzSnTYjIMBNes1oTI9M-90" value="" style="group" parent="1" vertex="1" connectable="0">
          <mxGeometry x="720" y="330" width="50" height="50" as="geometry" />
        </mxCell>
        <mxCell id="tWzSnTYjIMBNes1oTI9M-91" value="" style="whiteSpace=wrap;html=1;aspect=fixed;strokeColor=#000066;fillColor=none;gradientColor=none;fontFamily=Roboto;fontSize=12;fontColor=#000099;" parent="tWzSnTYjIMBNes1oTI9M-90" vertex="1">
          <mxGeometry width="50" height="50" as="geometry" />
        </mxCell>
        <mxCell id="tWzSnTYjIMBNes1oTI9M-92" value="" style="outlineConnect=0;fontColor=#232F3E;gradientColor=none;fillColor=#D05C17;strokeColor=#000066;dashed=0;verticalLabelPosition=bottom;verticalAlign=top;align=center;html=1;fontSize=12;fontStyle=0;aspect=fixed;pointerEvents=1;shape=mxgraph.aws4.container_1;" parent="tWzSnTYjIMBNes1oTI9M-90" vertex="1">
          <mxGeometry x="9.399999999999977" y="15" width="31.2" height="20" as="geometry" />
        </mxCell>
        <mxCell id="tWzSnTYjIMBNes1oTI9M-93" value="&lt;div style=&quot;text-align: center&quot;&gt;&lt;span&gt;&lt;font face=&quot;roboto&quot;&gt;Auto Scaler Containers&lt;/font&gt;&lt;/span&gt;&lt;/div&gt;" style="text;whiteSpace=wrap;html=1;fontSize=12;fontFamily=Roboto;fontColor=#000066;" parent="1" vertex="1">
          <mxGeometry x="620" y="270" width="130" height="40" as="geometry" />
        </mxCell>
        <mxCell id="tWzSnTYjIMBNes1oTI9M-94" value="" style="endArrow=classic;html=1;fontFamily=Roboto;fontSize=12;fontColor=#000099;exitX=1;exitY=0.25;exitDx=0;exitDy=0;strokeWidth=2;strokeColor=#666666;dashed=1;" parent="1" source="tWzSnTYjIMBNes1oTI9M-25" target="tWzSnTYjIMBNes1oTI9M-58" edge="1">
          <mxGeometry width="50" height="50" relative="1" as="geometry">
            <mxPoint x="460" y="670" as="sourcePoint" />
            <mxPoint x="600" y="725" as="targetPoint" />
          </mxGeometry>
        </mxCell>
        <mxCell id="tWzSnTYjIMBNes1oTI9M-106" value="1" style="ellipse;whiteSpace=wrap;html=1;aspect=fixed;strokeColor=#000066;fillColor=#4D4D4D;gradientColor=none;fontFamily=Roboto;fontSize=16;fontColor=#FFFFFF;fontStyle=1" parent="1" vertex="1">
          <mxGeometry x="110" y="350" width="30" height="30" as="geometry" />
        </mxCell>
        <mxCell id="tWzSnTYjIMBNes1oTI9M-107" value="2" style="ellipse;whiteSpace=wrap;html=1;aspect=fixed;strokeColor=#000066;fillColor=#4D4D4D;gradientColor=none;fontFamily=Roboto;fontSize=16;fontColor=#FFFFFF;fontStyle=1" parent="1" vertex="1">
          <mxGeometry x="330" y="350" width="30" height="30" as="geometry" />
        </mxCell>
        <mxCell id="tWzSnTYjIMBNes1oTI9M-108" value="3" style="ellipse;whiteSpace=wrap;html=1;aspect=fixed;strokeColor=#000066;fillColor=#4D4D4D;gradientColor=none;fontFamily=Roboto;fontSize=16;fontColor=#FFFFFF;fontStyle=1" parent="1" vertex="1">
          <mxGeometry x="330" y="440" width="30" height="30" as="geometry" />
        </mxCell>
        <mxCell id="tWzSnTYjIMBNes1oTI9M-109" value="4" style="ellipse;whiteSpace=wrap;html=1;aspect=fixed;strokeColor=#000066;fillColor=#4D4D4D;gradientColor=none;fontFamily=Roboto;fontSize=16;fontColor=#FFFFFF;fontStyle=1" parent="1" vertex="1">
          <mxGeometry x="330" y="520" width="30" height="30" as="geometry" />
        </mxCell>
        <mxCell id="tWzSnTYjIMBNes1oTI9M-110" value="5" style="ellipse;whiteSpace=wrap;html=1;aspect=fixed;strokeColor=#000066;fillColor=#4D4D4D;gradientColor=none;fontFamily=Roboto;fontSize=16;fontColor=#FFFFFF;fontStyle=1" parent="1" vertex="1">
          <mxGeometry x="470" y="350" width="30" height="30" as="geometry" />
        </mxCell>
        <mxCell id="tWzSnTYjIMBNes1oTI9M-111" value="6" style="ellipse;whiteSpace=wrap;html=1;aspect=fixed;strokeColor=#000066;fillColor=#4D4D4D;gradientColor=none;fontFamily=Roboto;fontSize=16;fontColor=#FFFFFF;fontStyle=1" parent="1" vertex="1">
          <mxGeometry x="470" y="470" width="30" height="30" as="geometry" />
        </mxCell>
        <mxCell id="tWzSnTYjIMBNes1oTI9M-112" value="7" style="ellipse;whiteSpace=wrap;html=1;aspect=fixed;strokeColor=#000066;fillColor=#4D4D4D;gradientColor=none;fontFamily=Roboto;fontSize=16;fontColor=#FFFFFF;fontStyle=1" parent="1" vertex="1">
          <mxGeometry x="470" y="540" width="30" height="30" as="geometry" />
        </mxCell>
        <mxCell id="abKgwtu1IpqZm8esfIJR-8" value="" style="group" vertex="1" connectable="0" parent="1">
          <mxGeometry x="365" y="360" width="90" height="80" as="geometry" />
        </mxCell>
        <mxCell id="abKgwtu1IpqZm8esfIJR-4" value="" style="shape=image;imageAspect=0;aspect=fixed;verticalLabelPosition=bottom;verticalAlign=top;strokeColor=#000066;fillColor=#4D4D4D;gradientColor=none;fontFamily=Roboto;fontSize=16;fontColor=#FFFFFF;image=data:image/svg+xml,PHN2ZyB4bWxuczpkYz0iaHR0cDovL3B1cmwub3JnL2RjL2VsZW1lbnRzLzEuMS8iIHhtbG5zOmNjPSJodHRwOi8vY3JlYXRpdmVjb21tb25zLm9yZy9ucyMiIHhtbG5zOnJkZj0iaHR0cDovL3d3dy53My5vcmcvMTk5OS8wMi8yMi1yZGYtc3ludGF4LW5zIyIgeG1sbnM6c3ZnPSJodHRwOi8vd3d3LnczLm9yZy8yMDAwL3N2ZyIgeG1sbnM9Imh0dHA6Ly93d3cudzMub3JnLzIwMDAvc3ZnIiB4bWxuczpzb2RpcG9kaT0iaHR0cDovL3NvZGlwb2RpLnNvdXJjZWZvcmdlLm5ldC9EVEQvc29kaXBvZGktMC5kdGQiIHhtbG5zOmlua3NjYXBlPSJodHRwOi8vd3d3Lmlua3NjYXBlLm9yZy9uYW1lc3BhY2VzL2lua3NjYXBlIiBzb2RpcG9kaTpkb2NuYW1lPSJnb2hhcmJvci5zdmciIGlua3NjYXBlOnZlcnNpb249IjEuMGJldGExICgzMmQ0ODEyLCAyMDE5LTA5LTE5KSIgaW5rc2NhcGU6ZXhwb3J0LXlkcGk9Ijk2IiBpbmtzY2FwZTpleHBvcnQteGRwaT0iOTYiIGlua3NjYXBlOmV4cG9ydC1maWxlbmFtZT0iL1VzZXJzL2psaW0vRG93bmxvYWRzL2plbmtpbnMucG5nIiBpZD0ic3ZnOCIgdmVyc2lvbj0iMS4xIiB2aWV3Qm94PSIwIDAgOTIuNzYzMTIzIDkyLjc2MzEyMyIgaGVpZ2h0PSI5Mi43NjMxMjNtbSIgd2lkdGg9IjkyLjc2MzEyM21tIj4mI3hhOyAgPGRlZnMgaWQ9ImRlZnMyIi8+JiN4YTsgIDxzb2RpcG9kaTpuYW1lZHZpZXcgZml0LW1hcmdpbi1ib3R0b209IjAiIGZpdC1tYXJnaW4tcmlnaHQ9IjAiIGZpdC1tYXJnaW4tbGVmdD0iMCIgZml0LW1hcmdpbi10b3A9IjAiIGlua3NjYXBlOndpbmRvdy1tYXhpbWl6ZWQ9IjAiIGlua3NjYXBlOndpbmRvdy15PSI4OSIgaW5rc2NhcGU6d2luZG93LXg9IjE5NSIgaW5rc2NhcGU6d2luZG93LWhlaWdodD0iOTA3IiBpbmtzY2FwZTp3aW5kb3ctd2lkdGg9IjE2MDAiIHNob3dncmlkPSJmYWxzZSIgaW5rc2NhcGU6ZG9jdW1lbnQtcm90YXRpb249IjAiIGlua3NjYXBlOmN1cnJlbnQtbGF5ZXI9ImxheWVyMSIgaW5rc2NhcGU6ZG9jdW1lbnQtdW5pdHM9Im1tIiBpbmtzY2FwZTpjeT0iNDA1LjkzOTc3IiBpbmtzY2FwZTpjeD0iNDgzLjMyNDI2IiBpbmtzY2FwZTp6b29tPSIwLjciIGlua3NjYXBlOnBhZ2VzaGFkb3c9IjIiIGlua3NjYXBlOnBhZ2VvcGFjaXR5PSIwLjAiIGJvcmRlcm9wYWNpdHk9IjEuMCIgYm9yZGVyY29sb3I9IiM2NjY2NjYiIHBhZ2Vjb2xvcj0iI2ZmZmZmZiIgaWQ9ImJhc2UiLz4mI3hhOyAgPG1ldGFkYXRhIGlkPSJtZXRhZGF0YTUiPiYjeGE7ICAgIDxyZGY6UkRGPiYjeGE7ICAgICAgPGNjOldvcmsgcmRmOmFib3V0PSIiPiYjeGE7ICAgICAgICA8ZGM6Zm9ybWF0PmltYWdlL3N2Zyt4bWw8L2RjOmZvcm1hdD4mI3hhOyAgICAgICAgPGRjOnR5cGUgcmRmOnJlc291cmNlPSJodHRwOi8vcHVybC5vcmcvZGMvZGNtaXR5cGUvU3RpbGxJbWFnZSIvPiYjeGE7ICAgICAgICA8ZGM6dGl0bGUvPiYjeGE7ICAgICAgPC9jYzpXb3JrPiYjeGE7ICAgIDwvcmRmOlJERj4mI3hhOyAgPC9tZXRhZGF0YT4mI3hhOyAgPGcgaWQ9ImxheWVyMSIgaW5rc2NhcGU6Z3JvdXBtb2RlPSJsYXllciIgaW5rc2NhcGU6bGFiZWw9IkxheWVyIDEiPiYjeGE7ICAgIDxyZWN0IHk9IjAiIHg9IjAiIGhlaWdodD0iOTIuNzYzMTIzIiB3aWR0aD0iOTIuNzYzMTIzIiBpZD0icmVjdDg0MyIgc3R5bGU9Im9wYWNpdHk6MTtmaWxsOiM2NjY1NzQ7ZmlsbC1vcGFjaXR5OjE7c3Ryb2tlLXdpZHRoOjAuNDkwODcxO3N0b3Atb3BhY2l0eToxIi8+JiN4YTsgICAgPGcgc3R5bGU9Im9wYWNpdHk6MTtmaWxsOiM4MDgwMDA7c3Ryb2tlOiMwMDAwMDA7c3Ryb2tlLXdpZHRoOjEuMDAxMDQ7c3Ryb2tlLW1pdGVybGltaXQ6NDtzdHJva2UtZGFzaGFycmF5OjEuMDAxMDQsIDEuMDAxMDQ7c3Ryb2tlLWRhc2hvZmZzZXQ6MDtzdHJva2Utb3BhY2l0eToxIiB0cmFuc2Zvcm09Im1hdHJpeCgwLjIxMDY4MzkzLDAsMCwwLjIxMDY4MzkzLDguNDEzMDk3Nyw4LjYxNzY4NTMpIiBpZD0iZzkyNyI+JiN4YTsgICAgICA8cGF0aCBzdHlsZT0iZmlsbDojZmZmZmZmO3N0cm9rZTpub25lO3N0cm9rZS13aWR0aDoxLjAwMTA0O3N0cm9rZS1taXRlcmxpbWl0OjQ7c3Ryb2tlLWRhc2hhcnJheToxLjAwMTA0LCAxLjAwMTA0O3N0cm9rZS1kYXNob2Zmc2V0OjA7c3Ryb2tlLW9wYWNpdHk6MSIgaW5rc2NhcGU6Y29ubmVjdG9yLWN1cnZhdHVyZT0iMCIgZD0ibSAxMTEuNDg1LDIwNy40MjQgNTcuMiwyNS4yMDYgLTMuOTQ0LC00OC4yMzcgaCA3LjQ4NiB2IC0xNi4xMTggaCAtNS41NTQgdiAtMzIuODkyIGggNS41NTQgdiAtOS40NTUgbCAtMzAuODUsLTMwLjE4NyB2IC0yLjEyNCBhIDIuOTIsMi45MiAwIDAgMCAtMi45MTEsLTIuOTExIDIuOTIsMi45MiAwIDAgMCAtMi45MTIsMi45MTEgdiAyLjEyNCBsIC0zMC44NTEsMzAuMTg3IHYgOS40NTUgaCA1LjU1NSB2IDMyLjg5MiBoIC01LjU1NSB2IDE2LjExOCBoIDguODIgbCAtMi4wMzgsMjMuMDMgeiBtIDcuNzAzLC03Mi4wNDEgaCAzOC41NTQgdiAzMi44OTIgaCAtOS4xNSB2IC0xNC4wNSBjIDAsLTUuNTcgLTQuNTU1LC0xMC4xMjkgLTEwLjEyNiwtMTAuMTI5IC01LjU3MSwwIC0xMC4xMjksNC41NTggLTEwLjEyOSwxMC4xMyB2IDE0LjA0OSBoIC05LjE1IHYgLTMyLjg5MiB6IG0gLTExLjA1MywxMDkuODk3IDYzLjg4OCwyOC4xNTYgLTAuOTU5LC0xMS43MjUgLTYxLjk2OCwtMjcuMzA1IHogbSAtMC43MTIsOC4wNTYgLTAuOTYzLDEwLjg3MyA2Ny4yMywyOS42MjggLTAuOTU2LC0xMS43MiB6IG0gMy4zNSwtMzcuODU5IC0wLjk2MywxMC44NzcgNjAuNTQ0LDI2LjY3NyAtMC45NTgsLTExLjcyMSB6IiBpZD0icGF0aDkwNiIvPiYjeGE7ICAgICAgPHBhdGggc3R5bGU9ImZpbGw6I2ZmZmZmZjtmaWxsLW9wYWNpdHk6MTtzdHJva2U6I2ZmZmZmZjtzdHJva2Utd2lkdGg6MS4wMDEwNDtzdHJva2UtbWl0ZXJsaW1pdDo0O3N0cm9rZS1kYXNoYXJyYXk6MS4wMDEwNCwgMS4wMDEwNDtzdHJva2UtZGFzaG9mZnNldDowO3N0cm9rZS1vcGFjaXR5OjEiIGlua3NjYXBlOmNvbm5lY3Rvci1jdXJ2YXR1cmU9IjAiIGQ9Im0gMzQ3LjkyNCwyMTkuMjM1IGMgMC4wNTgsLTAuMjQyIDAuMTIxLC0wLjQ4MSAwLjE3OCwtMC43MjQgYSAxNzAuNjI0LDE3MC42MjQgMCAwIDAgNC4yMzIsLTQ2LjkwMyBsIC0yMy45OTQsLTEuNzIyIC03LjE4NSwtMC41MTYgLTE0Ny40NjUsLTEwLjU4MyAxNDQuNjcsNTAuMTkxIDIuMDk4LDAuNzI4IGMgLTE0LjA3OSw2My40NzQgLTcwLjc4NSwxMTEuMSAtMTM4LjQzNiwxMTEuMSAtMi4wNTcsMCAtNC4xMDEsLTAuMDU0IC02LjEzNywtMC4xNDEgbCAtMS40ODQsLTE4LjE0NyAtNjguNjU0LC0zMC4yNTMgLTIuMTk0LDI0Ljc5NSBDIDY1LjM5LDI3MS42MTYgNDAuMTkzLDIyOC4xODggNDAuMTkzLDE3OC45ODEgYyAwLC03OC4yMDIgNjMuNjI2LC0xNDEuODI0IDE0MS44MywtMTQxLjgyNCAyNy40NjYsMCA1My4xMDYsNy44ODcgNzQuODUsMjEuNDYzIGwgLTAuODQzLDAuODc3IC04Mi4zNCw4NS42MzIgMTEzLjM4LC01OC42NzcgYyA2LjM0Miw3LjM1NCAxMS45OCwxNS4zMjMgMTYuNzI3LDIzLjg2OCAwLjA5NiwwLjE3MiAwLjE3OCwwLjM1NCAwLjI3NCwwLjUzIGwgLTEyOC4xNDgsNDEuMTggMTQxLjk4LC00LjgzNCBhIDE0MC45NywxNDAuOTcgMCAwIDEgMy4yNTIsMjIuMTczIGwgNy4xODUsMC41MTYgMjMuOTk0LDEuNzIyIEEgMTcwLjM4MiwxNzAuMzgyIDAgMCAwIDM0OS4xOTYsMTQ2LjEyOSAxNjkuNDI2LDE2OS40MjYgMCAwIDAgMzMzLjQ1LDEwMS40MDkgMTcxLjI4MywxNzEuMjgzIDAgMCAwIDMxNC4zNjgsNzIuMzI1IDE3Mi4xNDIsMTcyLjE0MiAwIDAgMCAyNzguMTEsMzguODkgQyAyNzcuNjU1LDM4LjU3OCAyNzcuMiwzOC4yNjQgMjc2Ljc0MiwzNy45NTcgMjQ5LjU3OSwxOS43MTUgMjE2LjkxNSw5LjA1OSAxODEuODA4LDkuMDU5IGMgLTk0LjE0LDAgLTE3MC43MjcsNzYuNTg3IC0xNzAuNzI3LDE3MC43MjYgMCw5NC4xMzkgNzYuNTg3LDE3MC43MjcgMTcwLjcyNywxNzAuNzI3IDgwLjU2MywwIDE0OC4yNjQsLTU2LjA5NSAxNjYuMTE2LC0xMzEuMjc2IHoiIGlkPSJwYXRoOTA4Ii8+JiN4YTsgICAgICA8cGF0aCBzdHlsZT0iZmlsbDojZmZmZmZmO3N0cm9rZTpub25lO3N0cm9rZS13aWR0aDoxLjAwMTA0O3N0cm9rZS1taXRlcmxpbWl0OjQ7c3Ryb2tlLWRhc2hhcnJheToxLjAwMTA0LCAxLjAwMTA0O3N0cm9rZS1kYXNob2Zmc2V0OjA7c3Ryb2tlLW9wYWNpdHk6MSIgaW5rc2NhcGU6Y29ubmVjdG9yLWN1cnZhdHVyZT0iMCIgZD0iTSAxODEuODA4LDUuMDU4IEMgODUuNDYzLDUuMDU4IDcuMDgsODMuNDM5IDcuMDgsMTc5Ljc4NCBjIDAsOTYuMzQ1IDc4LjM4MiwxNzQuNzI3IDE3NC43MjcsMTc0LjcyNyA5Ni4zNDUsMCAxNzQuNzI2LC03OC4zODIgMTc0LjcyNiwtMTc0LjcyNyBDIDM1Ni41MzMsODMuNDM5IDI3OC4xNTIsNS4wNTggMTgxLjgwOCw1LjA1OCBaIE0gMTEuMDgsMTc5Ljc4NCBDIDExLjA4LDg1LjY0NSA4Ny42NjcsOS4wNTggMTgxLjgwNyw5LjA1OCBjIDM1LjEwNywwIDY3Ljc3LDEwLjY1NiA5NC45MzQsMjguODk4IDAuNDU4LDAuMzA3IDAuOTEzLDAuNjIgMS4zNjgsMC45MzMgYSAxNzIuMTQyLDE3Mi4xNDIgMCAwIDEgMzYuMjU4LDMzLjQzNyAxNzEuMjgzLDE3MS4yODMgMCAwIDEgMTkuMDgyLDI5LjA4MyAxNjkuNDI2LDE2OS40MjYgMCAwIDEgMTUuNzQ2LDQ0LjcyMSAxNzAuMzgyLDE3MC4zODIgMCAwIDEgMy4xMzgsMjUuNDc4IDE3MC42MjQsMTcwLjYyNCAwIDAgMSAtNC4yMzMsNDYuOTAzIGMgLTAuMDU2LDAuMjQzIC0wLjEyLDAuNDgyIC0wLjE3NywwLjcyNCAtMTcuODUyLDc1LjE4MSAtODUuNTUzLDEzMS4yNzYgLTE2Ni4xMTYsMTMxLjI3NiAtOTQuMTQsMCAtMTcwLjcyNywtNzYuNTg4IC0xNzAuNzI3LC0xNzAuNzI3IHoiIGlkPSJwYXRoOTEwIi8+JiN4YTsgICAgPC9nPiYjeGE7ICA8L2c+JiN4YTsgIDxzdHlsZSBpZD0ic3R5bGU4OTgiPnN2ZyB7ZW5hYmxlLWJhY2tncm91bmQ6bmV3IDAgMCAzNjAgMzYwfTwvc3R5bGU+JiN4YTsgIDxzdHlsZSBpZD0ic3R5bGU5MDAiPi5zdDB7ZmlsbDpub25lfTwvc3R5bGU+JiN4YTs8L3N2Zz4=;" vertex="1" parent="abKgwtu1IpqZm8esfIJR-8">
          <mxGeometry x="20" width="50" height="50" as="geometry" />
        </mxCell>
        <mxCell id="abKgwtu1IpqZm8esfIJR-7" value="&lt;font color=&quot;#000000&quot; style=&quot;font-size: 12px;&quot;&gt;goHarbor AWS&lt;br style=&quot;font-size: 12px;&quot;&gt;Registry&lt;br style=&quot;font-size: 12px;&quot;&gt;&lt;/font&gt;" style="text;html=1;resizable=0;autosize=1;align=center;verticalAlign=middle;points=[];fillColor=none;strokeColor=none;rounded=0;fontFamily=Roboto;fontSize=12;fontColor=#FFFFFF;" vertex="1" parent="abKgwtu1IpqZm8esfIJR-8">
          <mxGeometry y="50" width="90" height="30" as="geometry" />
        </mxCell>
      </root>
    </mxGraphModel>
  </diagram>
</mxfile>
